<svg width="49" height="50" viewBox="0 0 49 50" fill="none" xmlns="http://www.w3.org/2000/svg">
<path id="Vector" d="M11.4029 8.69555C13.1342 10.2737 16.7034 14.5843 17.1185 19.2101C17.507 23.5363 20.3592 27.0523 24.7209 27.0966C26.3968 27.1144 28.0904 25.9047 28.0859 24.2288C28.0859 23.7116 27.9994 23.1811 27.8662 22.6928C27.6451 21.9443 27.7107 21.1403 28.0504 20.4376C29.4044 17.6475 32.068 16.8972 34.1767 15.3812C35.1112 14.7086 35.9658 13.9984 36.3409 13.4279C37.3819 11.8519 38.4207 8.69777 37.9013 7.11958M46.9176 27.0966C46.1852 29.1632 45.668 34.588 37.413 34.6746C37.413 34.6746 30.1036 34.6746 27.9106 38.8076C26.1548 42.115 27.1781 45.6953 27.9106 47.0737M46.9176 24.877C46.9176 37.1359 36.9798 47.0737 24.7209 47.0737C12.462 47.0737 2.52417 37.1359 2.52417 24.877C2.52417 12.6181 12.462 2.68024 24.7209 2.68024C36.9798 2.68024 46.9176 12.6181 46.9176 24.877Z" stroke="#FFFF00" stroke-width="4.03123"/>
</svg>
