<svg width="49" height="49" viewBox="0 0 49 49" fill="none" xmlns="http://www.w3.org/2000/svg">
<path opacity="0.5" d="M11.4029 8.69549C13.1342 10.2737 16.7034 14.5843 17.1185 19.2101C17.507 23.5362 20.3592 27.0522 24.7209 27.0966C26.3968 27.1143 28.0904 25.9046 28.0859 24.2288C28.0859 23.7116 27.9994 23.1811 27.8662 22.6928C27.6451 21.9443 27.7107 21.1402 28.0504 20.4376C29.4044 17.6474 32.068 16.8972 34.1767 15.3811C35.1112 14.7086 35.9658 13.9983 36.3409 13.4278C37.3819 11.8519 38.4207 8.69771 37.9013 7.11952M46.9176 27.0966C46.1852 29.1631 45.668 34.588 37.413 34.6746C37.413 34.6746 30.1036 34.6745 27.9106 38.8076C26.1548 42.1149 27.1781 45.6952 27.9106 47.0737M46.9176 24.8769C46.9176 37.1358 36.9798 47.0737 24.7209 47.0737C12.462 47.0737 2.52417 37.1358 2.52417 24.8769C2.52417 12.618 12.462 2.68018 24.7209 2.68018C36.9798 2.68018 46.9176 12.618 46.9176 24.8769Z" stroke="white" stroke-width="3.50475"/>
</svg>
