<svg width="261" height="112" viewBox="0 0 261 112" fill="none" xmlns="http://www.w3.org/2000/svg">
<path d="M7.61731 12.0932H35.9301C43.9969 12.0932 47.2658 15.8366 47.2658 22.9543V25.9596C47.2658 31.9701 44.9459 35.5026 39.4099 36.5044L48.4257 47.6819C48.7421 48.051 48.6893 49 47.7403 49H40.9389C40.0426 49 39.779 48.7891 39.4626 48.3146L31.1322 37.348H14.1024V47.8401C14.1024 48.6309 13.7333 49 12.9424 49H7.24824C6.45738 49 6.03559 48.6309 6.03559 47.8401V13.6749C6.03559 12.6204 6.56283 12.0932 7.61731 12.0932ZM14.1024 19.9491V30.9157H34.2957C37.8809 30.9157 39.199 29.3867 39.199 26.2232V24.0088C39.199 20.8454 37.8809 19.3164 34.2957 19.3164H14.7878C14.3133 19.3164 14.1024 19.5273 14.1024 19.9491ZM77.2274 12.0932H80.3382C83.0271 12.0932 84.6615 12.9368 86.4014 16.1002L103.853 47.7873C104.222 48.4728 104.064 49 103.22 49H96.5244C95.839 49 95.5754 48.8418 95.3118 48.3146L91.5684 41.5132H66.7881L63.1501 48.3146C62.8865 48.8418 62.5702 49 61.9375 49H55.0833C54.187 49 54.0289 48.4728 54.3979 47.7873L71.6914 16.1002C73.4313 12.9368 75.013 12.0932 77.2274 12.0932ZM78.3874 19.9491L70.1097 35.3972H88.2468L79.8636 19.9491C79.7055 19.6854 79.5473 19.58 79.2837 19.58H78.9673C78.7037 19.58 78.5455 19.6854 78.3874 19.9491ZM113.059 12.0932H137.734C149.175 12.0932 153.868 16.6802 153.868 26.9614V34.1318C153.868 44.413 149.175 49 137.734 49H113.059C112.005 49 111.477 48.4728 111.477 47.4183V13.6749C111.477 12.6204 112.005 12.0932 113.059 12.0932ZM119.544 20.16V40.9859C119.544 41.4605 119.755 41.6714 120.23 41.6714H137.523C143.745 41.6714 145.801 39.6678 145.801 33.4464V27.6468C145.801 21.4253 143.745 19.4218 137.523 19.4218H120.23C119.755 19.4218 119.544 19.6327 119.544 20.16ZM181.794 12.0932H184.905C187.594 12.0932 189.228 12.9368 190.968 16.1002L208.42 47.7873C208.789 48.4728 208.631 49 207.787 49H201.091C200.406 49 200.142 48.8418 199.878 48.3146L196.135 41.5132H171.355L167.717 48.3146C167.453 48.8418 167.137 49 166.504 49H159.65C158.754 49 158.595 48.4728 158.965 47.7873L176.258 16.1002C177.998 12.9368 179.58 12.0932 181.794 12.0932ZM182.954 19.9491L174.676 35.3972H192.813L184.43 19.9491C184.272 19.6854 184.114 19.58 183.85 19.58H183.534C183.27 19.58 183.112 19.6854 182.954 19.9491ZM217.626 12.0932H245.939C254.005 12.0932 257.274 15.8366 257.274 22.9543V25.9596C257.274 31.9701 254.954 35.5026 249.418 36.5044L258.434 47.6819C258.751 48.051 258.698 49 257.749 49H250.947C250.051 49 249.787 48.7891 249.471 48.3146L241.141 37.348H224.111V47.8401C224.111 48.6309 223.742 49 222.951 49H217.257C216.466 49 216.044 48.6309 216.044 47.8401V13.6749C216.044 12.6204 216.571 12.0932 217.626 12.0932ZM224.111 19.9491V30.9157H244.304C247.889 30.9157 249.207 29.3867 249.207 26.2232V24.0088C249.207 20.8454 247.889 19.3164 244.304 19.3164H224.796C224.322 19.3164 224.111 19.5273 224.111 19.9491Z" fill="white"/>
<path fill-rule="evenodd" clip-rule="evenodd" d="M55.5843 62.8917H23.7243C11.0306 62.8917 6.12903 67.4162 6.12903 79.4815V90.2901C6.12903 90.8792 6.14072 91.4504 6.16443 92.0039C6.27336 92.0013 6.38263 92 6.49221 92C13.6719 92 19.4922 97.5965 19.4922 104.5C19.4922 105.236 19.426 105.958 19.299 106.659C20.6547 106.808 22.1279 106.88 23.7243 106.88H49.1118C54.139 106.88 56.9039 104.303 56.9039 97.2653V82.6236C56.9039 81.3668 56.2755 80.7384 55.0187 80.7384H28.8144C27.9346 80.7384 27.4319 81.2411 27.4319 82.1837V86.8967C27.4319 87.8393 27.9346 88.342 28.8144 88.342H47.2265C47.7921 88.342 47.9806 88.5934 47.9806 89.1589V94.249C47.9806 97.0768 47.038 98.0823 44.8386 98.0823H24.1013C17.6288 98.0823 15.7436 96.1342 15.7436 89.4731V80.4242C15.7436 73.7631 17.6288 71.8779 24.1013 71.8779H55.5843C56.5269 71.8779 56.9668 71.3752 56.9668 70.4326V64.2742C56.9668 63.3316 56.5269 62.8917 55.5843 62.8917ZM95.2522 62.8917H91.5446C88.9053 62.8917 87.0201 63.8972 84.9464 67.6676L64.3348 105.435C63.8949 106.251 64.0834 106.88 65.1517 106.88H73.321C74.075 106.88 74.4521 106.691 74.7663 106.063L79.1023 97.9566H108.637L113.099 106.063C113.413 106.691 113.727 106.88 114.544 106.88H122.525C123.53 106.88 123.719 106.251 123.279 105.435L102.479 67.6676C100.405 63.8972 98.4571 62.8917 95.2522 62.8917ZM83.0612 90.6671L92.9271 72.2549C93.1156 71.9407 93.3042 71.815 93.6184 71.815H93.9954C94.3096 71.815 94.4981 71.9407 94.6866 72.2549L104.678 90.6671H83.0612ZM144.809 62.8917H137.959C133.497 62.8917 132.366 64.6512 132.366 69.4271V105.497C132.366 106.44 132.869 106.88 133.812 106.88H140.221C141.164 106.88 141.604 106.44 141.604 105.497V72.6948C141.604 72.2549 141.729 72.0664 142.106 72.0664H142.672C143.112 72.0664 143.363 72.1921 143.489 72.5691L156.183 100.722C158.256 105.246 160.016 106.88 164.226 106.88H167.243C171.453 106.88 173.212 105.246 175.286 100.722L187.98 72.5691C188.106 72.1921 188.357 72.0664 188.797 72.0664H189.362C189.739 72.0664 189.865 72.2549 189.865 72.6948V105.497C189.865 106.44 190.305 106.88 191.248 106.88H197.657C198.6 106.88 199.103 106.44 199.103 105.497V69.4271C199.103 64.6512 197.971 62.8917 193.573 62.8917H186.849C183.141 62.8917 181.884 63.7086 180.188 67.6676L167.117 97.8309C166.928 98.2708 166.677 98.3965 166.237 98.3965H165.483C165.043 98.3965 164.792 98.2708 164.603 97.8309L151.533 67.6676C149.836 63.7086 148.579 62.8917 144.809 62.8917ZM255.931 62.8917H228.282C215.588 62.8917 210.686 67.4162 210.686 79.4815V90.2901C210.686 102.355 215.588 106.88 228.282 106.88H255.931C256.874 106.88 257.377 106.44 257.377 105.497V99.5276C257.377 98.585 256.874 98.1451 255.931 98.1451H228.47C221.935 98.1451 220.112 96.1971 220.112 89.5988V88.5305H255.617C256.56 88.5305 257 88.0907 257 87.1481V82.1837C257 81.2411 256.56 80.8012 255.617 80.8012H220.112V80.1728C220.112 73.5746 221.935 71.6265 228.47 71.6265H255.931C256.874 71.6265 257.377 71.1866 257.377 70.244V64.2742C257.377 63.3316 256.874 62.8917 255.931 62.8917Z" fill="white"/>
<circle cx="6.5451" cy="104.721" r="6.5451" fill="#D80000"/>
</svg>
