<svg width="33" height="31" viewBox="0 0 33 31" fill="none" xmlns="http://www.w3.org/2000/svg">
<path id="Vector" d="M14.901 6.84133H25.5562M7.29019 6.84133H10.3345M14.901 23.5852H25.5562M7.29019 23.5852H10.3345M1.20093 23.5846C1.20093 20.7138 1.20093 19.2799 2.09292 18.3879C2.98491 17.4959 4.41879 17.4959 7.28959 17.4959H25.5556C28.4264 17.4959 29.8603 17.4959 30.7523 18.3879C31.6442 19.2799 31.6442 20.7138 31.6442 23.5846C31.6442 26.4554 31.6442 27.8892 30.7523 28.7812C29.8603 29.6732 28.4264 29.6732 25.5556 29.6732H7.28959C4.41879 29.6732 2.98491 29.6732 2.09292 28.7812C1.20093 27.8892 1.20093 26.4554 1.20093 23.5846ZM1.20093 6.84074C1.20093 3.96993 1.20093 2.53605 2.09292 1.64406C2.98491 0.752075 4.41879 0.752075 7.28959 0.752075H25.5556C28.4264 0.752075 29.8603 0.752075 30.7523 1.64406C31.6442 2.53605 31.6442 3.96993 31.6442 6.84074C31.6442 9.71154 31.6442 11.1454 30.7523 12.0374C29.8603 12.9294 28.4264 12.9294 25.5556 12.9294H7.28959C4.41879 12.9294 2.98491 12.9294 2.09292 12.0374C1.20093 11.1454 1.20093 9.71154 1.20093 6.84074Z" stroke="#F8F8F8" stroke-width="1.44606" stroke-linecap="round"/>
</svg>
