<svg width="28" height="27" viewBox="0 0 28 27" fill="none" xmlns="http://www.w3.org/2000/svg">
<g id="Web">
<path id="Vector" d="M16.0901 0.127473H16.0657C15.8625 0.0949395 15.6593 0.0786728 15.4561 0.0542728L15.2448 0.0380061L14.7978 0.0136062H13.5786L13.2942 0.0298729L13.0422 0.0461394L12.7577 0.0786728L12.5058 0.103073L12.2294 0.14374L11.9856 0.184406L11.7093 0.233205L11.4654 0.282006L11.1891 0.33894L10.9534 0.395872L10.6852 0.469074L10.4495 0.53414L10.1813 0.615473L9.95371 0.688673L9.69362 0.77814L9.46605 0.859473L9.20596 0.965207L8.98652 1.05467L8.72643 1.16854L8.51511 1.25801L8.25502 1.38814L8.05183 1.48574L7.79988 1.62401L7.60482 1.72974L7.34473 1.88428L7.16593 1.99001L6.88959 2.1608L6.32064 2.55121C6.32064 2.55121 3.85798 0.68054 2.87454 0.16814C2.64992 0.050369 2.39868 -0.00729674 2.14523 0.00073828C1.89177 0.0087733 1.64469 0.0822363 1.42796 0.213999C1.21124 0.345761 1.03223 0.531346 0.908315 0.752747C0.784395 0.974149 0.719771 1.22384 0.720713 1.47761V13.5068C0.719646 16.9362 2.02276 20.2376 4.36549 22.7406C6.70823 25.2436 9.91502 26.7607 13.3348 26.9837H13.4567L13.8631 27H14.8628C14.9847 27 15.0985 26.9837 15.2204 26.9757L15.5536 26.9512L15.9031 26.9106L16.2282 26.8699L16.5696 26.813L16.8946 26.748C17.0086 26.7317 17.1223 26.6992 17.2361 26.6747L17.5531 26.6016L17.8863 26.512L18.1951 26.4225L18.5203 26.3168L18.829 26.211L19.146 26.0891L19.4387 25.967L19.7475 25.8369L20.04 25.6987L20.3408 25.5523L20.6252 25.4059L20.9179 25.2351L21.1942 25.0806L21.4787 24.9017L21.7469 24.7308L22.0151 24.5356L22.2752 24.3485C22.3653 24.2854 22.4522 24.2174 22.5354 24.1453L22.7872 23.9501L23.0392 23.7304L23.2831 23.5272L23.5269 23.2912L23.7463 23.0798L23.9821 22.8358L24.2014 22.608L24.4208 22.3558L24.6241 22.1201L24.8353 21.8516L25.0305 21.6076L25.2255 21.3311L25.4043 21.0789C25.4693 20.9813 25.5263 20.8837 25.5913 20.7943L25.762 20.5259C25.8188 20.4283 25.8758 20.3307 25.9245 20.2331C25.9733 20.1355 26.0383 20.0541 26.087 19.9648L26.2415 19.6556L26.3878 19.379C26.4365 19.2734 26.4853 19.1676 26.526 19.0619C26.5665 18.9561 26.6153 18.8748 26.656 18.7772C26.6967 18.6796 26.7455 18.5577 26.786 18.4519L26.8998 18.1671C26.9405 18.0533 26.973 17.9394 27.0137 17.8256L27.1112 17.5328C27.1517 17.4189 27.1762 17.297 27.2167 17.1831C27.2575 17.0693 27.2737 16.9879 27.298 16.8903C27.3225 16.7928 27.355 16.6464 27.3794 16.5323C27.4037 16.4185 27.4282 16.3371 27.4444 16.2396L27.5175 15.8574L27.5662 15.5727C27.5907 15.4344 27.5987 15.3043 27.615 15.166C27.6312 15.0277 27.6394 14.9871 27.6557 14.8895C27.6719 14.7919 27.68 14.5885 27.6882 14.434C27.6977 14.3584 27.703 14.2824 27.7045 14.2063C27.7127 13.9867 27.7207 13.7671 27.7207 13.5475V13.5068C27.7207 10.2479 26.5435 7.09891 24.4062 4.64017C22.2687 2.18145 19.3153 0.57873 16.0901 0.127473ZM22.1044 11.7825L14.2613 19.623C13.7676 20.1168 13.0981 20.3941 12.4001 20.3941C11.7021 20.3941 11.0327 20.1168 10.5389 19.623L6.33691 15.4263C5.8838 14.9231 5.64098 14.2651 5.65855 13.5881C5.67612 12.911 5.95273 12.2665 6.43133 11.7876C6.90991 11.3086 7.55397 11.0318 8.23057 11.0142C8.90717 10.9967 9.5647 11.2396 10.0675 11.6931L12.4001 14.0355L18.374 8.04934C18.8767 7.59591 19.5343 7.35292 20.2109 7.37051C20.8875 7.38809 21.5315 7.6649 22.0102 8.14383C22.4887 8.62275 22.7653 9.26725 22.7828 9.94433C22.8005 10.6214 22.5576 11.2794 22.1044 11.7825Z" fill="#D80000"/>
</g>
</svg>
