<svg width="33" height="33" viewBox="0 0 33 33" fill="none" xmlns="http://www.w3.org/2000/svg">
<g id="Web">
<path id="Vector" d="M16.4277 0.851562C7.76675 0.851562 0.720703 7.89761 0.720703 16.5585C0.720703 25.2195 7.76675 32.2655 16.4277 32.2655C25.0886 32.2655 32.1347 25.2195 32.1347 16.5585C32.1347 7.89761 25.0886 0.851562 16.4277 0.851562ZM12.2455 2.7275C11.0131 3.92521 9.96856 5.64455 9.19614 7.73304C8.3053 7.21567 7.46825 6.5987 6.69289 5.88907C8.26574 4.45278 10.1566 3.36036 12.2455 2.7275ZM5.79171 6.7886C6.71197 7.6372 7.71736 8.36239 8.78712 8.95997C8.16683 11.0294 7.79763 13.3941 7.74486 15.9303H1.99319C2.14449 12.4133 3.55761 9.21872 5.79171 6.7886ZM1.99319 17.1868H7.74486C7.79731 19.7087 8.1623 22.0615 8.77634 24.1227C7.70268 24.7236 6.69423 25.4534 5.77155 26.3072C3.54887 23.8797 2.14404 20.6934 1.99319 17.1868ZM6.6712 27.2073C7.44904 26.4924 8.28967 25.8714 9.18434 25.3506C9.95797 27.4539 11.0066 29.1855 12.2455 30.3895C10.1468 29.7538 8.24844 28.6536 6.6712 27.2073ZM15.7994 30.951C13.5714 30.5684 11.5889 28.1797 10.3462 24.7451C12.0429 23.9561 13.8856 23.5053 15.7994 23.4236V30.951ZM15.7994 22.1517C13.7507 22.2318 11.7732 22.7036 9.95012 23.5296C9.39421 21.6229 9.05455 19.464 9.00146 17.1868H15.7994V22.1517ZM15.7994 15.9303H9.00146C9.05487 13.6388 9.39874 11.4672 9.96084 9.55174C11.7809 10.3748 13.7547 10.845 15.7994 10.9249V15.9303ZM15.7994 9.65301C13.8904 9.57146 12.0521 9.12288 10.3589 8.33757C11.6025 4.92153 13.579 2.54737 15.7994 2.16604V9.65301ZM30.8622 15.9303H25.1105C25.0577 13.394 24.6885 11.0293 24.0682 8.95972C25.138 8.3622 26.1432 7.63675 27.0633 6.78828C29.2976 9.21846 30.7108 12.4132 30.8622 15.9303ZM26.1628 5.88939C25.3874 6.59883 24.5501 7.21542 23.6592 7.73272C22.8867 5.64436 21.8422 3.92514 20.6099 2.72744C22.6989 3.36036 24.5899 4.45297 26.1628 5.88939ZM17.056 2.16604C19.2763 2.5473 21.2528 4.9214 22.4964 8.33732C20.803 9.12269 18.9645 9.57159 17.056 9.65307V2.16604ZM17.056 10.9249C19.1002 10.845 21.0742 10.3748 22.8945 9.55161C23.4566 11.4671 23.8005 13.6387 23.8539 15.9302H17.056V10.9249ZM17.056 17.1868H23.8539C23.8008 19.464 23.4611 21.623 22.9052 23.5297C21.082 22.7035 19.1042 22.2317 17.056 22.1516V17.1868ZM17.056 30.951V23.4235C18.9693 23.5052 20.8122 23.9562 22.5091 24.7453C21.2664 28.1799 19.2839 30.5684 17.056 30.951ZM20.6099 30.3896C21.8487 29.1856 22.8973 27.4541 23.671 25.3509C24.5658 25.8715 25.4066 26.4922 26.1845 27.2069C24.6072 28.6534 22.7088 29.7537 20.6099 30.3896ZM27.0836 26.3076C26.1609 25.4538 25.1526 24.7238 24.079 24.123C24.693 22.0617 25.0581 19.7088 25.1105 17.1868H30.8622C30.7113 20.6935 29.3064 23.8801 27.0836 26.3076Z" fill="white"/>
</g>
</svg>
