<svg width="22" height="22" viewBox="0 0 22 22" fill="none" xmlns="http://www.w3.org/2000/svg">
<path d="M19.1583 1.83325H2.84159C2.57416 1.83325 2.31769 1.93949 2.12859 2.12859C1.93949 2.31769 1.83325 2.57416 1.83325 2.84159V19.1583C1.83325 19.4257 1.93949 19.6822 2.12859 19.8713C2.31769 20.0604 2.57416 20.1666 2.84159 20.1666H11.6233V13.0624H9.23992V10.3124H11.6233V8.24992C11.5739 7.7657 11.631 7.27654 11.7907 6.81674C11.9504 6.35695 12.2088 5.93767 12.5477 5.5883C12.8866 5.23892 13.2978 4.96792 13.7525 4.7943C14.2072 4.62068 14.6944 4.54865 15.1799 4.58325C15.8934 4.57886 16.6065 4.61559 17.3158 4.69325V7.16825H15.8583C14.7033 7.16825 14.4833 7.71825 14.4833 8.51575V10.2849H17.2333L16.8758 13.0349H14.4833V20.1666H19.1583C19.2907 20.1666 19.4218 20.1405 19.5441 20.0898C19.6665 20.0392 19.7776 19.9649 19.8713 19.8713C19.9649 19.7776 20.0392 19.6665 20.0898 19.5441C20.1405 19.4218 20.1666 19.2907 20.1666 19.1583V2.84159C20.1666 2.70917 20.1405 2.57805 20.0898 2.45571C20.0392 2.33338 19.9649 2.22222 19.8713 2.12859C19.7776 2.03495 19.6665 1.96068 19.5441 1.91001C19.4218 1.85933 19.2907 1.83325 19.1583 1.83325Z" fill="#878787"/>
</svg>
