<svg width="22" height="22" viewBox="0 0 22 22" fill="none" xmlns="http://www.w3.org/2000/svg">
<path d="M13.8638 10.9999C13.8638 12.5769 12.5769 13.8638 10.9999 13.8638C9.42299 13.8638 8.13608 12.5769 8.13608 10.9999C8.13608 9.42294 9.42299 8.13603 10.9999 8.13603C12.5769 8.13603 13.8638 9.42294 13.8638 10.9999ZM10.9999 2.41044C12.1859 2.41044 13.3611 2.3997 14.5449 2.4663C15.9199 2.53291 17.1402 2.84658 18.1457 3.85205C19.1533 4.85966 19.4648 6.07783 19.5314 7.45283C19.598 8.63877 19.5873 9.81396 19.5873 10.9978C19.5873 12.1837 19.598 13.3589 19.5314 14.5427C19.4648 15.9177 19.1511 17.138 18.1457 18.1435C17.138 19.1511 15.9199 19.4626 14.5449 19.5292C13.3589 19.5958 12.1837 19.5851 10.9999 19.5851C9.81616 19.5851 8.63881 19.5958 7.45502 19.5292C6.08002 19.4626 4.85971 19.1489 3.85424 18.1435C2.84663 17.1358 2.5351 15.9177 2.4685 14.5427C2.4019 13.3567 2.41264 12.1815 2.41264 10.9978C2.41264 9.81181 2.4019 8.63662 2.4685 7.45283C2.5351 6.07783 2.84877 4.85751 3.85424 3.85205C4.86186 2.84443 6.08002 2.53291 7.45502 2.4663C8.63881 2.39755 9.81401 2.41044 10.9999 2.41044ZM6.5935 10.9999C6.5935 13.4384 8.56147 15.4063 10.9999 15.4063C13.4384 15.4063 15.4064 13.4384 15.4064 10.9999C15.4064 8.56142 13.4384 6.59345 10.9999 6.59345C8.56147 6.59345 6.5935 8.56142 6.5935 10.9999ZM14.5578 6.41298C14.5578 6.98232 15.0175 7.44209 15.5869 7.44209C16.1562 7.44209 16.616 6.98232 16.616 6.41298C16.616 5.84365 16.1562 5.38388 15.5869 5.38388C15.4517 5.38371 15.3178 5.41022 15.1928 5.46187C15.0679 5.51353 14.9544 5.58933 14.8588 5.68492C14.7632 5.78052 14.6874 5.89403 14.6357 6.01896C14.5841 6.1439 14.5576 6.27779 14.5578 6.41298Z" fill="#878787"/>
</svg>
