<svg width="22" height="22" viewBox="0 0 22 22" fill="none" xmlns="http://www.w3.org/2000/svg">
<path d="M17.875 4H4.125C3.76033 4 3.41059 4.14487 3.15273 4.40273C2.89487 4.66059 2.75 5.01033 2.75 5.375V19.125C2.75 19.4897 2.89487 19.8394 3.15273 20.0973C3.41059 20.3551 3.76033 20.5 4.125 20.5H17.875C18.2397 20.5 18.5894 20.3551 18.8473 20.0973C19.1051 19.8394 19.25 19.4897 19.25 19.125V5.375C19.25 5.01033 19.1051 4.66059 18.8473 4.40273C18.5894 4.14487 18.2397 4 17.875 4ZM11.049 17.5489L10.5798 18.0173C9.86755 18.711 8.91077 19.0963 7.91656 19.0897C6.92236 19.0832 5.97074 18.6853 5.26772 17.9823C4.56469 17.2793 4.16684 16.3276 4.1603 15.3334C4.15375 14.3392 4.53903 13.3825 5.23273 12.6702L7.29523 10.6077C7.91442 9.99016 8.72822 9.60584 9.59852 9.52001C10.4688 9.43417 11.342 9.65209 12.0699 10.1368C12.2215 10.2382 12.3266 10.3957 12.362 10.5746C12.3975 10.7535 12.3604 10.9391 12.259 11.0907C12.1576 11.2423 12.0001 11.3473 11.8212 11.3828C11.6423 11.4183 11.4566 11.3812 11.3051 11.2798C10.8422 10.9707 10.2864 10.8316 9.73248 10.8863C9.17856 10.941 8.66072 11.186 8.26719 11.5797L6.20469 13.6422C5.7534 14.0935 5.49988 14.7055 5.49988 15.3438C5.49988 15.6598 5.56212 15.9727 5.68305 16.2646C5.80398 16.5566 5.98123 16.8219 6.20469 17.0453C6.42814 17.2688 6.69342 17.446 6.98537 17.5669C7.27733 17.6879 7.59024 17.7501 7.90625 17.7501C8.54446 17.7501 9.15653 17.4966 9.60781 17.0453L10.0762 16.5761C10.2052 16.4471 10.3801 16.3746 10.5626 16.3746C10.745 16.3746 10.92 16.4471 11.049 16.5761C11.178 16.7051 11.2505 16.8801 11.2505 17.0625C11.2505 17.2449 11.178 17.4199 11.049 17.5489ZM16.7673 11.8298L14.7048 13.8923C14.0856 14.5098 13.2718 14.8942 12.4015 14.98C11.5312 15.0658 10.658 14.8479 9.93008 14.3632C9.77851 14.2618 9.67344 14.1043 9.63799 13.9254C9.60253 13.7465 9.63959 13.5609 9.74102 13.4093C9.84244 13.2577 9.99992 13.1527 10.1788 13.1172C10.3577 13.0817 10.5434 13.1188 10.6949 13.2202C11.1582 13.5284 11.7137 13.6668 12.2674 13.6122C12.821 13.5575 13.3388 13.3131 13.7328 12.9203L15.7953 10.8578C16.2466 10.4065 16.5001 9.79446 16.5001 9.15625C16.5001 8.51804 16.2466 7.90597 15.7953 7.45469C15.344 7.0034 14.732 6.74988 14.0938 6.74988C13.4555 6.74988 12.8435 7.0034 12.3922 7.45469L11.9238 7.92391C11.7948 8.05291 11.6199 8.12538 11.4374 8.12538C11.255 8.12538 11.08 8.05291 10.951 7.92391C10.822 7.7949 10.7495 7.61994 10.7495 7.4375C10.7495 7.25506 10.822 7.0801 10.951 6.95109L11.4202 6.48273C12.1325 5.78903 13.0892 5.40375 14.0834 5.4103C15.0776 5.41684 16.0293 5.81469 16.7323 6.51772C17.4353 7.22074 17.8332 8.17236 17.8397 9.16656C17.8463 10.1608 17.461 11.1175 16.7673 11.8298Z" fill="#878787"/>
</svg>
