<svg width="36" height="36" viewBox="0 0 36 36" fill="none" xmlns="http://www.w3.org/2000/svg">
<g clip-path="url(#clip0_1_972)">
<path fill-rule="evenodd" clip-rule="evenodd" d="M7.5 19C7.5 16.2152 8.60625 13.5445 10.5754 11.5754C12.5445 9.60625 15.2152 8.5 18 8.5C20.7848 8.5 23.4555 9.60625 25.4246 11.5754C27.3938 13.5445 28.5 16.2152 28.5 19V19.5525C31.044 19.917 33 22.1055 33 24.75V25.125C33 25.7652 32.8739 26.3991 32.6289 26.9906C32.3839 27.582 32.0248 28.1195 31.5721 28.5721C31.1195 29.0248 30.582 29.3839 29.9906 29.6289C29.3991 29.8739 28.7652 30 28.125 30C27.4288 30 26.7611 29.7234 26.2688 29.2312C25.7766 28.7389 25.5 28.0712 25.5 27.375V19C25.5 17.0109 24.7098 15.1032 23.3033 13.6967C21.8968 12.2902 19.9891 11.5 18 11.5C16.0109 11.5 14.1032 12.2902 12.6967 13.6967C11.2902 15.1032 10.5 17.0109 10.5 19V27.375C10.5 28.0712 10.2234 28.7389 9.73115 29.2312C9.23887 29.7234 8.57119 30 7.875 30C6.58207 30 5.34209 29.4864 4.42785 28.5721C3.51361 27.6579 3 26.4179 3 25.125V24.75C2.99968 23.4873 3.45444 22.2668 4.28093 21.3122C5.10742 20.3576 6.25027 19.7329 7.5 19.5525V19Z" fill="white"/>
<path d="M16.4141 24C16.4141 24.4061 16.5754 24.7956 16.8626 25.0828C17.1497 25.3699 17.5392 25.5312 17.9453 25.5312C18.3514 25.5312 18.7409 25.3699 19.0281 25.0828C19.3153 24.7956 19.4766 24.4061 19.4766 24C19.4766 23.5939 19.3153 23.2044 19.0281 22.9172C18.7409 22.6301 18.3514 22.4688 17.9453 22.4688C17.5392 22.4688 17.1497 22.6301 16.8626 22.9172C16.5754 23.2044 16.4141 23.5939 16.4141 24ZM23.8817 23.6473C22.5856 20.917 20.6264 19.543 18 19.543C15.3723 19.543 13.4145 20.917 12.1184 23.6486C12.0664 23.7587 12.0394 23.8789 12.0394 24.0007C12.0394 24.1224 12.0664 24.2427 12.1184 24.3527C13.4145 27.083 15.3737 28.457 18 28.457C20.6278 28.457 22.5856 27.083 23.8817 24.3514C23.9869 24.1299 23.9869 23.8729 23.8817 23.6473ZM17.9453 26.4062C16.6164 26.4062 15.5391 25.3289 15.5391 24C15.5391 22.6711 16.6164 21.5938 17.9453 21.5938C19.2742 21.5938 20.3516 22.6711 20.3516 24C20.3516 25.3289 19.2742 26.4062 17.9453 26.4062Z" fill="white"/>
</g>
<defs>
<clipPath id="clip0_1_972">
<rect width="36" height="36" fill="white"/>
</clipPath>
</defs>
</svg>
