<svg width="938" height="129" viewBox="0 0 938 129" fill="none" xmlns="http://www.w3.org/2000/svg">
<path d="M1.57275 127.829L11.9739 121.466C22.375 115.103 43.1773 102.376 63.9795 103.628C84.7818 104.879 105.584 120.108 126.386 113.263C147.189 106.417 167.991 77.4959 188.793 68.253C209.595 59.0102 230.398 69.4454 251.2 65.4799C272.002 61.5145 292.804 43.1484 313.607 48.4348C334.409 53.7211 355.211 82.6599 376.014 83.9979C396.816 85.3359 417.618 59.0731 438.42 45.5759C459.223 32.0787 480.025 31.3471 500.827 38.3293C521.629 45.3115 542.432 60.0076 563.234 61.5932C584.036 63.1788 604.838 51.6539 625.641 53.5736C646.443 55.4934 667.245 70.8578 688.048 78.7459C708.85 86.6341 729.652 87.046 750.454 84.5859C771.257 82.1257 792.059 76.7936 812.861 62.3347C833.663 47.8759 854.466 24.2902 875.268 12.7676C896.07 1.2449 916.872 1.78518 927.274 2.05532L937.675 2.32547" stroke="#EF676B" stroke-width="2.397"/>
</svg>
