<svg width="938" height="203" viewBox="0 0 938 203" fill="none" xmlns="http://www.w3.org/2000/svg">
<path d="M1 201.188L11.4011 191.118C21.8023 181.049 42.6045 160.911 63.4068 162.891C84.209 164.871 105.011 188.971 125.814 178.138C146.616 167.304 167.418 121.539 188.22 106.913C209.023 92.2867 229.825 108.8 250.627 102.525C271.429 96.2495 292.232 67.1864 313.034 75.5517C333.836 83.9171 354.638 129.711 375.441 131.828C396.243 133.945 417.045 92.3862 437.848 71.0278C458.65 49.6693 479.452 48.5116 500.254 59.5605C521.057 70.6094 541.859 93.865 562.661 96.3741C583.463 98.8832 604.266 80.6457 625.068 83.6836C645.87 86.7215 666.672 111.035 687.475 123.517C708.277 136 729.079 136.651 749.881 132.759C770.684 128.866 791.486 120.428 812.288 97.5475C833.09 74.6673 853.893 37.3446 874.695 19.1107C895.497 0.876774 916.299 1.73173 926.701 2.15921L937.102 2.58669" stroke="#E0E0E0" stroke-width="2.397"/>
</svg>
