<svg width="26" height="26" viewBox="0 0 26 26" fill="none" xmlns="http://www.w3.org/2000/svg">
<g id="ic:baseline-history">
<path id="Vector" d="M14.0833 3.25C11.4975 3.25 9.01753 4.27723 7.18905 6.10571C5.36057 7.93419 4.33334 10.4141 4.33334 13H1.08334L5.29751 17.2142L5.37334 17.3658L9.75001 13H6.50001C6.50001 8.8075 9.89084 5.41667 14.0833 5.41667C18.2758 5.41667 21.6667 8.8075 21.6667 13C21.6667 17.1925 18.2758 20.5833 14.0833 20.5833C11.9925 20.5833 10.0967 19.7275 8.73168 18.3517L7.19334 19.89C8.09621 20.7978 9.16987 21.518 10.3524 22.0088C11.535 22.4997 12.803 22.7516 14.0833 22.75C16.6692 22.75 19.1492 21.7228 20.9776 19.8943C22.8061 18.0658 23.8333 15.5859 23.8333 13C23.8333 10.4141 22.8061 7.93419 20.9776 6.10571C19.1492 4.27723 16.6692 3.25 14.0833 3.25ZM13 8.66667V14.0833L17.6367 16.835L18.4167 15.5242L14.625 13.2708V8.66667H13Z" fill="#454545"/>
</g>
</svg>
