<svg width="20" height="20" viewBox="0 0 20 20" fill="none" xmlns="http://www.w3.org/2000/svg">
<path d="M16.2882 5.03827C16.4644 4.86215 16.5633 4.62328 16.5633 4.3742C16.5633 4.12513 16.4644 3.88626 16.2882 3.71014C16.1121 3.53402 15.8733 3.43508 15.6242 3.43508C15.3751 3.43508 15.1362 3.53402 14.9601 3.71014L9.99997 8.67186L5.03825 3.7117C4.86213 3.53558 4.62326 3.43664 4.37418 3.43664C4.12511 3.43664 3.88624 3.53558 3.71012 3.7117C3.534 3.88782 3.43506 4.12669 3.43506 4.37577C3.43506 4.62484 3.534 4.86371 3.71012 5.03983L8.67184 9.99998L3.71168 14.9617C3.53556 15.1378 3.43662 15.3767 3.43662 15.6258C3.43662 15.8748 3.53556 16.1137 3.71168 16.2898C3.8878 16.4659 4.12668 16.5649 4.37575 16.5649C4.62482 16.5649 4.86369 16.4659 5.03981 16.2898L9.99997 11.3281L14.9617 16.2906C15.1378 16.4667 15.3767 16.5657 15.6257 16.5657C15.8748 16.5657 16.1137 16.4667 16.2898 16.2906C16.4659 16.1145 16.5649 15.8756 16.5649 15.6265C16.5649 15.3775 16.4659 15.1386 16.2898 14.9625L11.3281 9.99998L16.2882 5.03827Z" fill="white"/>
</svg>
