<svg width="32" height="32" viewBox="0 0 32 32" fill="none" xmlns="http://www.w3.org/2000/svg">
<path id="Vector" opacity="0.5" fill-rule="evenodd" clip-rule="evenodd" d="M0.606934 15.725C0.606934 8.34283 0.606934 4.65176 2.89956 2.35757C5.19532 0.0649414 8.88482 0.0649414 16.267 0.0649414C23.6491 0.0649414 27.3402 0.0649414 29.6328 2.35757C31.927 4.65333 31.927 8.34283 31.927 15.725C31.927 23.1071 31.927 26.7982 29.6328 29.0908C27.3417 31.385 23.6491 31.385 16.267 31.385C8.88482 31.385 5.19376 31.385 2.89956 29.0908C0.606934 26.7997 0.606934 23.1071 0.606934 15.725ZM16.267 6.72045C16.5785 6.72045 16.8772 6.84419 17.0975 7.06446C17.3177 7.28472 17.4415 7.58346 17.4415 7.89495V16.0225L20.135 13.329C20.2425 13.2136 20.3722 13.121 20.5162 13.0568C20.6603 12.9926 20.8158 12.9581 20.9735 12.9553C21.1312 12.9526 21.2879 12.9816 21.4341 13.0406C21.5804 13.0997 21.7132 13.1876 21.8248 13.2992C21.9363 13.4107 22.0242 13.5435 22.0833 13.6898C22.1424 13.836 22.1714 13.9927 22.1686 14.1504C22.1658 14.3081 22.1313 14.4636 22.0671 14.6077C22.0029 14.7518 21.9103 14.8814 21.7949 14.9889L17.0969 19.687C16.8767 19.9069 16.5782 20.0304 16.267 20.0304C15.9557 20.0304 15.6572 19.9069 15.437 19.687L10.739 14.9889C10.6236 14.8814 10.531 14.7518 10.4668 14.6077C10.4026 14.4636 10.3681 14.3081 10.3653 14.1504C10.3626 13.9927 10.3916 13.836 10.4506 13.6898C10.5097 13.5435 10.5976 13.4107 10.7092 13.2992C10.8207 13.1876 10.9535 13.0997 11.0998 13.0406C11.246 12.9816 11.4027 12.9526 11.5604 12.9553C11.7181 12.9581 11.8736 12.9926 12.0177 13.0568C12.1617 13.121 12.2914 13.2136 12.3989 13.329L15.0925 16.0225V7.89495C15.0925 7.58346 15.2162 7.28472 15.4365 7.06446C15.6567 6.84419 15.9555 6.72045 16.267 6.72045ZM10.0029 22.3805C9.69145 22.3805 9.39271 22.5042 9.17245 22.7245C8.95219 22.9447 8.82845 23.2435 8.82845 23.555C8.82845 23.8665 8.95219 24.1652 9.17245 24.3855C9.39271 24.6057 9.69145 24.7295 10.0029 24.7295H22.531C22.8425 24.7295 23.1412 24.6057 23.3615 24.3855C23.5817 24.1652 23.7055 23.8665 23.7055 23.555C23.7055 23.2435 23.5817 22.9447 23.3615 22.7245C23.1412 22.5042 22.8425 22.3805 22.531 22.3805H10.0029Z" fill="#EF676B"/>
</svg>
