<svg width="36" height="36" viewBox="0 0 36 36" fill="none" xmlns="http://www.w3.org/2000/svg">
<g clip-path="url(#clip0_37_2742)">
<path fill-rule="evenodd" clip-rule="evenodd" d="M18.1414 22.1564C17.909 22.3764 17.5938 22.5 17.2652 22.5C16.9366 22.5 16.6214 22.3764 16.389 22.1564L9.37834 15.5177C9.25998 15.4094 9.16556 15.2799 9.10061 15.1367C9.03566 14.9936 9.00148 14.8396 9.00005 14.6837C8.99862 14.5279 9.02997 14.3734 9.09229 14.2292C9.1546 14.0849 9.24662 13.9539 9.36298 13.8437C9.47934 13.7335 9.61771 13.6464 9.77002 13.5874C9.92232 13.5284 10.0855 13.4987 10.2501 13.5C10.4146 13.5014 10.5772 13.5338 10.7284 13.5953C10.8796 13.6568 11.0164 13.7462 11.1307 13.8583L17.2652 19.6673L23.3997 13.8583C23.6335 13.6445 23.9465 13.5262 24.2715 13.5289C24.5964 13.5316 24.9072 13.655 25.137 13.8726C25.3668 14.0901 25.4971 14.3845 25.5 14.6922C25.5028 14.9999 25.3779 15.2963 25.1521 15.5177L18.1414 22.1564Z" fill="white"/>
</g>
<defs>
<clipPath id="clip0_37_2742">
<rect width="36" height="36" fill="white"/>
</clipPath>
</defs>
</svg>
