<svg width="302" height="314" viewBox="0 0 302 314" fill="none" xmlns="http://www.w3.org/2000/svg">
<path fill-rule="evenodd" clip-rule="evenodd" d="M62.0302 269.931C32.1291 245.827 13 208.897 13 167.5C13 94.8746 71.8746 36 144.5 36C217.125 36 276 94.8746 276 167.5C276 211.769 254.124 250.93 220.593 274.76C262.222 249.279 290 203.383 290 151C290 70.9187 225.081 6 145 6C64.9187 6 0 70.9187 0 151C0 200.225 24.5287 243.72 62.0302 269.931Z" fill="url(#paint0_linear_494_2216)" fill-opacity="0.6"/>
<g filter="url(#filter0_d_494_2216)">
<path fill-rule="evenodd" clip-rule="evenodd" d="M290 151C290 231.081 225.081 296 145 296C133.168 296 121.667 294.583 110.658 291.909C186.969 289.213 248 226.934 248 150.5C248 75.2751 188.885 13.7604 114.267 9.26342C124.173 7.12567 134.455 6 145 6C225.081 6 290 70.9187 290 151Z" fill="url(#paint1_linear_494_2216)"/>
</g>
<path d="M66.75 264.119C66.108 264.119 65.5611 263.945 65.1094 263.595C64.6577 263.243 64.3125 262.733 64.0739 262.065C63.8352 261.395 63.7159 260.585 63.7159 259.636C63.7159 258.693 63.8352 257.888 64.0739 257.22C64.3153 256.55 64.6619 256.038 65.1136 255.686C65.5682 255.331 66.1136 255.153 66.75 255.153C67.3864 255.153 67.9304 255.331 68.3821 255.686C68.8366 256.038 69.1832 256.55 69.4219 257.22C69.6634 257.888 69.7841 258.693 69.7841 259.636C69.7841 260.585 69.6648 261.395 69.4261 262.065C69.1875 262.733 68.8423 263.243 68.3906 263.595C67.9389 263.945 67.392 264.119 66.75 264.119ZM66.75 263.182C67.3864 263.182 67.8807 262.875 68.233 262.261C68.5852 261.648 68.7614 260.773 68.7614 259.636C68.7614 258.881 68.6804 258.237 68.5185 257.706C68.3594 257.175 68.1293 256.77 67.8281 256.491C67.5298 256.213 67.1705 256.074 66.75 256.074C66.1193 256.074 65.6264 256.385 65.2713 257.007C64.9162 257.626 64.7386 258.503 64.7386 259.636C64.7386 260.392 64.8182 261.034 64.9773 261.562C65.1364 262.091 65.3651 262.493 65.6634 262.768C65.9645 263.044 66.3267 263.182 66.75 263.182Z" fill="black"/>
<path d="M91.6989 69.1193C91.1136 69.1193 90.5966 69.0156 90.1477 68.8082C89.7017 68.598 89.3537 68.3097 89.1037 67.9432C88.8537 67.5739 88.7301 67.1534 88.733 66.6818C88.7301 66.3125 88.8026 65.9716 88.9503 65.6591C89.098 65.3437 89.2997 65.081 89.5554 64.8707C89.8139 64.6577 90.1023 64.5227 90.4205 64.4659V64.4148C90.0028 64.3068 89.6705 64.0724 89.4233 63.7116C89.1761 63.348 89.054 62.9347 89.0568 62.4716C89.054 62.0284 89.1662 61.6321 89.3935 61.2827C89.6207 60.9332 89.9332 60.6577 90.331 60.456C90.7315 60.2543 91.1875 60.1534 91.6989 60.1534C92.2045 60.1534 92.6563 60.2543 93.054 60.456C93.4517 60.6577 93.7642 60.9332 93.9915 61.2827C94.2216 61.6321 94.3381 62.0284 94.3409 62.4716C94.3381 62.9347 94.2116 63.348 93.9616 63.7116C93.7145 64.0724 93.3864 64.3068 92.9773 64.4148V64.4659C93.2926 64.5227 93.5767 64.6577 93.8295 64.8707C94.0824 65.081 94.2841 65.3437 94.4347 65.6591C94.5852 65.9716 94.6619 66.3125 94.6648 66.6818C94.6619 67.1534 94.5341 67.5739 94.2812 67.9432C94.0312 68.3097 93.6832 68.598 93.2372 68.8082C92.794 69.0156 92.2813 69.1193 91.6989 69.1193ZM91.6989 68.1818C92.0938 68.1818 92.4347 68.1179 92.7216 67.9901C93.0085 67.8622 93.2301 67.6818 93.3864 67.4489C93.5426 67.2159 93.6222 66.9432 93.625 66.6307C93.6222 66.3011 93.5369 66.0099 93.3693 65.7571C93.2017 65.5043 92.973 65.3054 92.6832 65.1605C92.3963 65.0156 92.0682 64.9432 91.6989 64.9432C91.3267 64.9432 90.9943 65.0156 90.7017 65.1605C90.4119 65.3054 90.1832 65.5043 90.0156 65.7571C89.8509 66.0099 89.7699 66.3011 89.7727 66.6307C89.7699 66.9432 89.8452 67.2159 89.9986 67.4489C90.1548 67.6818 90.3778 67.8622 90.6676 67.9901C90.9574 68.1179 91.3011 68.1818 91.6989 68.1818ZM91.6989 64.0398C92.0114 64.0398 92.2884 63.9773 92.5298 63.8523C92.7741 63.7273 92.9659 63.5526 93.1051 63.3281C93.2443 63.1037 93.3153 62.8409 93.3182 62.5398C93.3153 62.2443 93.2457 61.9872 93.1094 61.7685C92.973 61.5469 92.7841 61.3764 92.5426 61.2571C92.3011 61.1349 92.0199 61.0739 91.6989 61.0739C91.3722 61.0739 91.0866 61.1349 90.8423 61.2571C90.598 61.3764 90.4091 61.5469 90.2756 61.7685C90.142 61.9872 90.0767 62.2443 90.0795 62.5398C90.0767 62.8409 90.1435 63.1037 90.2798 63.3281C90.419 63.5526 90.6108 63.7273 90.8551 63.8523C91.0994 63.9773 91.3807 64.0398 91.6989 64.0398Z" fill="black"/>
<path d="M57.8011 95.1193C57.4432 95.1136 57.0852 95.0455 56.7273 94.9148C56.3693 94.7841 56.0426 94.5639 55.7472 94.2543C55.4517 93.9418 55.2145 93.5199 55.0355 92.9886C54.8565 92.4545 54.767 91.7841 54.767 90.9773C54.767 90.2045 54.8395 89.5199 54.9844 88.9233C55.1293 88.3239 55.3395 87.8196 55.6151 87.4105C55.8906 86.9986 56.223 86.6861 56.6122 86.473C57.0043 86.2599 57.446 86.1534 57.9375 86.1534C58.4261 86.1534 58.8608 86.2514 59.2415 86.4474C59.625 86.6406 59.9375 86.9105 60.179 87.2571C60.4205 87.6037 60.5767 88.0028 60.6477 88.4545H59.608C59.5114 88.0625 59.3239 87.7372 59.0455 87.4787C58.767 87.2202 58.3977 87.0909 57.9375 87.0909C57.2614 87.0909 56.7287 87.3849 56.3395 87.973C55.9531 88.5611 55.7585 89.3864 55.7557 90.4489H55.8239C55.983 90.2074 56.1719 90.0014 56.3906 89.831C56.6122 89.6577 56.8565 89.5241 57.1236 89.4304C57.3906 89.3366 57.6733 89.2898 57.9716 89.2898C58.4716 89.2898 58.929 89.4148 59.3438 89.6648C59.7585 89.9119 60.0909 90.2543 60.3409 90.6918C60.5909 91.1264 60.7159 91.625 60.7159 92.1875C60.7159 92.7273 60.5952 93.2216 60.3537 93.6705C60.1122 94.1165 59.7727 94.4716 59.3352 94.7358C58.9006 94.9972 58.3892 95.125 57.8011 95.1193ZM57.8011 94.1818C58.1591 94.1818 58.4801 94.0923 58.7642 93.9134C59.0511 93.7344 59.277 93.4943 59.4418 93.1932C59.6094 92.892 59.6932 92.5568 59.6932 92.1875C59.6932 91.8267 59.6122 91.4986 59.4503 91.2031C59.2912 90.9048 59.071 90.6676 58.7898 90.4915C58.5114 90.3153 58.1932 90.2273 57.8352 90.2273C57.5653 90.2273 57.3139 90.2812 57.081 90.3892C56.848 90.4943 56.6435 90.6392 56.4673 90.8239C56.294 91.0085 56.1577 91.2202 56.0582 91.4588C55.9588 91.6946 55.9091 91.9432 55.9091 92.2045C55.9091 92.5511 55.9901 92.875 56.152 93.1761C56.3168 93.4773 56.5412 93.7202 56.8253 93.9048C57.1122 94.0895 57.4375 94.1818 57.8011 94.1818Z" fill="black"/>
<path d="M31.6989 129.21V128.341L35.5341 122.273H36.1648V123.619H35.7386L32.8409 128.205V128.273H38.0057V129.21H31.6989ZM35.8068 131V128.946V128.541V122.273H36.8125V131H35.8068Z" fill="black"/>
<path d="M24.9034 175V174.233L27.7841 171.08C28.1222 170.71 28.4006 170.389 28.6193 170.116C28.8381 169.841 29 169.582 29.1051 169.341C29.2131 169.097 29.267 168.841 29.267 168.574C29.267 168.267 29.1932 168.001 29.0455 167.777C28.9006 167.553 28.7017 167.379 28.4489 167.257C28.196 167.135 27.9119 167.074 27.5966 167.074C27.2614 167.074 26.9688 167.143 26.7188 167.283C26.4716 167.419 26.2798 167.611 26.1435 167.858C26.0099 168.105 25.9432 168.395 25.9432 168.727H24.9375C24.9375 168.216 25.0554 167.767 25.2912 167.381C25.527 166.994 25.848 166.693 26.2543 166.477C26.6634 166.261 27.1222 166.153 27.6307 166.153C28.142 166.153 28.5952 166.261 28.9901 166.477C29.3849 166.693 29.6946 166.984 29.919 167.351C30.1435 167.717 30.2557 168.125 30.2557 168.574C30.2557 168.895 30.1974 169.209 30.081 169.516C29.9673 169.82 29.7685 170.159 29.4844 170.534C29.2031 170.906 28.8125 171.361 28.3125 171.898L26.3523 173.994V174.062H30.4091V175H24.9034Z" fill="black"/>
<path d="M38.9716 209.273V218H37.9148V210.381H37.8636L35.733 211.795V210.722L37.9148 209.273H38.9716Z" fill="black"/>
<path d="M131.972 45.2727V54H130.915V46.3807H130.864L128.733 47.7955V46.7216L130.915 45.2727H131.972ZM137.328 54.1193C136.686 54.1193 136.139 53.9446 135.688 53.5952C135.236 53.2429 134.891 52.733 134.652 52.0653C134.413 51.3949 134.294 50.5852 134.294 49.6364C134.294 48.6932 134.413 47.8878 134.652 47.2202C134.893 46.5497 135.24 46.0384 135.692 45.6861C136.146 45.331 136.692 45.1534 137.328 45.1534C137.964 45.1534 138.509 45.331 138.96 45.6861C139.415 46.0384 139.761 46.5497 140 47.2202C140.241 47.8878 140.362 48.6932 140.362 49.6364C140.362 50.5852 140.243 51.3949 140.004 52.0653C139.766 52.733 139.42 53.2429 138.969 53.5952C138.517 53.9446 137.97 54.1193 137.328 54.1193ZM137.328 53.1818C137.964 53.1818 138.459 52.875 138.811 52.2614C139.163 51.6477 139.339 50.7727 139.339 49.6364C139.339 48.8807 139.259 48.2372 139.097 47.706C138.938 47.1747 138.707 46.7699 138.406 46.4915C138.108 46.2131 137.749 46.0739 137.328 46.0739C136.697 46.0739 136.205 46.3849 135.849 47.0071C135.494 47.6264 135.317 48.5028 135.317 49.6364C135.317 50.392 135.396 51.0341 135.555 51.5625C135.714 52.0909 135.943 52.4929 136.241 52.7685C136.543 53.044 136.905 53.1818 137.328 53.1818Z" fill="black"/>
<path d="M223.756 54.752L225.628 52.832L226.576 51.812C226.784 51.564 226.944 51.32 227.056 51.08C227.168 50.84 227.224 50.58 227.224 50.3C227.224 49.916 227.12 49.64 226.912 49.472C226.704 49.304 226.38 49.22 225.94 49.22C225.676 49.22 225.396 49.236 225.1 49.268C224.812 49.292 224.504 49.328 224.176 49.376L223.888 49.424L223.804 48.296C224.572 48.056 225.368 47.936 226.192 47.936C227.872 47.936 228.712 48.684 228.712 50.18C228.712 50.604 228.648 50.972 228.52 51.284C228.408 51.572 228.228 51.864 227.98 52.16C227.732 52.456 227.396 52.804 226.972 53.204L225.376 54.716H228.868V56H223.756V54.752ZM233.173 56.12C232.661 56.12 232.217 56.044 231.841 55.892C231.465 55.732 231.149 55.488 230.893 55.16C230.645 54.824 230.457 54.4 230.329 53.888C230.209 53.368 230.149 52.744 230.149 52.016C230.149 51.296 230.209 50.676 230.329 50.156C230.457 49.636 230.645 49.212 230.893 48.884C231.141 48.556 231.453 48.316 231.829 48.164C232.213 48.004 232.657 47.924 233.161 47.924C233.673 47.924 234.117 48.004 234.493 48.164C234.869 48.316 235.181 48.556 235.429 48.884C235.685 49.212 235.873 49.636 235.993 50.156C236.121 50.676 236.185 51.296 236.185 52.016C236.185 52.744 236.121 53.368 235.993 53.888C235.873 54.4 235.689 54.824 235.441 55.16C235.193 55.488 234.877 55.732 234.493 55.892C234.117 56.044 233.677 56.12 233.173 56.12ZM233.173 54.86C233.445 54.86 233.677 54.812 233.869 54.716C234.061 54.612 234.217 54.452 234.337 54.236C234.465 54.012 234.557 53.72 234.613 53.36C234.669 52.992 234.697 52.544 234.697 52.016C234.697 51.488 234.669 51.044 234.613 50.684C234.557 50.324 234.465 50.036 234.337 49.82C234.217 49.596 234.061 49.436 233.869 49.34C233.677 49.236 233.445 49.184 233.173 49.184C232.901 49.184 232.665 49.236 232.465 49.34C232.273 49.436 232.113 49.596 231.985 49.82C231.865 50.036 231.777 50.324 231.721 50.684C231.665 51.044 231.637 51.488 231.637 52.016C231.637 52.544 231.665 52.992 231.721 53.36C231.777 53.72 231.865 54.012 231.985 54.236C232.113 54.452 232.273 54.612 232.465 54.716C232.665 54.812 232.901 54.86 233.173 54.86Z" fill="white"/>
<path d="M250.984 89.62H247.48V88.516L249.52 83.08H251.104L248.932 88.36H250.984V86.068H252.424V88.36H253.252V89.62H252.424V91H250.984V89.62ZM257.291 91.12C256.779 91.12 256.335 91.044 255.959 90.892C255.583 90.732 255.267 90.488 255.011 90.16C254.763 89.824 254.575 89.4 254.447 88.888C254.327 88.368 254.267 87.744 254.267 87.016C254.267 86.296 254.327 85.676 254.447 85.156C254.575 84.636 254.763 84.212 255.011 83.884C255.259 83.556 255.571 83.316 255.947 83.164C256.331 83.004 256.775 82.924 257.279 82.924C257.791 82.924 258.235 83.004 258.611 83.164C258.987 83.316 259.299 83.556 259.547 83.884C259.803 84.212 259.991 84.636 260.111 85.156C260.239 85.676 260.303 86.296 260.303 87.016C260.303 87.744 260.239 88.368 260.111 88.888C259.991 89.4 259.807 89.824 259.559 90.16C259.311 90.488 258.995 90.732 258.611 90.892C258.235 91.044 257.795 91.12 257.291 91.12ZM257.291 89.86C257.563 89.86 257.795 89.812 257.987 89.716C258.179 89.612 258.335 89.452 258.455 89.236C258.583 89.012 258.675 88.72 258.731 88.36C258.787 87.992 258.815 87.544 258.815 87.016C258.815 86.488 258.787 86.044 258.731 85.684C258.675 85.324 258.583 85.036 258.455 84.82C258.335 84.596 258.179 84.436 257.987 84.34C257.795 84.236 257.563 84.184 257.291 84.184C257.019 84.184 256.783 84.236 256.583 84.34C256.391 84.436 256.231 84.596 256.103 84.82C255.983 85.036 255.895 85.324 255.839 85.684C255.783 86.044 255.755 86.488 255.755 87.016C255.755 87.544 255.783 87.992 255.839 88.36C255.895 88.72 255.983 89.012 256.103 89.236C256.231 89.452 256.391 89.612 256.583 89.716C256.783 89.812 257.019 89.86 257.291 89.86Z" fill="white"/>
<path d="M263.708 131.144C262.724 131.144 261.984 130.8 261.488 130.112C261 129.416 260.756 128.404 260.756 127.076C260.756 125.66 261.028 124.616 261.572 123.944C262.116 123.272 262.904 122.936 263.936 122.936C264.32 122.936 264.72 122.972 265.136 123.044C265.56 123.108 265.952 123.176 266.312 123.248L266.18 124.364C265.78 124.308 265.404 124.268 265.052 124.244C264.7 124.212 264.372 124.196 264.068 124.196C262.86 124.196 262.256 124.9 262.256 126.308C262.592 126.204 262.9 126.12 263.18 126.056C263.468 125.992 263.704 125.96 263.888 125.96C265.688 125.96 266.588 126.784 266.588 128.432C266.588 129.328 266.34 130.004 265.844 130.46C265.356 130.916 264.644 131.144 263.708 131.144ZM263.744 129.884C264.184 129.884 264.52 129.764 264.752 129.524C264.984 129.284 265.1 128.94 265.1 128.492C265.1 127.636 264.676 127.208 263.828 127.208C263.708 127.208 263.576 127.22 263.432 127.244C263.296 127.26 263.156 127.284 263.012 127.316C262.868 127.348 262.728 127.384 262.592 127.424C262.464 127.464 262.348 127.5 262.244 127.532C262.244 128.308 262.368 128.896 262.616 129.296C262.864 129.688 263.24 129.884 263.744 129.884ZM270.912 131.12C270.4 131.12 269.956 131.044 269.58 130.892C269.204 130.732 268.888 130.488 268.632 130.16C268.384 129.824 268.196 129.4 268.068 128.888C267.948 128.368 267.888 127.744 267.888 127.016C267.888 126.296 267.948 125.676 268.068 125.156C268.196 124.636 268.384 124.212 268.632 123.884C268.88 123.556 269.192 123.316 269.568 123.164C269.952 123.004 270.396 122.924 270.9 122.924C271.412 122.924 271.856 123.004 272.232 123.164C272.608 123.316 272.92 123.556 273.168 123.884C273.424 124.212 273.612 124.636 273.732 125.156C273.86 125.676 273.924 126.296 273.924 127.016C273.924 127.744 273.86 128.368 273.732 128.888C273.612 129.4 273.428 129.824 273.18 130.16C272.932 130.488 272.616 130.732 272.232 130.892C271.856 131.044 271.416 131.12 270.912 131.12ZM270.912 129.86C271.184 129.86 271.416 129.812 271.608 129.716C271.8 129.612 271.956 129.452 272.076 129.236C272.204 129.012 272.296 128.72 272.352 128.36C272.408 127.992 272.436 127.544 272.436 127.016C272.436 126.488 272.408 126.044 272.352 125.684C272.296 125.324 272.204 125.036 272.076 124.82C271.956 124.596 271.8 124.436 271.608 124.34C271.416 124.236 271.184 124.184 270.912 124.184C270.64 124.184 270.404 124.236 270.204 124.34C270.012 124.436 269.852 124.596 269.724 124.82C269.604 125.036 269.516 125.324 269.46 125.684C269.404 126.044 269.376 126.488 269.376 127.016C269.376 127.544 269.404 127.992 269.46 128.36C269.516 128.72 269.604 129.012 269.724 129.236C269.852 129.452 270.012 129.612 270.204 129.716C270.404 129.812 270.64 129.86 270.912 129.86Z" fill="white"/>
<path d="M263.612 174.144C261.668 174.144 260.696 173.408 260.696 171.936C260.696 171.488 260.784 171.108 260.96 170.796C261.144 170.476 261.42 170.18 261.788 169.908C261.444 169.668 261.196 169.408 261.044 169.128C260.9 168.84 260.828 168.496 260.828 168.096C260.828 167.712 260.916 167.384 261.092 167.112C261.276 166.84 261.504 166.616 261.776 166.44C262.056 166.264 262.36 166.136 262.688 166.056C263.024 165.976 263.348 165.936 263.66 165.936C264.004 165.936 264.348 165.98 264.692 166.068C265.044 166.156 265.356 166.288 265.628 166.464C265.908 166.64 266.136 166.864 266.312 167.136C266.488 167.408 266.576 167.732 266.576 168.108C266.576 168.324 266.56 168.516 266.528 168.684C266.496 168.844 266.44 168.996 266.36 169.14C266.28 169.276 266.176 169.408 266.048 169.536C265.92 169.656 265.764 169.78 265.58 169.908C265.956 170.164 266.236 170.44 266.42 170.736C266.604 171.024 266.696 171.388 266.696 171.828C266.696 172.604 266.432 173.184 265.904 173.568C265.376 173.952 264.612 174.144 263.612 174.144ZM264.248 169.356C264.52 169.22 264.716 169.064 264.836 168.888C264.964 168.704 265.028 168.488 265.028 168.24C265.028 167.576 264.584 167.244 263.696 167.244C263.248 167.244 262.912 167.332 262.688 167.508C262.472 167.676 262.364 167.924 262.364 168.252C262.364 168.5 262.424 168.712 262.544 168.888C262.672 169.064 262.864 169.22 263.12 169.356H264.248ZM263.696 172.836C264.664 172.836 265.148 172.456 265.148 171.696C265.148 171.4 265.072 171.168 264.92 171C264.776 170.832 264.552 170.696 264.248 170.592H263.12C262.528 170.784 262.232 171.152 262.232 171.696C262.232 172.456 262.72 172.836 263.696 172.836ZM270.959 174.12C270.447 174.12 270.003 174.044 269.627 173.892C269.251 173.732 268.935 173.488 268.679 173.16C268.431 172.824 268.243 172.4 268.115 171.888C267.995 171.368 267.935 170.744 267.935 170.016C267.935 169.296 267.995 168.676 268.115 168.156C268.243 167.636 268.431 167.212 268.679 166.884C268.927 166.556 269.239 166.316 269.615 166.164C269.999 166.004 270.443 165.924 270.947 165.924C271.459 165.924 271.903 166.004 272.279 166.164C272.655 166.316 272.967 166.556 273.215 166.884C273.471 167.212 273.659 167.636 273.779 168.156C273.907 168.676 273.971 169.296 273.971 170.016C273.971 170.744 273.907 171.368 273.779 171.888C273.659 172.4 273.475 172.824 273.227 173.16C272.979 173.488 272.663 173.732 272.279 173.892C271.903 174.044 271.463 174.12 270.959 174.12ZM270.959 172.86C271.231 172.86 271.463 172.812 271.655 172.716C271.847 172.612 272.003 172.452 272.123 172.236C272.251 172.012 272.343 171.72 272.399 171.36C272.455 170.992 272.483 170.544 272.483 170.016C272.483 169.488 272.455 169.044 272.399 168.684C272.343 168.324 272.251 168.036 272.123 167.82C272.003 167.596 271.847 167.436 271.655 167.34C271.463 167.236 271.231 167.184 270.959 167.184C270.687 167.184 270.451 167.236 270.251 167.34C270.059 167.436 269.899 167.596 269.771 167.82C269.651 168.036 269.563 168.324 269.507 168.684C269.451 169.044 269.423 169.488 269.423 170.016C269.423 170.544 269.451 170.992 269.507 171.36C269.563 171.72 269.651 172.012 269.771 172.236C269.899 172.452 270.059 172.612 270.251 172.716C270.451 172.812 270.687 172.86 270.959 172.86Z" fill="white"/>
<path d="M248.036 210.712L246.236 211.876L245.576 210.796L248.156 209.08H249.488V217H248.036V210.712ZM253.837 217.12C253.325 217.12 252.881 217.044 252.505 216.892C252.129 216.732 251.813 216.488 251.557 216.16C251.309 215.824 251.121 215.4 250.993 214.888C250.873 214.368 250.813 213.744 250.813 213.016C250.813 212.296 250.873 211.676 250.993 211.156C251.121 210.636 251.309 210.212 251.557 209.884C251.805 209.556 252.117 209.316 252.493 209.164C252.877 209.004 253.321 208.924 253.825 208.924C254.337 208.924 254.781 209.004 255.157 209.164C255.533 209.316 255.845 209.556 256.093 209.884C256.349 210.212 256.537 210.636 256.657 211.156C256.785 211.676 256.849 212.296 256.849 213.016C256.849 213.744 256.785 214.368 256.657 214.888C256.537 215.4 256.353 215.824 256.105 216.16C255.857 216.488 255.541 216.732 255.157 216.892C254.781 217.044 254.341 217.12 253.837 217.12ZM253.837 215.86C254.109 215.86 254.341 215.812 254.533 215.716C254.725 215.612 254.881 215.452 255.001 215.236C255.129 215.012 255.221 214.72 255.277 214.36C255.333 213.992 255.361 213.544 255.361 213.016C255.361 212.488 255.333 212.044 255.277 211.684C255.221 211.324 255.129 211.036 255.001 210.82C254.881 210.596 254.725 210.436 254.533 210.34C254.341 210.236 254.109 210.184 253.837 210.184C253.565 210.184 253.329 210.236 253.129 210.34C252.937 210.436 252.777 210.596 252.649 210.82C252.529 211.036 252.441 211.324 252.385 211.684C252.329 212.044 252.301 212.488 252.301 213.016C252.301 213.544 252.329 213.992 252.385 214.36C252.441 214.72 252.529 215.012 252.649 215.236C252.777 215.452 252.937 215.612 253.129 215.716C253.329 215.812 253.565 215.86 253.837 215.86ZM260.951 217.12C260.439 217.12 259.995 217.044 259.619 216.892C259.243 216.732 258.927 216.488 258.671 216.16C258.423 215.824 258.235 215.4 258.107 214.888C257.987 214.368 257.927 213.744 257.927 213.016C257.927 212.296 257.987 211.676 258.107 211.156C258.235 210.636 258.423 210.212 258.671 209.884C258.919 209.556 259.231 209.316 259.607 209.164C259.991 209.004 260.435 208.924 260.939 208.924C261.451 208.924 261.895 209.004 262.271 209.164C262.647 209.316 262.959 209.556 263.207 209.884C263.463 210.212 263.651 210.636 263.771 211.156C263.899 211.676 263.963 212.296 263.963 213.016C263.963 213.744 263.899 214.368 263.771 214.888C263.651 215.4 263.467 215.824 263.219 216.16C262.971 216.488 262.655 216.732 262.271 216.892C261.895 217.044 261.455 217.12 260.951 217.12ZM260.951 215.86C261.223 215.86 261.455 215.812 261.647 215.716C261.839 215.612 261.995 215.452 262.115 215.236C262.243 215.012 262.335 214.72 262.391 214.36C262.447 213.992 262.475 213.544 262.475 213.016C262.475 212.488 262.447 212.044 262.391 211.684C262.335 211.324 262.243 211.036 262.115 210.82C261.995 210.596 261.839 210.436 261.647 210.34C261.455 210.236 261.223 210.184 260.951 210.184C260.679 210.184 260.443 210.236 260.243 210.34C260.051 210.436 259.891 210.596 259.763 210.82C259.643 211.036 259.555 211.324 259.499 211.684C259.443 212.044 259.415 212.488 259.415 213.016C259.415 213.544 259.443 213.992 259.499 214.36C259.555 214.72 259.643 215.012 259.763 215.236C259.891 215.452 260.051 215.612 260.243 215.716C260.443 215.812 260.679 215.86 260.951 215.86Z" fill="white"/>
<path d="M220.036 249.712L218.236 250.876L217.576 249.796L220.156 248.08H221.488V256H220.036V249.712ZM223.029 254.752L224.901 252.832L225.849 251.812C226.057 251.564 226.217 251.32 226.329 251.08C226.441 250.84 226.497 250.58 226.497 250.3C226.497 249.916 226.393 249.64 226.185 249.472C225.977 249.304 225.653 249.22 225.213 249.22C224.949 249.22 224.669 249.236 224.373 249.268C224.085 249.292 223.777 249.328 223.449 249.376L223.161 249.424L223.077 248.296C223.845 248.056 224.641 247.936 225.465 247.936C227.145 247.936 227.985 248.684 227.985 250.18C227.985 250.604 227.921 250.972 227.793 251.284C227.681 251.572 227.501 251.864 227.253 252.16C227.005 252.456 226.669 252.804 226.245 253.204L224.649 254.716H228.141V256H223.029V254.752ZM232.447 256.12C231.935 256.12 231.491 256.044 231.115 255.892C230.739 255.732 230.423 255.488 230.167 255.16C229.919 254.824 229.731 254.4 229.603 253.888C229.483 253.368 229.423 252.744 229.423 252.016C229.423 251.296 229.483 250.676 229.603 250.156C229.731 249.636 229.919 249.212 230.167 248.884C230.415 248.556 230.727 248.316 231.103 248.164C231.487 248.004 231.931 247.924 232.435 247.924C232.947 247.924 233.391 248.004 233.767 248.164C234.143 248.316 234.455 248.556 234.703 248.884C234.959 249.212 235.147 249.636 235.267 250.156C235.395 250.676 235.459 251.296 235.459 252.016C235.459 252.744 235.395 253.368 235.267 253.888C235.147 254.4 234.963 254.824 234.715 255.16C234.467 255.488 234.151 255.732 233.767 255.892C233.391 256.044 232.951 256.12 232.447 256.12ZM232.447 254.86C232.719 254.86 232.951 254.812 233.143 254.716C233.335 254.612 233.491 254.452 233.611 254.236C233.739 254.012 233.831 253.72 233.887 253.36C233.943 252.992 233.971 252.544 233.971 252.016C233.971 251.488 233.943 251.044 233.887 250.684C233.831 250.324 233.739 250.036 233.611 249.82C233.491 249.596 233.335 249.436 233.143 249.34C232.951 249.236 232.719 249.184 232.447 249.184C232.175 249.184 231.939 249.236 231.739 249.34C231.547 249.436 231.387 249.596 231.259 249.82C231.139 250.036 231.051 250.324 230.995 250.684C230.939 251.044 230.911 251.488 230.911 252.016C230.911 252.544 230.939 252.992 230.995 253.36C231.051 253.72 231.139 254.012 231.259 254.236C231.387 254.452 231.547 254.612 231.739 254.716C231.939 254.812 232.175 254.86 232.447 254.86Z" fill="white"/>
<defs>
<filter id="filter0_d_494_2216" x="98.658" y="0" width="203.342" height="314" filterUnits="userSpaceOnUse" color-interpolation-filters="sRGB">
<feFlood flood-opacity="0" result="BackgroundImageFix"/>
<feColorMatrix in="SourceAlpha" type="matrix" values="0 0 0 0 0 0 0 0 0 0 0 0 0 0 0 0 0 0 127 0" result="hardAlpha"/>
<feOffset dy="6"/>
<feGaussianBlur stdDeviation="6"/>
<feComposite in2="hardAlpha" operator="out"/>
<feColorMatrix type="matrix" values="0 0 0 0 0 0 0 0 0 0 0 0 0 0 0 0 0 0 0.25 0"/>
<feBlend mode="normal" in2="BackgroundImageFix" result="effect1_dropShadow_494_2216"/>
<feBlend mode="normal" in="SourceGraphic" in2="effect1_dropShadow_494_2216" result="shape"/>
</filter>
<linearGradient id="paint0_linear_494_2216" x1="176.426" y1="-12.3943" x2="34.5145" y2="235.373" gradientUnits="userSpaceOnUse">
<stop stop-color="#359FDB"/>
<stop offset="1" stop-color="white" stop-opacity="0"/>
</linearGradient>
<linearGradient id="paint1_linear_494_2216" x1="92" y1="9" x2="238.5" y2="267" gradientUnits="userSpaceOnUse">
<stop stop-color="#9ADBFF"/>
<stop offset="1" stop-color="#316A8A"/>
</linearGradient>
</defs>
</svg>
