<svg width="315" height="331" viewBox="0 0 315 331" fill="none" xmlns="http://www.w3.org/2000/svg">
<path fill-rule="evenodd" clip-rule="evenodd" d="M62.0302 284.931C32.1291 260.827 13 223.897 13 182.5C13 109.875 71.8746 51 144.5 51C217.125 51 276 109.875 276 182.5C276 226.769 254.124 265.93 220.593 289.76C262.222 264.279 290 218.383 290 166C290 85.9187 225.081 21 145 21C64.9187 21 0 85.9187 0 166C0 215.225 24.5287 258.72 62.0302 284.931Z" fill="url(#paint0_linear_1083_4466)" fill-opacity="0.6"/>
<g filter="url(#filter0_d_1083_4466)">
<path fill-rule="evenodd" clip-rule="evenodd" d="M291.36 144.365C304.393 224.096 253.87 298.716 178.513 311.034C167.379 312.854 156.326 313.212 145.531 312.243C216.901 297.821 264.196 226.427 251.757 150.328C239.514 75.4322 173.875 23.2799 102.927 30.2802C111.901 26.6281 121.393 23.9258 131.316 22.3037C206.673 9.98572 278.327 64.6345 291.36 144.365Z" fill="url(#paint1_linear_1083_4466)"/>
</g>
<path d="M66.75 279.119C66.108 279.119 65.5611 278.945 65.1094 278.595C64.6577 278.243 64.3125 277.733 64.0739 277.065C63.8352 276.395 63.7159 275.585 63.7159 274.636C63.7159 273.693 63.8352 272.888 64.0739 272.22C64.3153 271.55 64.6619 271.038 65.1136 270.686C65.5682 270.331 66.1136 270.153 66.75 270.153C67.3864 270.153 67.9304 270.331 68.3821 270.686C68.8366 271.038 69.1832 271.55 69.4219 272.22C69.6634 272.888 69.7841 273.693 69.7841 274.636C69.7841 275.585 69.6648 276.395 69.4261 277.065C69.1875 277.733 68.8423 278.243 68.3906 278.595C67.9389 278.945 67.392 279.119 66.75 279.119ZM66.75 278.182C67.3864 278.182 67.8807 277.875 68.233 277.261C68.5852 276.648 68.7614 275.773 68.7614 274.636C68.7614 273.881 68.6804 273.237 68.5185 272.706C68.3594 272.175 68.1293 271.77 67.8281 271.491C67.5298 271.213 67.1705 271.074 66.75 271.074C66.1193 271.074 65.6264 271.385 65.2713 272.007C64.9162 272.626 64.7386 273.503 64.7386 274.636C64.7386 275.392 64.8182 276.034 64.9773 276.562C65.1364 277.091 65.3651 277.493 65.6634 277.768C65.9645 278.044 66.3267 278.182 66.75 278.182Z" fill="white"/>
<path d="M91.6989 84.1193C91.1136 84.1193 90.5966 84.0156 90.1477 83.8082C89.7017 83.598 89.3537 83.3097 89.1037 82.9432C88.8537 82.5739 88.7301 82.1534 88.733 81.6818C88.7301 81.3125 88.8026 80.9716 88.9503 80.6591C89.098 80.3437 89.2997 80.081 89.5554 79.8707C89.8139 79.6577 90.1023 79.5227 90.4205 79.4659V79.4148C90.0028 79.3068 89.6705 79.0724 89.4233 78.7116C89.1761 78.348 89.054 77.9347 89.0568 77.4716C89.054 77.0284 89.1662 76.6321 89.3935 76.2827C89.6207 75.9332 89.9332 75.6577 90.331 75.456C90.7315 75.2543 91.1875 75.1534 91.6989 75.1534C92.2045 75.1534 92.6563 75.2543 93.054 75.456C93.4517 75.6577 93.7642 75.9332 93.9915 76.2827C94.2216 76.6321 94.3381 77.0284 94.3409 77.4716C94.3381 77.9347 94.2116 78.348 93.9616 78.7116C93.7145 79.0724 93.3864 79.3068 92.9773 79.4148V79.4659C93.2926 79.5227 93.5767 79.6577 93.8295 79.8707C94.0824 80.081 94.2841 80.3437 94.4347 80.6591C94.5852 80.9716 94.6619 81.3125 94.6648 81.6818C94.6619 82.1534 94.5341 82.5739 94.2812 82.9432C94.0312 83.3097 93.6832 83.598 93.2372 83.8082C92.794 84.0156 92.2813 84.1193 91.6989 84.1193ZM91.6989 83.1818C92.0938 83.1818 92.4347 83.1179 92.7216 82.9901C93.0085 82.8622 93.2301 82.6818 93.3864 82.4489C93.5426 82.2159 93.6222 81.9432 93.625 81.6307C93.6222 81.3011 93.5369 81.0099 93.3693 80.7571C93.2017 80.5043 92.973 80.3054 92.6832 80.1605C92.3963 80.0156 92.0682 79.9432 91.6989 79.9432C91.3267 79.9432 90.9943 80.0156 90.7017 80.1605C90.4119 80.3054 90.1832 80.5043 90.0156 80.7571C89.8509 81.0099 89.7699 81.3011 89.7727 81.6307C89.7699 81.9432 89.8452 82.2159 89.9986 82.4489C90.1548 82.6818 90.3778 82.8622 90.6676 82.9901C90.9574 83.1179 91.3011 83.1818 91.6989 83.1818ZM91.6989 79.0398C92.0114 79.0398 92.2884 78.9773 92.5298 78.8523C92.7741 78.7273 92.9659 78.5526 93.1051 78.3281C93.2443 78.1037 93.3153 77.8409 93.3182 77.5398C93.3153 77.2443 93.2457 76.9872 93.1094 76.7685C92.973 76.5469 92.7841 76.3764 92.5426 76.2571C92.3011 76.1349 92.0199 76.0739 91.6989 76.0739C91.3722 76.0739 91.0866 76.1349 90.8423 76.2571C90.598 76.3764 90.4091 76.5469 90.2756 76.7685C90.142 76.9872 90.0767 77.2443 90.0795 77.5398C90.0767 77.8409 90.1435 78.1037 90.2798 78.3281C90.419 78.5526 90.6108 78.7273 90.8551 78.8523C91.0994 78.9773 91.3807 79.0398 91.6989 79.0398Z" fill="white"/>
<path d="M57.8011 110.119C57.4432 110.114 57.0852 110.045 56.7273 109.915C56.3693 109.784 56.0426 109.564 55.7472 109.254C55.4517 108.942 55.2145 108.52 55.0355 107.989C54.8565 107.455 54.767 106.784 54.767 105.977C54.767 105.205 54.8395 104.52 54.9844 103.923C55.1293 103.324 55.3395 102.82 55.6151 102.411C55.8906 101.999 56.223 101.686 56.6122 101.473C57.0043 101.26 57.446 101.153 57.9375 101.153C58.4261 101.153 58.8608 101.251 59.2415 101.447C59.625 101.641 59.9375 101.911 60.179 102.257C60.4205 102.604 60.5767 103.003 60.6477 103.455H59.608C59.5114 103.062 59.3239 102.737 59.0455 102.479C58.767 102.22 58.3977 102.091 57.9375 102.091C57.2614 102.091 56.7287 102.385 56.3395 102.973C55.9531 103.561 55.7585 104.386 55.7557 105.449H55.8239C55.983 105.207 56.1719 105.001 56.3906 104.831C56.6122 104.658 56.8565 104.524 57.1236 104.43C57.3906 104.337 57.6733 104.29 57.9716 104.29C58.4716 104.29 58.929 104.415 59.3438 104.665C59.7585 104.912 60.0909 105.254 60.3409 105.692C60.5909 106.126 60.7159 106.625 60.7159 107.188C60.7159 107.727 60.5952 108.222 60.3537 108.67C60.1122 109.116 59.7727 109.472 59.3352 109.736C58.9006 109.997 58.3892 110.125 57.8011 110.119ZM57.8011 109.182C58.1591 109.182 58.4801 109.092 58.7642 108.913C59.0511 108.734 59.277 108.494 59.4418 108.193C59.6094 107.892 59.6932 107.557 59.6932 107.188C59.6932 106.827 59.6122 106.499 59.4503 106.203C59.2912 105.905 59.071 105.668 58.7898 105.491C58.5114 105.315 58.1932 105.227 57.8352 105.227C57.5653 105.227 57.3139 105.281 57.081 105.389C56.848 105.494 56.6435 105.639 56.4673 105.824C56.294 106.009 56.1577 106.22 56.0582 106.459C55.9588 106.695 55.9091 106.943 55.9091 107.205C55.9091 107.551 55.9901 107.875 56.152 108.176C56.3168 108.477 56.5412 108.72 56.8253 108.905C57.1122 109.089 57.4375 109.182 57.8011 109.182Z" fill="white"/>
<path d="M31.6989 144.21V143.341L35.5341 137.273H36.1648V138.619H35.7386L32.8409 143.205V143.273H38.0057V144.21H31.6989ZM35.8068 146V143.946V143.541V137.273H36.8125V146H35.8068Z" fill="white"/>
<path d="M24.9034 190V189.233L27.7841 186.08C28.1222 185.71 28.4006 185.389 28.6193 185.116C28.8381 184.841 29 184.582 29.1051 184.341C29.2131 184.097 29.267 183.841 29.267 183.574C29.267 183.267 29.1932 183.001 29.0455 182.777C28.9006 182.553 28.7017 182.379 28.4489 182.257C28.196 182.135 27.9119 182.074 27.5966 182.074C27.2614 182.074 26.9688 182.143 26.7188 182.283C26.4716 182.419 26.2798 182.611 26.1435 182.858C26.0099 183.105 25.9432 183.395 25.9432 183.727H24.9375C24.9375 183.216 25.0554 182.767 25.2912 182.381C25.527 181.994 25.848 181.693 26.2543 181.477C26.6634 181.261 27.1222 181.153 27.6307 181.153C28.142 181.153 28.5952 181.261 28.9901 181.477C29.3849 181.693 29.6946 181.984 29.919 182.351C30.1435 182.717 30.2557 183.125 30.2557 183.574C30.2557 183.895 30.1974 184.209 30.081 184.516C29.9673 184.82 29.7685 185.159 29.4844 185.534C29.2031 185.906 28.8125 186.361 28.3125 186.898L26.3523 188.994V189.062H30.4091V190H24.9034Z" fill="white"/>
<path d="M38.9716 224.273V233H37.9148V225.381H37.8636L35.733 226.795V225.722L37.9148 224.273H38.9716Z" fill="white"/>
<path d="M133.972 62.2727V71H132.915V63.3807H132.864L130.733 64.7955V63.7216L132.915 62.2727H133.972ZM139.328 71.1193C138.686 71.1193 138.139 70.9446 137.688 70.5952C137.236 70.2429 136.891 69.733 136.652 69.0653C136.413 68.3949 136.294 67.5852 136.294 66.6364C136.294 65.6932 136.413 64.8878 136.652 64.2202C136.893 63.5497 137.24 63.0384 137.692 62.6861C138.146 62.331 138.692 62.1534 139.328 62.1534C139.964 62.1534 140.509 62.331 140.96 62.6861C141.415 63.0384 141.761 63.5497 142 64.2202C142.241 64.8878 142.362 65.6932 142.362 66.6364C142.362 67.5852 142.243 68.3949 142.004 69.0653C141.766 69.733 141.42 70.2429 140.969 70.5952C140.517 70.9446 139.97 71.1193 139.328 71.1193ZM139.328 70.1818C139.964 70.1818 140.459 69.875 140.811 69.2614C141.163 68.6477 141.339 67.7727 141.339 66.6364C141.339 65.8807 141.259 65.2372 141.097 64.706C140.938 64.1747 140.707 63.7699 140.406 63.4915C140.108 63.2131 139.749 63.0739 139.328 63.0739C138.697 63.0739 138.205 63.3849 137.849 64.0071C137.494 64.6264 137.317 65.5028 137.317 66.6364C137.317 67.392 137.396 68.0341 137.555 68.5625C137.714 69.0909 137.943 69.4929 138.241 69.7685C138.543 70.044 138.905 70.1818 139.328 70.1818Z" fill="white"/>
<path d="M177.756 74.752L179.628 72.832L180.576 71.812C180.784 71.564 180.944 71.32 181.056 71.08C181.168 70.84 181.224 70.58 181.224 70.3C181.224 69.916 181.12 69.64 180.912 69.472C180.704 69.304 180.38 69.22 179.94 69.22C179.676 69.22 179.396 69.236 179.1 69.268C178.812 69.292 178.504 69.328 178.176 69.376L177.888 69.424L177.804 68.296C178.572 68.056 179.368 67.936 180.192 67.936C181.872 67.936 182.712 68.684 182.712 70.18C182.712 70.604 182.648 70.972 182.52 71.284C182.408 71.572 182.228 71.864 181.98 72.16C181.732 72.456 181.396 72.804 180.972 73.204L179.376 74.716H182.868V76H177.756V74.752ZM187.173 76.12C186.661 76.12 186.217 76.044 185.841 75.892C185.465 75.732 185.149 75.488 184.893 75.16C184.645 74.824 184.457 74.4 184.329 73.888C184.209 73.368 184.149 72.744 184.149 72.016C184.149 71.296 184.209 70.676 184.329 70.156C184.457 69.636 184.645 69.212 184.893 68.884C185.141 68.556 185.453 68.316 185.829 68.164C186.213 68.004 186.657 67.924 187.161 67.924C187.673 67.924 188.117 68.004 188.493 68.164C188.869 68.316 189.181 68.556 189.429 68.884C189.685 69.212 189.873 69.636 189.993 70.156C190.121 70.676 190.185 71.296 190.185 72.016C190.185 72.744 190.121 73.368 189.993 73.888C189.873 74.4 189.689 74.824 189.441 75.16C189.193 75.488 188.877 75.732 188.493 75.892C188.117 76.044 187.677 76.12 187.173 76.12ZM187.173 74.86C187.445 74.86 187.677 74.812 187.869 74.716C188.061 74.612 188.217 74.452 188.337 74.236C188.465 74.012 188.557 73.72 188.613 73.36C188.669 72.992 188.697 72.544 188.697 72.016C188.697 71.488 188.669 71.044 188.613 70.684C188.557 70.324 188.465 70.036 188.337 69.82C188.217 69.596 188.061 69.436 187.869 69.34C187.677 69.236 187.445 69.184 187.173 69.184C186.901 69.184 186.665 69.236 186.465 69.34C186.273 69.436 186.113 69.596 185.985 69.82C185.865 70.036 185.777 70.324 185.721 70.684C185.665 71.044 185.637 71.488 185.637 72.016C185.637 72.544 185.665 72.992 185.721 73.36C185.777 73.72 185.865 74.012 185.985 74.236C186.113 74.452 186.273 74.612 186.465 74.716C186.665 74.812 186.901 74.86 187.173 74.86Z" fill="white"/>
<path d="M241.984 89.62H238.48V88.516L240.52 83.08H242.104L239.932 88.36H241.984V86.068H243.424V88.36H244.252V89.62H243.424V91H241.984V89.62ZM248.291 91.12C247.779 91.12 247.335 91.044 246.959 90.892C246.583 90.732 246.267 90.488 246.011 90.16C245.763 89.824 245.575 89.4 245.447 88.888C245.327 88.368 245.267 87.744 245.267 87.016C245.267 86.296 245.327 85.676 245.447 85.156C245.575 84.636 245.763 84.212 246.011 83.884C246.259 83.556 246.571 83.316 246.947 83.164C247.331 83.004 247.775 82.924 248.279 82.924C248.791 82.924 249.235 83.004 249.611 83.164C249.987 83.316 250.299 83.556 250.547 83.884C250.803 84.212 250.991 84.636 251.111 85.156C251.239 85.676 251.303 86.296 251.303 87.016C251.303 87.744 251.239 88.368 251.111 88.888C250.991 89.4 250.807 89.824 250.559 90.16C250.311 90.488 249.995 90.732 249.611 90.892C249.235 91.044 248.795 91.12 248.291 91.12ZM248.291 89.86C248.563 89.86 248.795 89.812 248.987 89.716C249.179 89.612 249.335 89.452 249.455 89.236C249.583 89.012 249.675 88.72 249.731 88.36C249.787 87.992 249.815 87.544 249.815 87.016C249.815 86.488 249.787 86.044 249.731 85.684C249.675 85.324 249.583 85.036 249.455 84.82C249.335 84.596 249.179 84.436 248.987 84.34C248.795 84.236 248.563 84.184 248.291 84.184C248.019 84.184 247.783 84.236 247.583 84.34C247.391 84.436 247.231 84.596 247.103 84.82C246.983 85.036 246.895 85.324 246.839 85.684C246.783 86.044 246.755 86.488 246.755 87.016C246.755 87.544 246.783 87.992 246.839 88.36C246.895 88.72 246.983 89.012 247.103 89.236C247.231 89.452 247.391 89.612 247.583 89.716C247.783 89.812 248.019 89.86 248.291 89.86Z" fill="white"/>
<path d="M261.708 129.144C260.724 129.144 259.984 128.8 259.488 128.112C259 127.416 258.756 126.404 258.756 125.076C258.756 123.66 259.028 122.616 259.572 121.944C260.116 121.272 260.904 120.936 261.936 120.936C262.32 120.936 262.72 120.972 263.136 121.044C263.56 121.108 263.952 121.176 264.312 121.248L264.18 122.364C263.78 122.308 263.404 122.268 263.052 122.244C262.7 122.212 262.372 122.196 262.068 122.196C260.86 122.196 260.256 122.9 260.256 124.308C260.592 124.204 260.9 124.12 261.18 124.056C261.468 123.992 261.704 123.96 261.888 123.96C263.688 123.96 264.588 124.784 264.588 126.432C264.588 127.328 264.34 128.004 263.844 128.46C263.356 128.916 262.644 129.144 261.708 129.144ZM261.744 127.884C262.184 127.884 262.52 127.764 262.752 127.524C262.984 127.284 263.1 126.94 263.1 126.492C263.1 125.636 262.676 125.208 261.828 125.208C261.708 125.208 261.576 125.22 261.432 125.244C261.296 125.26 261.156 125.284 261.012 125.316C260.868 125.348 260.728 125.384 260.592 125.424C260.464 125.464 260.348 125.5 260.244 125.532C260.244 126.308 260.368 126.896 260.616 127.296C260.864 127.688 261.24 127.884 261.744 127.884ZM268.912 129.12C268.4 129.12 267.956 129.044 267.58 128.892C267.204 128.732 266.888 128.488 266.632 128.16C266.384 127.824 266.196 127.4 266.068 126.888C265.948 126.368 265.888 125.744 265.888 125.016C265.888 124.296 265.948 123.676 266.068 123.156C266.196 122.636 266.384 122.212 266.632 121.884C266.88 121.556 267.192 121.316 267.568 121.164C267.952 121.004 268.396 120.924 268.9 120.924C269.412 120.924 269.856 121.004 270.232 121.164C270.608 121.316 270.92 121.556 271.168 121.884C271.424 122.212 271.612 122.636 271.732 123.156C271.86 123.676 271.924 124.296 271.924 125.016C271.924 125.744 271.86 126.368 271.732 126.888C271.612 127.4 271.428 127.824 271.18 128.16C270.932 128.488 270.616 128.732 270.232 128.892C269.856 129.044 269.416 129.12 268.912 129.12ZM268.912 127.86C269.184 127.86 269.416 127.812 269.608 127.716C269.8 127.612 269.956 127.452 270.076 127.236C270.204 127.012 270.296 126.72 270.352 126.36C270.408 125.992 270.436 125.544 270.436 125.016C270.436 124.488 270.408 124.044 270.352 123.684C270.296 123.324 270.204 123.036 270.076 122.82C269.956 122.596 269.8 122.436 269.608 122.34C269.416 122.236 269.184 122.184 268.912 122.184C268.64 122.184 268.404 122.236 268.204 122.34C268.012 122.436 267.852 122.596 267.724 122.82C267.604 123.036 267.516 123.324 267.46 123.684C267.404 124.044 267.376 124.488 267.376 125.016C267.376 125.544 267.404 125.992 267.46 126.36C267.516 126.72 267.604 127.012 267.724 127.236C267.852 127.452 268.012 127.612 268.204 127.716C268.404 127.812 268.64 127.86 268.912 127.86Z" fill="white"/>
<path d="M268.612 169.144C266.668 169.144 265.696 168.408 265.696 166.936C265.696 166.488 265.784 166.108 265.96 165.796C266.144 165.476 266.42 165.18 266.788 164.908C266.444 164.668 266.196 164.408 266.044 164.128C265.9 163.84 265.828 163.496 265.828 163.096C265.828 162.712 265.916 162.384 266.092 162.112C266.276 161.84 266.504 161.616 266.776 161.44C267.056 161.264 267.36 161.136 267.688 161.056C268.024 160.976 268.348 160.936 268.66 160.936C269.004 160.936 269.348 160.98 269.692 161.068C270.044 161.156 270.356 161.288 270.628 161.464C270.908 161.64 271.136 161.864 271.312 162.136C271.488 162.408 271.576 162.732 271.576 163.108C271.576 163.324 271.56 163.516 271.528 163.684C271.496 163.844 271.44 163.996 271.36 164.14C271.28 164.276 271.176 164.408 271.048 164.536C270.92 164.656 270.764 164.78 270.58 164.908C270.956 165.164 271.236 165.44 271.42 165.736C271.604 166.024 271.696 166.388 271.696 166.828C271.696 167.604 271.432 168.184 270.904 168.568C270.376 168.952 269.612 169.144 268.612 169.144ZM269.248 164.356C269.52 164.22 269.716 164.064 269.836 163.888C269.964 163.704 270.028 163.488 270.028 163.24C270.028 162.576 269.584 162.244 268.696 162.244C268.248 162.244 267.912 162.332 267.688 162.508C267.472 162.676 267.364 162.924 267.364 163.252C267.364 163.5 267.424 163.712 267.544 163.888C267.672 164.064 267.864 164.22 268.12 164.356H269.248ZM268.696 167.836C269.664 167.836 270.148 167.456 270.148 166.696C270.148 166.4 270.072 166.168 269.92 166C269.776 165.832 269.552 165.696 269.248 165.592H268.12C267.528 165.784 267.232 166.152 267.232 166.696C267.232 167.456 267.72 167.836 268.696 167.836ZM275.959 169.12C275.447 169.12 275.003 169.044 274.627 168.892C274.251 168.732 273.935 168.488 273.679 168.16C273.431 167.824 273.243 167.4 273.115 166.888C272.995 166.368 272.935 165.744 272.935 165.016C272.935 164.296 272.995 163.676 273.115 163.156C273.243 162.636 273.431 162.212 273.679 161.884C273.927 161.556 274.239 161.316 274.615 161.164C274.999 161.004 275.443 160.924 275.947 160.924C276.459 160.924 276.903 161.004 277.279 161.164C277.655 161.316 277.967 161.556 278.215 161.884C278.471 162.212 278.659 162.636 278.779 163.156C278.907 163.676 278.971 164.296 278.971 165.016C278.971 165.744 278.907 166.368 278.779 166.888C278.659 167.4 278.475 167.824 278.227 168.16C277.979 168.488 277.663 168.732 277.279 168.892C276.903 169.044 276.463 169.12 275.959 169.12ZM275.959 167.86C276.231 167.86 276.463 167.812 276.655 167.716C276.847 167.612 277.003 167.452 277.123 167.236C277.251 167.012 277.343 166.72 277.399 166.36C277.455 165.992 277.483 165.544 277.483 165.016C277.483 164.488 277.455 164.044 277.399 163.684C277.343 163.324 277.251 163.036 277.123 162.82C277.003 162.596 276.847 162.436 276.655 162.34C276.463 162.236 276.231 162.184 275.959 162.184C275.687 162.184 275.451 162.236 275.251 162.34C275.059 162.436 274.899 162.596 274.771 162.82C274.651 163.036 274.563 163.324 274.507 163.684C274.451 164.044 274.423 164.488 274.423 165.016C274.423 165.544 274.451 165.992 274.507 166.36C274.563 166.72 274.651 167.012 274.771 167.236C274.899 167.452 275.059 167.612 275.251 167.716C275.451 167.812 275.687 167.86 275.959 167.86Z" fill="white"/>
<path d="M261.036 209.712L259.236 210.876L258.576 209.796L261.156 208.08H262.488V216H261.036V209.712ZM266.837 216.12C266.325 216.12 265.881 216.044 265.505 215.892C265.129 215.732 264.813 215.488 264.557 215.16C264.309 214.824 264.121 214.4 263.993 213.888C263.873 213.368 263.813 212.744 263.813 212.016C263.813 211.296 263.873 210.676 263.993 210.156C264.121 209.636 264.309 209.212 264.557 208.884C264.805 208.556 265.117 208.316 265.493 208.164C265.877 208.004 266.321 207.924 266.825 207.924C267.337 207.924 267.781 208.004 268.157 208.164C268.533 208.316 268.845 208.556 269.093 208.884C269.349 209.212 269.537 209.636 269.657 210.156C269.785 210.676 269.849 211.296 269.849 212.016C269.849 212.744 269.785 213.368 269.657 213.888C269.537 214.4 269.353 214.824 269.105 215.16C268.857 215.488 268.541 215.732 268.157 215.892C267.781 216.044 267.341 216.12 266.837 216.12ZM266.837 214.86C267.109 214.86 267.341 214.812 267.533 214.716C267.725 214.612 267.881 214.452 268.001 214.236C268.129 214.012 268.221 213.72 268.277 213.36C268.333 212.992 268.361 212.544 268.361 212.016C268.361 211.488 268.333 211.044 268.277 210.684C268.221 210.324 268.129 210.036 268.001 209.82C267.881 209.596 267.725 209.436 267.533 209.34C267.341 209.236 267.109 209.184 266.837 209.184C266.565 209.184 266.329 209.236 266.129 209.34C265.937 209.436 265.777 209.596 265.649 209.82C265.529 210.036 265.441 210.324 265.385 210.684C265.329 211.044 265.301 211.488 265.301 212.016C265.301 212.544 265.329 212.992 265.385 213.36C265.441 213.72 265.529 214.012 265.649 214.236C265.777 214.452 265.937 214.612 266.129 214.716C266.329 214.812 266.565 214.86 266.837 214.86ZM273.951 216.12C273.439 216.12 272.995 216.044 272.619 215.892C272.243 215.732 271.927 215.488 271.671 215.16C271.423 214.824 271.235 214.4 271.107 213.888C270.987 213.368 270.927 212.744 270.927 212.016C270.927 211.296 270.987 210.676 271.107 210.156C271.235 209.636 271.423 209.212 271.671 208.884C271.919 208.556 272.231 208.316 272.607 208.164C272.991 208.004 273.435 207.924 273.939 207.924C274.451 207.924 274.895 208.004 275.271 208.164C275.647 208.316 275.959 208.556 276.207 208.884C276.463 209.212 276.651 209.636 276.771 210.156C276.899 210.676 276.963 211.296 276.963 212.016C276.963 212.744 276.899 213.368 276.771 213.888C276.651 214.4 276.467 214.824 276.219 215.16C275.971 215.488 275.655 215.732 275.271 215.892C274.895 216.044 274.455 216.12 273.951 216.12ZM273.951 214.86C274.223 214.86 274.455 214.812 274.647 214.716C274.839 214.612 274.995 214.452 275.115 214.236C275.243 214.012 275.335 213.72 275.391 213.36C275.447 212.992 275.475 212.544 275.475 212.016C275.475 211.488 275.447 211.044 275.391 210.684C275.335 210.324 275.243 210.036 275.115 209.82C274.995 209.596 274.839 209.436 274.647 209.34C274.455 209.236 274.223 209.184 273.951 209.184C273.679 209.184 273.443 209.236 273.243 209.34C273.051 209.436 272.891 209.596 272.763 209.82C272.643 210.036 272.555 210.324 272.499 210.684C272.443 211.044 272.415 211.488 272.415 212.016C272.415 212.544 272.443 212.992 272.499 213.36C272.555 213.72 272.643 214.012 272.763 214.236C272.891 214.452 273.051 214.612 273.243 214.716C273.443 214.812 273.679 214.86 273.951 214.86Z" fill="white"/>
<path d="M240.036 254.712L238.236 255.876L237.576 254.796L240.156 253.08H241.488V261H240.036V254.712ZM243.029 259.752L244.901 257.832L245.849 256.812C246.057 256.564 246.217 256.32 246.329 256.08C246.441 255.84 246.497 255.58 246.497 255.3C246.497 254.916 246.393 254.64 246.185 254.472C245.977 254.304 245.653 254.22 245.213 254.22C244.949 254.22 244.669 254.236 244.373 254.268C244.085 254.292 243.777 254.328 243.449 254.376L243.161 254.424L243.077 253.296C243.845 253.056 244.641 252.936 245.465 252.936C247.145 252.936 247.985 253.684 247.985 255.18C247.985 255.604 247.921 255.972 247.793 256.284C247.681 256.572 247.501 256.864 247.253 257.16C247.005 257.456 246.669 257.804 246.245 258.204L244.649 259.716H248.141V261H243.029V259.752ZM252.447 261.12C251.935 261.12 251.491 261.044 251.115 260.892C250.739 260.732 250.423 260.488 250.167 260.16C249.919 259.824 249.731 259.4 249.603 258.888C249.483 258.368 249.423 257.744 249.423 257.016C249.423 256.296 249.483 255.676 249.603 255.156C249.731 254.636 249.919 254.212 250.167 253.884C250.415 253.556 250.727 253.316 251.103 253.164C251.487 253.004 251.931 252.924 252.435 252.924C252.947 252.924 253.391 253.004 253.767 253.164C254.143 253.316 254.455 253.556 254.703 253.884C254.959 254.212 255.147 254.636 255.267 255.156C255.395 255.676 255.459 256.296 255.459 257.016C255.459 257.744 255.395 258.368 255.267 258.888C255.147 259.4 254.963 259.824 254.715 260.16C254.467 260.488 254.151 260.732 253.767 260.892C253.391 261.044 252.951 261.12 252.447 261.12ZM252.447 259.86C252.719 259.86 252.951 259.812 253.143 259.716C253.335 259.612 253.491 259.452 253.611 259.236C253.739 259.012 253.831 258.72 253.887 258.36C253.943 257.992 253.971 257.544 253.971 257.016C253.971 256.488 253.943 256.044 253.887 255.684C253.831 255.324 253.739 255.036 253.611 254.82C253.491 254.596 253.335 254.436 253.143 254.34C252.951 254.236 252.719 254.184 252.447 254.184C252.175 254.184 251.939 254.236 251.739 254.34C251.547 254.436 251.387 254.596 251.259 254.82C251.139 255.036 251.051 255.324 250.995 255.684C250.939 256.044 250.911 256.488 250.911 257.016C250.911 257.544 250.939 257.992 250.995 258.36C251.051 258.72 251.139 259.012 251.259 259.236C251.387 259.452 251.547 259.612 251.739 259.716C251.939 259.812 252.175 259.86 252.447 259.86Z" fill="white"/>
<defs>
<filter id="filter0_d_1083_4466" x="90.9272" y="14.5703" width="214.481" height="316.197" filterUnits="userSpaceOnUse" color-interpolation-filters="sRGB">
<feFlood flood-opacity="0" result="BackgroundImageFix"/>
<feColorMatrix in="SourceAlpha" type="matrix" values="0 0 0 0 0 0 0 0 0 0 0 0 0 0 0 0 0 0 127 0" result="hardAlpha"/>
<feOffset dy="6"/>
<feGaussianBlur stdDeviation="6"/>
<feComposite in2="hardAlpha" operator="out"/>
<feColorMatrix type="matrix" values="0 0 0 0 0 0 0 0 0 0 0 0 0 0 0 0 0 0 0.25 0"/>
<feBlend mode="normal" in2="BackgroundImageFix" result="effect1_dropShadow_1083_4466"/>
<feBlend mode="normal" in="SourceGraphic" in2="effect1_dropShadow_1083_4466" result="shape"/>
</filter>
<linearGradient id="paint0_linear_1083_4466" x1="176.426" y1="2.60574" x2="34.5145" y2="250.373" gradientUnits="userSpaceOnUse">
<stop stop-color="#8FD7FF"/>
<stop offset="1" stop-color="#004165"/>
</linearGradient>
<linearGradient id="paint1_linear_1083_4466" x1="81.931" y1="33.443" x2="272.688" y2="258.532" gradientUnits="userSpaceOnUse">
<stop stop-color="#139EE0"/>
<stop offset="1" stop-color="#073056"/>
</linearGradient>
</defs>
</svg>
