<svg width="24" height="24" viewBox="0 0 24 24" fill="none" xmlns="http://www.w3.org/2000/svg">
<path d="M11.3418 8.75281H13.3418V13.5469H11.3418V8.75281ZM11.3408 14.5057H13.3408V16.4234H11.3408V14.5057Z" fill="#434544"/>
<path d="M14.1088 4.01826C13.7608 3.39024 13.0828 3 12.3408 3C11.5988 3 10.9208 3.39024 10.5728 4.01922L3.23477 17.3113C3.07194 17.6032 2.99128 17.9308 3.00075 18.2617C3.01022 18.5926 3.10949 18.9154 3.28877 19.1983C3.46547 19.4825 3.71641 19.7175 4.01682 19.8803C4.31723 20.0431 4.65672 20.1279 5.00177 20.1264H19.6798C20.3878 20.1264 21.0288 19.7793 21.3938 19.1983C21.5728 18.9153 21.6719 18.5925 21.6813 18.2617C21.6908 17.9308 21.6103 17.6033 21.4478 17.3113L14.1088 4.01826ZM5.00177 18.2088L12.3408 4.91668L19.6848 18.2088H5.00177Z" fill="#434544"/>
</svg>
