<svg width="488" height="65" viewBox="0 0 488 65" fill="none" xmlns="http://www.w3.org/2000/svg">
<g clip-path="url(#clip0_1_2)">
<path d="M278.08 17.264C277.728 17.264 277.344 17.248 276.928 17.216C276.528 17.184 276.12 17.136 275.704 17.072C275.288 17.008 274.872 16.944 274.456 16.88C274.056 16.8 273.688 16.72 273.352 16.64L272.512 16.424L272.824 14.264C273.752 14.44 274.616 14.568 275.416 14.648C276.216 14.712 276.952 14.744 277.624 14.744C278.536 14.744 279.232 14.504 279.712 14.024C280.192 13.528 280.432 12.824 280.432 11.912C280.432 10.28 279.632 9.46399 278.032 9.46399C277.536 9.46399 277.088 9.51199 276.688 9.60799C276.288 9.68799 275.944 9.78399 275.656 9.89599C275.368 10.008 275.144 10.112 274.984 10.208C274.824 10.304 274.736 10.36 274.72 10.376L272.896 10.016L273.328 1.15999H282.88V3.67999H275.608L275.2 7.63999C275.728 7.39999 276.256 7.22399 276.784 7.11199C277.328 6.98399 277.904 6.91999 278.512 6.91999C280.112 6.91999 281.328 7.31999 282.16 8.11999C282.992 8.90399 283.408 10.112 283.408 11.744C283.408 13.504 282.944 14.864 282.016 15.824C281.088 16.784 279.776 17.264 278.08 17.264ZM292.122 17.288C288.234 17.288 286.29 15.816 286.29 12.872C286.29 11.976 286.466 11.216 286.818 10.592C287.186 9.95199 287.738 9.35999 288.474 8.81599C287.786 8.33599 287.29 7.81599 286.986 7.25599C286.698 6.67999 286.554 5.99199 286.554 5.19199C286.554 4.42399 286.73 3.76799 287.082 3.22399C287.45 2.67999 287.906 2.23199 288.45 1.87999C289.01 1.52799 289.618 1.27199 290.274 1.11199C290.946 0.951993 291.594 0.871993 292.218 0.871993C292.906 0.871993 293.594 0.959993 294.282 1.13599C294.986 1.31199 295.61 1.57599 296.154 1.92799C296.714 2.27999 297.17 2.72799 297.522 3.27199C297.874 3.81599 298.05 4.46399 298.05 5.21599C298.05 5.64799 298.018 6.03199 297.954 6.36799C297.89 6.68799 297.778 6.99199 297.618 7.27999C297.458 7.55199 297.25 7.81599 296.994 8.07199C296.738 8.31199 296.426 8.55999 296.058 8.81599C296.81 9.32799 297.37 9.87999 297.738 10.472C298.106 11.048 298.29 11.776 298.29 12.656C298.29 14.208 297.762 15.368 296.706 16.136C295.65 16.904 294.122 17.288 292.122 17.288ZM293.394 7.71199C293.938 7.43999 294.33 7.12799 294.57 6.77599C294.826 6.40799 294.954 5.97599 294.954 5.47999C294.954 4.15199 294.066 3.48799 292.29 3.48799C291.394 3.48799 290.722 3.66399 290.274 4.01599C289.842 4.35199 289.626 4.84799 289.626 5.50399C289.626 5.99999 289.746 6.42399 289.986 6.77599C290.242 7.12799 290.626 7.43999 291.138 7.71199H293.394ZM292.29 14.672C294.226 14.672 295.194 13.912 295.194 12.392C295.194 11.8 295.042 11.336 294.738 11C294.45 10.664 294.002 10.392 293.394 10.184H291.138C289.954 10.568 289.362 11.304 289.362 12.392C289.362 13.912 290.338 14.672 292.29 14.672ZM303.432 17.168L308.832 0.343994L310.416 0.895994L305.016 17.672L303.432 17.168ZM303.456 7.78399C301.584 7.78399 300.648 6.62399 300.648 4.30399C300.648 2.01599 301.584 0.871993 303.456 0.871993C305.344 0.871993 306.288 2.01599 306.288 4.30399C306.288 6.62399 305.344 7.78399 303.456 7.78399ZM303.456 6.05599C304.064 6.05599 304.368 5.47199 304.368 4.30399C304.368 3.16799 304.064 2.59999 303.456 2.59999C302.864 2.59999 302.568 3.16799 302.568 4.30399C302.568 5.47199 302.864 6.05599 303.456 6.05599ZM310.392 17.288C308.504 17.288 307.56 16.12 307.56 13.784C307.56 11.512 308.504 10.376 310.392 10.376C312.28 10.376 313.224 11.512 313.224 13.784C313.224 16.12 312.28 17.288 310.392 17.288ZM310.392 15.56C311 15.56 311.304 14.976 311.304 13.808C311.304 12.656 311 12.08 310.392 12.08C309.784 12.08 309.48 12.648 309.48 13.784C309.48 14.968 309.784 15.56 310.392 15.56Z" fill="#008EDD"/>
<path d="M4.15801 53.14C3.57001 53.14 3.06134 53.0513 2.63201 52.874C2.20268 52.6967 1.84334 52.4167 1.55401 52.034C1.26468 51.6513 1.05001 51.1567 0.910012 50.55C0.770012 49.9433 0.700012 49.2153 0.700012 48.366C0.700012 47.5073 0.770012 46.7793 0.910012 46.182C1.05001 45.5753 1.26001 45.0807 1.54001 44.698C1.82934 44.306 2.18868 44.0213 2.61801 43.844C3.05668 43.6667 3.56534 43.578 4.14401 43.578C4.73201 43.578 5.24068 43.6667 5.67001 43.844C6.10868 44.0213 6.46801 44.306 6.74801 44.698C7.03734 45.0807 7.25201 45.5753 7.39201 46.182C7.54134 46.7793 7.61601 47.5073 7.61601 48.366C7.61601 49.2153 7.54601 49.9433 7.40601 50.55C7.26601 51.1567 7.05134 51.6513 6.76201 52.034C6.47268 52.4167 6.10868 52.6967 5.67001 52.874C5.24068 53.0513 4.73668 53.14 4.15801 53.14ZM4.15801 51.866C4.51268 51.866 4.81134 51.8053 5.05401 51.684C5.30601 51.5627 5.51134 51.3667 5.67001 51.096C5.82868 50.8253 5.94534 50.466 6.02001 50.018C6.09468 49.57 6.13201 49.0193 6.13201 48.366C6.13201 47.7033 6.09468 47.148 6.02001 46.7C5.94534 46.252 5.82868 45.8927 5.67001 45.622C5.51134 45.3513 5.30601 45.1553 5.05401 45.034C4.81134 44.9127 4.51268 44.852 4.15801 44.852C3.81268 44.852 3.51401 44.9127 3.26201 45.034C3.01001 45.1553 2.80468 45.3513 2.64601 45.622C2.48734 45.8927 2.37068 46.252 2.29601 46.7C2.22134 47.148 2.18401 47.7033 2.18401 48.366C2.18401 49.0193 2.22134 49.57 2.29601 50.018C2.37068 50.466 2.48734 50.8253 2.64601 51.096C2.80468 51.3667 3.01001 51.5627 3.26201 51.684C3.51401 51.8053 3.81268 51.866 4.15801 51.866ZM10.5665 53.084L13.6045 43.354L14.4165 43.634L11.3785 53.336L10.5665 53.084ZM10.4825 47.582C9.40918 47.582 8.87251 46.91 8.87251 45.566C8.87251 44.2593 9.40918 43.606 10.4825 43.606C11.5465 43.606 12.0785 44.2593 12.0785 45.566C12.0785 46.238 11.9432 46.742 11.6725 47.078C11.4018 47.414 11.0052 47.582 10.4825 47.582ZM10.4825 46.7C10.8838 46.7 11.0845 46.322 11.0845 45.566C11.0845 44.8473 10.8838 44.488 10.4825 44.488C10.0718 44.488 9.86651 44.8473 9.86651 45.566C9.86651 46.322 10.0718 46.7 10.4825 46.7ZM14.4865 53.154C13.9638 53.154 13.5672 52.986 13.2965 52.65C13.0258 52.314 12.8905 51.81 12.8905 51.138C12.8905 49.8313 13.4225 49.178 14.4865 49.178C15.5598 49.178 16.0965 49.8313 16.0965 51.138C16.0965 51.81 15.9565 52.314 15.6765 52.65C15.4058 52.986 15.0092 53.154 14.4865 53.154ZM14.5005 52.272C14.9018 52.272 15.1025 51.894 15.1025 51.138C15.1025 50.4193 14.9018 50.06 14.5005 50.06C14.2765 50.06 14.1178 50.1487 14.0245 50.326C13.9312 50.494 13.8845 50.76 13.8845 51.124C13.8845 51.8893 14.0898 52.272 14.5005 52.272Z" fill="#C9C9C9"/>
<path d="M230.088 53.154C229.677 53.154 229.234 53.1167 228.758 53.042C228.282 52.9767 227.825 52.8927 227.386 52.79L226.91 52.678L227.078 51.586C228.142 51.782 229.061 51.88 229.836 51.88C230.452 51.88 230.919 51.7213 231.236 51.404C231.553 51.0773 231.712 50.6107 231.712 50.004C231.712 49.4533 231.577 49.052 231.306 48.8C231.035 48.5387 230.629 48.408 230.088 48.408C229.808 48.408 229.542 48.436 229.29 48.492C229.047 48.548 228.833 48.6133 228.646 48.688C228.469 48.7533 228.324 48.8187 228.212 48.884C228.109 48.94 228.053 48.9727 228.044 48.982L227.106 48.814L227.358 43.76H232.86V45.02H228.52L228.268 47.624C228.604 47.4653 228.935 47.3487 229.262 47.274C229.598 47.19 229.962 47.148 230.354 47.148C231.287 47.148 231.992 47.3767 232.468 47.834C232.953 48.2913 233.196 48.996 233.196 49.948C233.196 50.9653 232.925 51.754 232.384 52.314C231.843 52.874 231.077 53.154 230.088 53.154ZM238.265 53.14C237.677 53.14 237.169 53.0513 236.739 52.874C236.31 52.6967 235.951 52.4167 235.661 52.034C235.372 51.6513 235.157 51.1567 235.017 50.55C234.877 49.9433 234.807 49.2153 234.807 48.366C234.807 47.5073 234.877 46.7793 235.017 46.182C235.157 45.5753 235.367 45.0807 235.647 44.698C235.937 44.306 236.296 44.0213 236.725 43.844C237.164 43.6667 237.673 43.578 238.251 43.578C238.839 43.578 239.348 43.6667 239.777 43.844C240.216 44.0213 240.575 44.306 240.855 44.698C241.145 45.0807 241.359 45.5753 241.499 46.182C241.649 46.7793 241.723 47.5073 241.723 48.366C241.723 49.2153 241.653 49.9433 241.513 50.55C241.373 51.1567 241.159 51.6513 240.869 52.034C240.58 52.4167 240.216 52.6967 239.777 52.874C239.348 53.0513 238.844 53.14 238.265 53.14ZM238.265 51.866C238.62 51.866 238.919 51.8053 239.161 51.684C239.413 51.5627 239.619 51.3667 239.777 51.096C239.936 50.8253 240.053 50.466 240.127 50.018C240.202 49.57 240.239 49.0193 240.239 48.366C240.239 47.7033 240.202 47.148 240.127 46.7C240.053 46.252 239.936 45.8927 239.777 45.622C239.619 45.3513 239.413 45.1553 239.161 45.034C238.919 44.9127 238.62 44.852 238.265 44.852C237.92 44.852 237.621 44.9127 237.369 45.034C237.117 45.1553 236.912 45.3513 236.753 45.622C236.595 45.8927 236.478 46.252 236.403 46.7C236.329 47.148 236.291 47.7033 236.291 48.366C236.291 49.0193 236.329 49.57 236.403 50.018C236.478 50.466 236.595 50.8253 236.753 51.096C236.912 51.3667 237.117 51.5627 237.369 51.684C237.621 51.8053 237.92 51.866 238.265 51.866ZM244.674 53.084L247.712 43.354L248.524 43.634L245.486 53.336L244.674 53.084ZM244.59 47.582C243.517 47.582 242.98 46.91 242.98 45.566C242.98 44.2593 243.517 43.606 244.59 43.606C245.654 43.606 246.186 44.2593 246.186 45.566C246.186 46.238 246.051 46.742 245.78 47.078C245.509 47.414 245.113 47.582 244.59 47.582ZM244.59 46.7C244.991 46.7 245.192 46.322 245.192 45.566C245.192 44.8473 244.991 44.488 244.59 44.488C244.179 44.488 243.974 44.8473 243.974 45.566C243.974 46.322 244.179 46.7 244.59 46.7ZM248.594 53.154C248.071 53.154 247.675 52.986 247.404 52.65C247.133 52.314 246.998 51.81 246.998 51.138C246.998 49.8313 247.53 49.178 248.594 49.178C249.667 49.178 250.204 49.8313 250.204 51.138C250.204 51.81 250.064 52.314 249.784 52.65C249.513 52.986 249.117 53.154 248.594 53.154ZM248.608 52.272C249.009 52.272 249.21 51.894 249.21 51.138C249.21 50.4193 249.009 50.06 248.608 50.06C248.384 50.06 248.225 50.1487 248.132 50.326C248.039 50.494 247.992 50.76 247.992 51.124C247.992 51.8893 248.197 52.272 248.608 52.272Z" fill="#C9C9C9"/>
<path d="M460.654 45.37L458.428 46.812L457.77 45.748L460.766 43.76H462.082V53H460.654V45.37ZM467.215 53.14C466.627 53.14 466.118 53.0513 465.689 52.874C465.259 52.6967 464.9 52.4167 464.611 52.034C464.321 51.6513 464.107 51.1567 463.967 50.55C463.827 49.9433 463.757 49.2153 463.757 48.366C463.757 47.5073 463.827 46.7793 463.967 46.182C464.107 45.5753 464.317 45.0807 464.597 44.698C464.886 44.306 465.245 44.0213 465.675 43.844C466.113 43.6667 466.622 43.578 467.201 43.578C467.789 43.578 468.297 43.6667 468.727 43.844C469.165 44.0213 469.525 44.306 469.805 44.698C470.094 45.0807 470.309 45.5753 470.449 46.182C470.598 46.7793 470.673 47.5073 470.673 48.366C470.673 49.2153 470.603 49.9433 470.463 50.55C470.323 51.1567 470.108 51.6513 469.819 52.034C469.529 52.4167 469.165 52.6967 468.727 52.874C468.297 53.0513 467.793 53.14 467.215 53.14ZM467.215 51.866C467.569 51.866 467.868 51.8053 468.111 51.684C468.363 51.5627 468.568 51.3667 468.727 51.096C468.885 50.8253 469.002 50.466 469.077 50.018C469.151 49.57 469.189 49.0193 469.189 48.366C469.189 47.7033 469.151 47.148 469.077 46.7C469.002 46.252 468.885 45.8927 468.727 45.622C468.568 45.3513 468.363 45.1553 468.111 45.034C467.868 44.9127 467.569 44.852 467.215 44.852C466.869 44.852 466.571 44.9127 466.319 45.034C466.067 45.1553 465.861 45.3513 465.703 45.622C465.544 45.8927 465.427 46.252 465.353 46.7C465.278 47.148 465.241 47.7033 465.241 48.366C465.241 49.0193 465.278 49.57 465.353 50.018C465.427 50.466 465.544 50.8253 465.703 51.096C465.861 51.3667 466.067 51.5627 466.319 51.684C466.571 51.8053 466.869 51.866 467.215 51.866ZM475.527 53.14C474.939 53.14 474.43 53.0513 474.001 52.874C473.572 52.6967 473.212 52.4167 472.923 52.034C472.634 51.6513 472.419 51.1567 472.279 50.55C472.139 49.9433 472.069 49.2153 472.069 48.366C472.069 47.5073 472.139 46.7793 472.279 46.182C472.419 45.5753 472.629 45.0807 472.909 44.698C473.198 44.306 473.558 44.0213 473.987 43.844C474.426 43.6667 474.934 43.578 475.513 43.578C476.101 43.578 476.61 43.6667 477.039 43.844C477.478 44.0213 477.837 44.306 478.117 44.698C478.406 45.0807 478.621 45.5753 478.761 46.182C478.91 46.7793 478.985 47.5073 478.985 48.366C478.985 49.2153 478.915 49.9433 478.775 50.55C478.635 51.1567 478.42 51.6513 478.131 52.034C477.842 52.4167 477.478 52.6967 477.039 52.874C476.61 53.0513 476.106 53.14 475.527 53.14ZM475.527 51.866C475.882 51.866 476.18 51.8053 476.423 51.684C476.675 51.5627 476.88 51.3667 477.039 51.096C477.198 50.8253 477.314 50.466 477.389 50.018C477.464 49.57 477.501 49.0193 477.501 48.366C477.501 47.7033 477.464 47.148 477.389 46.7C477.314 46.252 477.198 45.8927 477.039 45.622C476.88 45.3513 476.675 45.1553 476.423 45.034C476.18 44.9127 475.882 44.852 475.527 44.852C475.182 44.852 474.883 44.9127 474.631 45.034C474.379 45.1553 474.174 45.3513 474.015 45.622C473.856 45.8927 473.74 46.252 473.665 46.7C473.59 47.148 473.553 47.7033 473.553 48.366C473.553 49.0193 473.59 49.57 473.665 50.018C473.74 50.466 473.856 50.8253 474.015 51.096C474.174 51.3667 474.379 51.5627 474.631 51.684C474.883 51.8053 475.182 51.866 475.527 51.866ZM481.936 53.084L484.974 43.354L485.786 43.634L482.748 53.336L481.936 53.084ZM481.852 47.582C480.778 47.582 480.242 46.91 480.242 45.566C480.242 44.2593 480.778 43.606 481.852 43.606C482.916 43.606 483.448 44.2593 483.448 45.566C483.448 46.238 483.312 46.742 483.042 47.078C482.771 47.414 482.374 47.582 481.852 47.582ZM481.852 46.7C482.253 46.7 482.454 46.322 482.454 45.566C482.454 44.8473 482.253 44.488 481.852 44.488C481.441 44.488 481.236 44.8473 481.236 45.566C481.236 46.322 481.441 46.7 481.852 46.7ZM485.856 53.154C485.333 53.154 484.936 52.986 484.666 52.65C484.395 52.314 484.26 51.81 484.26 51.138C484.26 49.8313 484.792 49.178 485.856 49.178C486.929 49.178 487.466 49.8313 487.466 51.138C487.466 51.81 487.326 52.314 487.046 52.65C486.775 52.986 486.378 53.154 485.856 53.154ZM485.87 52.272C486.271 52.272 486.472 51.894 486.472 51.138C486.472 50.4193 486.271 50.06 485.87 50.06C485.646 50.06 485.487 50.1487 485.394 50.326C485.3 50.494 485.254 50.76 485.254 51.124C485.254 51.8893 485.459 52.272 485.87 52.272Z" fill="#C9C9C9"/>
<path d="M8 64.5H470" stroke="#C9C9C9"/>
<path d="M8.5 64V57" stroke="#C9C9C9"/>
<path d="M238.5 64V57" stroke="#C9C9C9"/>
<path d="M469.5 64V57" stroke="#C9C9C9"/>
<path d="M288 25.3397L279.34 34L288 42.6603L296.66 34L288 25.3397ZM289.5 63V34H286.5V63H289.5Z" fill="#008EDD"/>
</g>
<defs>
<clipPath id="clip0_1_2">
<rect width="488" height="65" fill="white"/>
</clipPath>
</defs>
</svg>
