<svg width="20" height="20" viewBox="0 0 20 20" fill="none" xmlns="http://www.w3.org/2000/svg">
<path d="M9.16666 14.1667H10.8333V9.16667H9.16666V14.1667ZM9.99999 7.5C10.2361 7.5 10.4342 7.42 10.5942 7.26C10.7542 7.1 10.8339 6.90222 10.8333 6.66667C10.8333 6.43056 10.7533 6.2325 10.5933 6.0725C10.4333 5.9125 10.2355 5.83278 9.99999 5.83333C9.76388 5.83333 9.56582 5.91333 9.40582 6.07333C9.24582 6.23333 9.1661 6.43111 9.16666 6.66667C9.16666 6.90278 9.24666 7.10083 9.40666 7.26083C9.56666 7.42083 9.76443 7.50056 9.99999 7.5ZM9.99999 18.3333C8.84721 18.3333 7.76388 18.1144 6.74999 17.6767C5.7361 17.2389 4.85416 16.6453 4.10416 15.8958C3.35416 15.1458 2.76055 14.2639 2.32332 13.25C1.8861 12.2361 1.66721 11.1528 1.66666 10C1.66666 8.84722 1.88555 7.76389 2.32332 6.75C2.7611 5.73611 3.35471 4.85417 4.10416 4.10417C4.85416 3.35417 5.7361 2.76056 6.74999 2.32333C7.76388 1.88611 8.84721 1.66722 9.99999 1.66667C11.1528 1.66667 12.2361 1.88556 13.25 2.32333C14.2639 2.76111 15.1458 3.35472 15.8958 4.10417C16.6458 4.85417 17.2397 5.73611 17.6775 6.75C18.1153 7.76389 18.3339 8.84722 18.3333 10C18.3333 11.1528 18.1144 12.2361 17.6767 13.25C17.2389 14.2639 16.6453 15.1458 15.8958 15.8958C15.1458 16.6458 14.2639 17.2397 13.25 17.6775C12.2361 18.1153 11.1528 18.3339 9.99999 18.3333ZM9.99999 16.6667C11.8611 16.6667 13.4375 16.0208 14.7292 14.7292C16.0208 13.4375 16.6667 11.8611 16.6667 10C16.6667 8.13889 16.0208 6.5625 14.7292 5.27083C13.4375 3.97917 11.8611 3.33333 9.99999 3.33333C8.13888 3.33333 6.56249 3.97917 5.27082 5.27083C3.97916 6.5625 3.33332 8.13889 3.33332 10C3.33332 11.8611 3.97916 13.4375 5.27082 14.7292C6.56249 16.0208 8.13888 16.6667 9.99999 16.6667Z" fill="#676767"/>
</svg>
