<svg width="508" height="360" viewBox="0 0 508 360" fill="none" xmlns="http://www.w3.org/2000/svg">
<path d="M66.4841 20.6335C67.6522 18.6175 68.6743 16.6735 69.0393 15.9535C69.7694 15.2336 71.5945 15.2336 72.6896 13.7935C73.7847 12.3534 73.0546 12.3535 74.1497 10.9136C75.2448 9.47373 79.9902 6.59353 80.7203 5.87364C81.4503 5.15375 84.0055 3.71365 85.4657 2.27355C86.9258 0.833449 89.116 0.833655 90.5761 0.113658C92.0362 -0.60634 94.5914 2.27365 96.4165 3.71365C98.2417 5.15364 98.2417 4.79364 99.7018 5.87364C101.162 6.95364 101.892 7.67363 102.257 9.11363C102.622 10.5536 99.3368 9.83363 98.2417 10.9136C97.1466 11.9936 96.7816 13.7936 101.162 15.2336C105.542 16.6736 103.717 17.3936 104.447 19.1936C105.177 20.9936 100.797 20.2736 98.6067 22.7936C96.4165 25.3136 102.987 26.3936 105.177 28.1936C107.367 29.9936 108.098 28.5536 109.923 28.9136C111.748 29.2736 112.478 32.8736 114.668 33.9535C116.858 35.0335 116.858 34.6735 118.683 33.2336C120.143 32.0816 120.995 32.7536 121.239 33.2336C121.36 33.5935 122.261 36.1855 124.889 43.6735C128.174 53.0335 137.3 56.9935 138.395 57.7135C139.49 58.4335 149.711 58.0735 151.536 57.7135C153.361 57.3535 158.837 59.8735 159.567 61.3135C160.297 62.7535 163.947 65.6334 166.867 67.7934C169.788 69.9534 170.518 69.9534 178.548 73.5534C186.579 77.1534 196.8 77.5134 197.895 77.8734C198.99 78.2334 201.91 78.2334 205.195 76.4334C208.481 74.6334 215.781 73.1934 217.972 72.4734C220.162 71.7534 228.192 67.4334 232.573 67.4334C236.953 67.4334 238.048 66.7134 238.778 66.3534C239.508 65.9934 238.413 63.8335 235.858 61.3135C233.303 58.7935 234.763 57.3535 234.763 56.2735C234.763 55.1935 237.683 55.5535 240.238 56.2735C242.794 56.9935 243.524 54.1135 247.539 53.3935C251.554 52.6735 246.809 51.9535 249.364 50.8735C251.919 49.7935 248.634 51.2335 248.269 47.6335C247.904 44.0335 249.729 44.7535 250.094 43.3135C250.459 41.8735 256.3 37.1935 259.22 35.3935C262.14 33.5935 270.901 35.3935 272.361 35.7535C273.821 36.1135 273.091 33.5935 273.091 31.4336C273.091 29.2736 276.741 30.3536 279.297 29.9936C281.852 29.6336 281.122 30.3536 284.042 31.7936C286.378 32.9456 287.449 30.3536 287.692 28.9136C288.909 29.9936 291.708 32.6576 293.168 34.6735C294.993 37.1935 293.533 35.7535 295.358 37.1935C297.183 38.6335 297.183 37.1935 300.468 37.9135C303.754 38.6335 314.704 42.5935 317.625 43.3135C320.545 44.0335 321.64 42.2335 323.83 42.5935C326.02 42.9535 324.925 42.9535 330.036 45.1135C331.866 45.8869 332.619 46.1065 332.883 46.1192C332.336 45.5487 333.337 46.1412 332.883 46.1192C332.904 46.1421 332.929 46.1668 332.956 46.1935C334.051 47.2735 335.511 48.3535 335.876 49.0735C336.241 49.7935 335.876 49.7935 337.336 51.9535C338.796 54.1135 345.732 54.4735 350.477 57.3535C354.274 59.6575 356.926 62.8735 357.778 64.1935L373.839 63.4734C373.718 63.8335 373.693 65.4174 374.569 68.8734C375.664 73.1934 378.585 74.6334 378.95 79.6734C379.315 84.7134 381.87 81.8334 383.695 85.7934C385.52 89.7534 386.25 89.0334 385.885 92.6334C385.52 96.2333 384.425 97.3133 386.25 99.4733C388.075 101.633 388.806 104.873 388.806 110.273C388.806 115.673 387.71 113.153 386.615 115.673C385.52 118.193 388.44 117.833 389.901 119.273C391.361 120.713 391.361 120.713 389.536 121.433C387.71 122.153 385.52 123.233 385.52 126.113C385.52 128.993 386.25 128.633 388.806 132.593C391.361 136.553 390.631 137.993 392.091 139.073C393.551 140.153 399.391 139.433 398.296 139.793C397.201 140.153 396.106 149.873 396.106 150.233C396.106 150.593 404.867 163.913 406.692 166.433C408.517 168.953 409.977 170.753 411.437 173.993C412.897 177.233 416.548 190.193 417.278 190.193C418.008 190.193 432.974 189.833 434.069 190.913C435.164 191.993 439.18 197.753 440.275 198.833C441.37 199.913 440.275 208.913 438.085 216.833C435.894 224.753 434.799 230.873 435.164 231.953C435.529 233.033 446.845 242.033 448.67 243.833C450.496 245.633 458.891 257.153 459.986 257.873C461.081 258.593 466.557 262.913 471.667 262.553C476.778 262.193 475.683 263.273 477.508 263.993C479.333 264.713 480.428 267.233 481.523 267.233C482.618 267.233 483.348 266.153 484.078 266.153C484.808 266.153 485.173 266.873 485.538 269.753C485.903 272.633 485.538 271.913 486.999 272.993C488.459 274.073 492.474 283.433 493.569 287.033C494.664 290.633 494.664 291.353 496.124 292.073C497.584 292.793 497.219 290.993 500.505 289.913C503.79 288.833 503.79 290.273 504.52 292.073C505.25 293.873 507.44 295.313 506.71 296.753C505.98 298.193 509.265 306.833 507.44 306.833C505.615 306.833 503.79 307.553 500.505 308.993C497.219 310.433 496.489 314.753 496.489 317.273C496.489 319.793 490.284 320.873 490.284 322.673C490.284 324.473 492.109 328.793 492.474 330.953C492.839 333.113 492.474 335.993 493.204 336.713C493.934 337.433 495.029 344.993 495.759 346.793C496.489 348.593 496.489 350.753 496.854 352.913C497.219 355.073 496.489 355.793 494.664 356.152C492.839 356.513 492.109 356.152 487.729 356.152C483.348 356.152 477.508 352.913 476.413 352.193C475.318 351.473 474.223 352.553 473.492 354.353C472.762 356.152 470.937 355.432 467.287 356.152C463.637 356.872 453.781 356.513 453.051 357.232C452.321 357.952 450.496 359.033 449.4 359.392C448.305 359.753 446.48 357.232 441.735 356.513C436.989 355.793 435.529 356.513 434.434 358.312C433.339 360.112 431.879 360.472 428.959 359.392C426.039 358.312 422.023 358.312 420.198 357.232C418.373 356.152 415.088 358.672 412.167 357.232C409.247 355.793 410.342 355.793 407.422 352.553C404.502 349.313 405.962 350.753 405.962 348.593C405.962 346.433 403.407 346.073 402.677 344.273C401.947 342.473 400.121 341.033 399.391 337.793C398.661 334.553 394.281 329.873 393.551 328.073C392.821 326.273 389.901 323.033 388.806 322.313C387.71 321.593 380.775 322.313 376.76 322.313C372.744 322.313 376.029 322.673 375.299 324.833C374.569 326.993 369.459 329.873 367.634 331.313C365.809 332.753 365.809 331.673 366.174 333.833C366.539 335.993 365.809 336.353 364.714 338.153C363.618 339.953 361.428 339.233 359.603 339.953C357.778 340.673 358.143 344.273 357.413 346.793C356.683 349.313 350.112 351.473 349.017 350.393C347.922 349.313 346.462 349.673 345.002 348.593C343.542 347.513 341.352 348.233 339.161 347.513C336.971 346.793 335.876 346.793 334.781 348.233C333.686 349.673 330.036 349.673 326.02 348.593C322.005 347.513 321.64 346.433 321.64 344.633C321.64 342.833 308.499 341.753 307.769 340.673C307.039 339.593 299.008 337.793 298.278 337.433C297.548 337.073 297.913 336.353 298.278 334.553C298.643 332.753 292.438 330.233 291.343 328.793C290.247 327.353 290.247 328.793 286.962 328.793C283.677 328.793 283.312 326.273 281.487 325.193C279.662 324.113 280.392 325.553 274.916 326.993C269.441 328.433 262.87 322.313 260.68 320.873C258.49 319.433 260.315 319.793 259.95 317.633C259.585 315.473 255.935 314.393 253.379 309.713C250.824 305.033 252.284 307.193 252.284 305.033C252.284 302.873 249.364 301.433 247.174 301.073C244.984 300.713 243.524 299.273 242.063 298.193C240.603 297.113 242.429 295.673 244.254 294.953C246.079 294.233 243.524 291.713 241.333 290.993C239.143 290.273 237.683 293.153 236.953 293.153C236.223 293.153 236.223 291.353 236.588 288.833C236.953 286.313 231.113 280.913 229.287 278.753C227.462 276.593 224.907 276.593 222.717 275.153C220.527 273.713 215.781 265.073 213.956 262.913C212.131 260.753 212.496 262.913 209.211 264.713C205.926 266.513 207.021 267.593 203.735 270.113C200.45 272.633 203.005 269.033 201.18 266.513C199.355 263.993 198.99 266.513 196.8 267.233C194.61 267.953 193.515 267.953 191.324 266.513C189.134 265.073 189.499 263.273 188.404 261.833C187.309 260.393 186.214 262.193 185.484 262.913C184.754 263.633 185.484 265.073 186.944 265.073C188.404 265.073 189.499 270.833 189.499 272.273C189.499 273.713 188.039 273.713 184.754 274.073C181.469 274.433 184.754 275.153 182.929 276.593C181.103 278.033 181.103 278.033 177.818 276.593C174.533 275.153 174.168 268.313 171.248 267.953C168.327 267.593 169.058 266.873 167.597 264.713C166.137 262.553 166.867 264.353 163.947 263.993C161.027 263.633 159.567 249.593 158.837 248.153C158.107 246.713 153.361 249.233 150.441 249.593C147.521 249.953 148.981 245.273 147.521 243.113C146.061 240.953 147.886 225.113 147.521 223.313C147.156 221.513 146.426 222.593 144.966 221.153C143.505 219.713 137.665 215.033 136.57 213.593C135.475 212.153 132.92 208.193 131.824 206.753C130.729 205.313 129.634 206.033 128.539 206.033C127.444 206.033 125.254 206.753 123.429 205.673C121.604 204.593 110.288 197.753 108.463 195.953C106.637 194.153 100.067 195.953 96.4165 194.873C92.7663 193.793 94.9564 193.793 93.8613 191.993C92.7663 190.193 94.2264 190.913 94.9564 190.193C95.6865 189.473 95.6865 189.473 94.9564 186.953C94.2264 184.433 87.6558 180.113 87.6558 178.673C87.6558 177.233 87.2908 177.953 86.1957 176.873C85.1006 175.793 82.9104 179.393 81.8154 176.513C80.7203 173.633 75.9749 170.393 75.6098 168.953C75.2448 167.513 71.5945 168.593 70.4994 167.153C69.4043 165.713 70.4994 165.353 71.5945 163.553C72.6896 161.753 73.7847 159.593 73.0546 156.713C72.3246 153.833 70.4994 155.993 68.3092 154.193C66.1191 152.393 67.2142 153.113 67.9442 152.393C68.6743 151.673 69.0393 151.673 69.0393 150.233C69.0393 148.793 68.3092 148.433 70.8645 148.433C73.4197 148.433 72.6896 148.073 73.7847 146.633C74.8798 145.193 71.9595 144.833 70.8645 142.313C69.7694 139.793 72.6896 139.793 74.5148 137.633C76.3399 135.473 74.1497 134.753 74.8798 133.673C75.6098 132.593 75.6098 133.313 77.8 132.593C79.9902 131.873 81.0853 130.793 81.8154 129.353C82.5454 127.913 79.6252 124.673 77.07 123.233C74.5148 121.793 73.7847 118.913 74.1497 116.393C74.5148 113.873 73.7847 114.593 77.07 114.233C80.3552 113.873 80.7203 112.433 81.0853 111.353C81.4503 110.273 80.7203 109.913 79.2601 109.913C77.8 109.913 78.1651 111.353 76.3399 109.913C74.5148 108.473 73.7847 110.633 69.7694 111.353C65.754 112.073 65.389 110.633 64.2939 108.833C63.1988 107.033 61.7387 107.393 58.8185 106.313C55.8982 105.233 56.2633 105.953 56.2633 105.233C56.2633 105.225 56.2634 105.217 56.2635 105.21C56.0888 105.263 55.3884 104.875 52.978 101.633C51.1528 98.3933 51.8829 98.3933 51.5179 96.5933C51.1528 94.7933 49.6927 94.7933 47.5025 95.5133C45.3124 96.2333 44.5823 94.4333 43.4872 92.6334C42.3921 90.8334 43.4872 90.8334 43.8522 88.3134C44.2173 85.7934 42.0271 86.5134 41.297 85.4334C40.567 84.3534 38.3768 85.7934 37.2817 84.3534C36.1866 82.9134 37.6467 80.3934 37.2817 78.2334C36.9167 76.0734 36.1866 77.8734 35.0915 77.1534C33.9964 76.4334 33.2664 74.9934 33.2664 73.9134C33.2664 72.8334 33.6314 70.6734 32.9013 69.5934C32.1713 68.5134 29.2511 68.1534 27.7909 67.0734C26.3308 65.9934 26.3308 66.3534 26.3308 63.8335V60.2335C26.3308 58.7935 26.3308 56.6335 24.1406 56.6335C21.9505 56.6335 22.3155 57.7135 20.8554 56.6335C19.3952 55.5535 19.0302 55.1935 15.7449 55.5535C12.4597 55.9135 12.8247 54.1135 15.7449 50.1535C16.475 46.1935 16.84 47.9935 16.84 46.1935C16.84 44.3935 18.6652 44.0335 19.0302 42.2335C19.3952 40.4335 17.9351 40.0735 16.84 40.0735C15.7449 40.0735 12.8247 40.7935 12.8247 40.0735V34.6735C12.8247 31.7936 10.9996 31.0736 10.9996 27.8336C10.9996 24.5936 9.90447 27.1136 8.44435 25.3136C6.98423 23.5136 5.88914 23.1535 5.88914 20.6335V18.1135C5.1591 18.1135 3.26099 17.6815 1.50885 15.9535C-0.681333 13.7935 -0.316303 12.3536 1.50885 10.9135C3.334 9.4734 6.25423 11.9936 8.44435 10.9135C10.6345 9.8334 8.80938 8.75363 8.44435 6.23364C8.07932 3.71365 8.44435 1.55354 10.9996 0.473546C13.5548 -0.606451 15.7449 1.91354 20.8554 5.15353C25.9658 8.39352 22.3155 8.39352 26.3308 10.9135C30.3461 13.4335 27.4259 13.4335 31.4412 14.5135C35.4566 15.5935 33.2664 15.9535 35.8216 18.1135C38.3768 20.2735 36.9167 20.6335 39.8369 22.0735C42.7572 23.5135 45.6774 22.0735 51.5179 23.1535C57.3584 24.2335 54.8031 23.1535 56.9933 22.0735C59.1835 20.9935 59.1835 23.1535 62.8338 23.1535C66.4841 23.1535 65.024 23.1535 66.4841 20.6335Z" fill="url(#paint0_radial_46_238)"/>
<defs>
<radialGradient id="paint0_radial_46_238" cx="0" cy="0" r="1" gradientUnits="userSpaceOnUse" gradientTransform="translate(170.5 273) rotate(-37.5178) scale(309.52 436.767)">
<stop stop-color="#414141"/>
<stop offset="1" stop-color="#414141" stop-opacity="0"/>
</radialGradient>
</defs>
</svg>
