<svg width="20" height="20" viewBox="0 0 20 20" fill="none" xmlns="http://www.w3.org/2000/svg">
<g clip-path="url(#clip0_12_5)">
<path d="M8.67223 4.63332L3.33334 9.99999L8.67223 15.3667C8.72045 15.43 8.78171 15.4822 8.85186 15.5198C8.92201 15.5574 8.99942 15.5794 9.07885 15.5845C9.15828 15.5896 9.23786 15.5775 9.31222 15.5492C9.38659 15.5208 9.45398 15.4768 9.50986 15.4201C9.56573 15.3634 9.60877 15.2954 9.63607 15.2206C9.66337 15.1459 9.67429 15.0661 9.66809 14.9868C9.66189 14.9074 9.63871 14.8304 9.60013 14.7607C9.56154 14.6911 9.50846 14.6306 9.44445 14.5833L5.45001 10.5555L16.0778 10.5555C16.2251 10.5555 16.3664 10.497 16.4706 10.3928C16.5748 10.2886 16.6333 10.1473 16.6333 9.99999C16.6333 9.85264 16.5748 9.71134 16.4706 9.60715C16.3664 9.50296 16.2251 9.44443 16.0778 9.44443L5.45001 9.44443L9.44445 5.41665C9.54833 5.31204 9.60639 5.17045 9.60587 5.02302C9.60535 4.8756 9.54629 4.73442 9.44168 4.63054C9.33706 4.52667 9.19547 4.4686 9.04805 4.46912C8.90062 4.46964 8.75944 4.52871 8.65556 4.63332L8.67223 4.63332Z" fill="#008EDD"/>
</g>
<defs>
<clipPath id="clip0_12_5">
<rect width="20" height="20" fill="white" transform="translate(0 20) rotate(-90)"/>
</clipPath>
</defs>
</svg>
