<svg xmlns="http://www.w3.org/2000/svg" xmlns:xlink="http://www.w3.org/1999/xlink" viewBox="0 0 468.44 468.44"><defs><style>.cls-1{fill:url(#linear-gradient);}</style><linearGradient id="linear-gradient" y1="234.22" x2="468.44" y2="234.22" gradientUnits="userSpaceOnUse"><stop offset="0" stop-color="#126AED"/><stop offset="1" stop-color="#126AED"/></linearGradient></defs><g id="Layer_2" data-name="Layer 2"><g id="Layer_1-2" data-name="Layer 1"><path class="cls-1" d="M234.22,0C104.86,0,0,104.86,0,234.22S104.86,468.44,234.22,468.44,468.44,363.57,468.44,234.22,363.57,0,234.22,0ZM382.74,160.28c9.19-2.05,17.72-4.36,25.55-6.78,2,7.59,3.81,15.73,5.43,24.39,1.9,10.2,3.24,19.87,4.18,28.89-7.91,2.15-16.47,4.17-25.62,5.93-9.91,1.89-19.28,3.23-28,4.17-.52-8-1.37-16.69-2.68-25.83-1.34-9.36-3-18.07-4.82-26.08C364.88,163.84,373.57,162.32,382.74,160.28ZM130.06,51.41a214.62,214.62,0,0,1,56.31-20.32,217.83,217.83,0,0,1,57.71-4.34c-6.47,2.5-15.34,6.16-25.6,11.17-13.94,6.8-32.93,16.07-52.59,32.26a204.12,204.12,0,0,0-42,47.63c-9.15-1.72-18.74-3.76-28.7-6.21s-19.67-5.15-28.7-7.91A211.5,211.5,0,0,1,130.06,51.41Zm61.5,135.89a297.93,297.93,0,0,0-3.49,38.4q-20.15.2-40.95,0-19.36-.18-38.16-.7a212.07,212.07,0,0,1,25.6-86.33c10.21,2,22.44,3.05,36.3,3.38,11.92.27,22.65.11,31.87-1.05A296.44,296.44,0,0,0,191.56,187.3Zm11.17,139.1c-9.22-1.17-19.95-1.33-31.87-1-13.86.32-26.09,1.37-36.3,3.37A211.94,211.94,0,0,1,109,242.39q18.8-.51,38.16-.69,20.81-.21,40.95,0a295.39,295.39,0,0,0,14.66,84.7ZM35.27,168.13A205,205,0,0,1,59,119.2q11.24,3.55,23.11,6.92,16.63,4.73,32.42,8.5a211.88,211.88,0,0,0-25,90.15c-9.46-.13-18.51-.58-28.86-.84-11.83-.29-21.36-.75-35.36-1.1C26.23,209.45,28.72,188,35.27,168.13Zm0,131.14c-6.55-19.88-9-42.2-9.92-55.58,12.46-.13,25.4-.34,35.36-.39,9.66,0,19.24.16,28.86-.67a211.88,211.88,0,0,0,25,90.15q-15.76,3.8-32.42,8.49Q70.26,344.65,59,348.19A205.13,205.13,0,0,1,35.27,299.27Zm151.1,137A214.9,214.9,0,0,1,130.06,416a211.49,211.49,0,0,1-63.61-52.27c9-2.77,18.6-5.44,28.7-7.92s19.55-4.49,28.7-6.2a204.24,204.24,0,0,0,42,47.62c19.66,16.2,38.65,25.47,52.59,32.27,10.26,5,19.13,8.67,25.6,11.17A218.25,218.25,0,0,1,186.37,436.31Zm52.9-12.73c-20.18-8.67-31.84-16-43.59-22.8-12.14-7.06-33.3-22.15-55.23-54.92,10.61-1.6,21.9-3,33.82-4,11.62-1,22.71-1.6,33.2-1.86a276.14,276.14,0,0,0,52.43,91.21C258,430.39,242.62,425,239.27,423.58ZM227,83.37a276.52,276.52,0,0,0-19.54,44.05c-10.49-.26-21.58-.84-33.2-1.86-11.92-1-23.21-2.42-33.82-4,21.93-32.77,43.09-47.86,55.23-54.92,11.75-6.83,23.41-14.12,43.59-22.8,3.35-1.44,18.71-6.8,20.63-7.6A276.88,276.88,0,0,0,227,83.37ZM397.42,333.5a209.7,209.7,0,0,1-56.37,69.59,339.93,339.93,0,0,0,23-84.9A339.38,339.38,0,0,0,365.93,245a259.76,259.76,0,0,0,26.79-4.88,258.27,258.27,0,0,0,26.62-7.82A210.07,210.07,0,0,1,397.42,333.5Z"/></g></g></svg>