<svg width="32" height="32" viewBox="0 0 32 32" fill="none" xmlns="http://www.w3.org/2000/svg">
<path id="Vector" opacity="0.5" fill-rule="evenodd" clip-rule="evenodd" d="M2.91567 2.35757C0.623047 4.65333 0.623047 8.34283 0.623047 15.725C0.623047 23.1071 0.623047 26.7982 2.91567 29.0908C5.21143 31.385 8.90094 31.385 16.2831 31.385C23.6652 31.385 27.3563 31.385 29.6489 29.0908C31.9431 26.7997 31.9431 23.1071 31.9431 15.725C31.9431 8.34283 31.9431 4.65176 29.6489 2.35757C27.3578 0.0649414 23.6652 0.0649414 16.2831 0.0649414C8.90094 0.0649414 5.20987 0.0649414 2.91567 2.35757ZM17.4576 9.46096C17.4576 9.14946 17.3338 8.85072 17.1136 8.63046C16.8933 8.4102 16.5946 8.28646 16.2831 8.28646C15.9716 8.28646 15.6728 8.4102 15.4526 8.63046C15.2323 8.85072 15.1086 9.14946 15.1086 9.46096V15.725C15.1086 16.0366 15.2323 16.3357 15.4531 16.5549L19.3681 20.47C19.4756 20.5853 19.6053 20.6779 19.7494 20.7421C19.8934 20.8063 20.049 20.8408 20.2067 20.8436C20.3644 20.8464 20.521 20.8174 20.6672 20.7583C20.8135 20.6992 20.9463 20.6113 21.0579 20.4998C21.1694 20.3882 21.2573 20.2554 21.3164 20.1091C21.3755 19.9629 21.4045 19.8063 21.4017 19.6486C21.3989 19.4909 21.3644 19.3353 21.3002 19.1913C21.236 19.0472 21.1435 18.9175 21.0281 18.81L17.4576 15.2395V9.46096Z" fill="#DB7F12"/>
</svg>
