<svg width="471" height="354" viewBox="0 0 471 354" fill="none" xmlns="http://www.w3.org/2000/svg">
<path d="M67.7206 349.007C56.432 357.225 40.5134 355.093 33.1746 343.214C15.358 314.374 4.338 281.987 1.04354 248.359C-3.05821 206.491 4.97695 164.346 24.2528 126.626C43.5287 88.9062 73.2874 57.0934 110.21 34.736C147.132 12.3785 189.767 0.355505 233.359 0.00779176C276.951 -0.339922 319.786 11.0014 357.086 32.7667C394.387 54.5321 424.687 85.8659 444.607 123.273C464.527 160.681 473.283 202.691 469.9 244.619C467.183 278.282 456.726 310.83 439.418 339.942C432.276 351.954 416.38 354.351 404.95 346.312C392.952 337.874 390.53 321.234 397.487 308.322C408.768 287.384 415.622 264.391 417.535 240.686C420.163 208.117 413.361 175.484 397.888 146.426C382.414 117.369 358.878 93.0292 329.903 76.1221C300.928 59.2151 267.655 50.4053 233.793 50.6754C199.932 50.9455 166.814 60.2849 138.133 77.6518C109.452 95.0188 86.3355 119.731 71.3623 149.031C56.3891 178.331 50.1475 211.069 53.3336 243.591C55.6533 267.269 62.9039 290.156 74.5479 310.916C81.7208 323.704 79.5744 340.377 67.7206 349.007Z" fill="#1B70EE" fill-opacity="0.11"/>
</svg>