<svg width="50" height="212" viewBox="0 0 50 212" fill="none" xmlns="http://www.w3.org/2000/svg">
<path d="M26.5 209C26.5 210.381 27.6193 211.5 29 211.5C30.3807 211.5 31.5 210.381 31.5 209L26.5 209ZM26.5 25L26.5 209L31.5 209L31.5 25L26.5 25Z" fill="#D9D9D9"/>
<path d="M0.952 149.964L3.556 147.234L4.578 146.142C4.82067 145.862 5.02133 145.559 5.18 145.232C5.33867 144.905 5.418 144.541 5.418 144.14C5.418 143.627 5.264 143.258 4.956 143.034C4.65733 142.801 4.18133 142.684 3.528 142.684C2.912 142.684 2.226 142.754 1.47 142.894L1.106 142.978L1.008 141.998C1.44667 141.867 1.89 141.769 2.338 141.704C2.786 141.639 3.234 141.606 3.682 141.606C4.69933 141.606 5.446 141.811 5.922 142.222C6.398 142.623 6.636 143.249 6.636 144.098C6.636 144.387 6.608 144.653 6.552 144.896C6.50533 145.129 6.43067 145.353 6.328 145.568C6.188 145.867 5.98267 146.17 5.712 146.478C5.45067 146.786 5.11 147.145 4.69 147.556L2.324 149.936H6.86V151H0.952V149.964ZM11.9786 151.14C11.4093 151.14 10.91 151.056 10.4806 150.888C10.0513 150.711 9.69664 150.431 9.41664 150.048C9.13664 149.665 8.92664 149.175 8.78664 148.578C8.64664 147.971 8.57664 147.234 8.57664 146.366C8.57664 145.507 8.64664 144.775 8.78664 144.168C8.92664 143.561 9.13664 143.067 9.41664 142.684C9.69664 142.301 10.0466 142.026 10.4666 141.858C10.8866 141.681 11.3813 141.592 11.9506 141.592C12.52 141.592 13.0146 141.681 13.4346 141.858C13.864 142.035 14.2186 142.315 14.4986 142.698C14.788 143.081 15.0026 143.575 15.1426 144.182C15.2826 144.779 15.3526 145.507 15.3526 146.366C15.3526 147.234 15.2826 147.971 15.1426 148.578C15.0026 149.175 14.7926 149.665 14.5126 150.048C14.2326 150.431 13.878 150.711 13.4486 150.888C13.0286 151.056 12.5386 151.14 11.9786 151.14ZM11.9786 150.076C12.3613 150.076 12.688 150.015 12.9586 149.894C13.2293 149.763 13.4486 149.553 13.6166 149.264C13.794 148.975 13.92 148.597 13.9946 148.13C14.0786 147.654 14.1206 147.066 14.1206 146.366C14.1206 145.666 14.0786 145.083 13.9946 144.616C13.92 144.14 13.794 143.757 13.6166 143.468C13.4486 143.179 13.2293 142.973 12.9586 142.852C12.688 142.721 12.3613 142.656 11.9786 142.656C11.596 142.656 11.2646 142.721 10.9846 142.852C10.714 142.973 10.49 143.179 10.3126 143.468C10.1446 143.757 10.0186 144.14 9.93464 144.616C9.85064 145.083 9.80864 145.666 9.80864 146.366C9.80864 147.066 9.85064 147.654 9.93464 148.13C10.0186 148.597 10.1446 148.975 10.3126 149.264C10.49 149.553 10.714 149.763 10.9846 149.894C11.2646 150.015 11.596 150.076 11.9786 150.076Z" fill="white"/>
<path d="M4.97 96.222H0.56V95.312L3.15 88.76H4.438L1.792 95.186H4.97V92.344H6.16V95.186H7.294V96.222H6.16V98H4.97V96.222ZM12.0197 98.14C11.4503 98.14 10.951 98.056 10.5217 97.888C10.0923 97.7107 9.73766 97.4307 9.45766 97.048C9.17766 96.6653 8.96766 96.1753 8.82766 95.578C8.68766 94.9713 8.61766 94.234 8.61766 93.366C8.61766 92.5073 8.68766 91.7747 8.82766 91.168C8.96766 90.5613 9.17766 90.0667 9.45766 89.684C9.73766 89.3013 10.0877 89.026 10.5077 88.858C10.9277 88.6807 11.4223 88.592 11.9917 88.592C12.561 88.592 13.0557 88.6807 13.4757 88.858C13.905 89.0353 14.2597 89.3153 14.5397 89.698C14.829 90.0807 15.0437 90.5753 15.1837 91.182C15.3237 91.7793 15.3937 92.5073 15.3937 93.366C15.3937 94.234 15.3237 94.9713 15.1837 95.578C15.0437 96.1753 14.8337 96.6653 14.5537 97.048C14.2737 97.4307 13.919 97.7107 13.4897 97.888C13.0697 98.056 12.5797 98.14 12.0197 98.14ZM12.0197 97.076C12.4023 97.076 12.729 97.0153 12.9997 96.894C13.2703 96.7633 13.4897 96.5533 13.6577 96.264C13.835 95.9747 13.961 95.5967 14.0357 95.13C14.1197 94.654 14.1617 94.066 14.1617 93.366C14.1617 92.666 14.1197 92.0827 14.0357 91.616C13.961 91.14 13.835 90.7573 13.6577 90.468C13.4897 90.1787 13.2703 89.9733 12.9997 89.852C12.729 89.7213 12.4023 89.656 12.0197 89.656C11.637 89.656 11.3057 89.7213 11.0257 89.852C10.755 89.9733 10.531 90.1787 10.3537 90.468C10.1857 90.7573 10.0597 91.14 9.97566 91.616C9.89166 92.0827 9.84966 92.666 9.84966 93.366C9.84966 94.066 9.89166 94.654 9.97566 95.13C10.0597 95.5967 10.1857 95.9747 10.3537 96.264C10.531 96.5533 10.755 96.7633 11.0257 96.894C11.3057 97.0153 11.637 97.076 12.0197 97.076Z" fill="white"/>
<path d="M4.368 45.154C3.21067 45.154 2.352 44.762 1.792 43.978C1.232 43.1847 0.952 42.0133 0.952 40.464C0.952 38.8027 1.26467 37.58 1.89 36.796C2.51533 36.0027 3.40667 35.606 4.564 35.606C4.984 35.606 5.418 35.634 5.866 35.69C6.314 35.746 6.74333 35.8113 7.154 35.886L7.042 36.824C6.16467 36.712 5.348 36.656 4.592 36.656C3.81733 36.656 3.22467 36.9173 2.814 37.44C2.40333 37.9627 2.198 38.7187 2.198 39.708C2.366 39.652 2.548 39.5913 2.744 39.526C2.94933 39.4607 3.15 39.4047 3.346 39.358C3.55133 39.3113 3.74733 39.274 3.934 39.246C4.12067 39.2087 4.284 39.19 4.424 39.19C6.496 39.19 7.532 40.1373 7.532 42.032C7.532 43.0493 7.252 43.824 6.692 44.356C6.14133 44.888 5.36667 45.154 4.368 45.154ZM4.242 44.104C4.92333 44.104 5.43667 43.936 5.782 43.6C6.12733 43.2547 6.3 42.76 6.3 42.116C6.3 41.4813 6.132 41.01 5.796 40.702C5.46933 40.3847 4.99333 40.226 4.368 40.226C4.21867 40.226 4.046 40.2447 3.85 40.282C3.66333 40.31 3.46733 40.3473 3.262 40.394C3.05667 40.4407 2.86067 40.4967 2.674 40.562C2.48733 40.6273 2.324 40.688 2.184 40.744C2.184 41.8173 2.352 42.648 2.688 43.236C3.03333 43.8147 3.55133 44.104 4.242 44.104ZM12.6486 45.14C12.0792 45.14 11.5799 45.056 11.1506 44.888C10.7212 44.7107 10.3666 44.4307 10.0866 44.048C9.80656 43.6653 9.59656 43.1753 9.45656 42.578C9.31656 41.9713 9.24656 41.234 9.24656 40.366C9.24656 39.5073 9.31656 38.7747 9.45656 38.168C9.59656 37.5613 9.80656 37.0667 10.0866 36.684C10.3666 36.3013 10.7166 36.026 11.1366 35.858C11.5566 35.6807 12.0512 35.592 12.6206 35.592C13.1899 35.592 13.6846 35.6807 14.1046 35.858C14.5339 36.0353 14.8886 36.3153 15.1686 36.698C15.4579 37.0807 15.6726 37.5753 15.8126 38.182C15.9526 38.7793 16.0226 39.5073 16.0226 40.366C16.0226 41.234 15.9526 41.9713 15.8126 42.578C15.6726 43.1753 15.4626 43.6653 15.1826 44.048C14.9026 44.4307 14.5479 44.7107 14.1186 44.888C13.6986 45.056 13.2086 45.14 12.6486 45.14ZM12.6486 44.076C13.0312 44.076 13.3579 44.0153 13.6286 43.894C13.8992 43.7633 14.1186 43.5533 14.2866 43.264C14.4639 42.9747 14.5899 42.5967 14.6646 42.13C14.7486 41.654 14.7906 41.066 14.7906 40.366C14.7906 39.666 14.7486 39.0827 14.6646 38.616C14.5899 38.14 14.4639 37.7573 14.2866 37.468C14.1186 37.1787 13.8992 36.9733 13.6286 36.852C13.3579 36.7213 13.0312 36.656 12.6486 36.656C12.2659 36.656 11.9346 36.7213 11.6546 36.852C11.3839 36.9733 11.1599 37.1787 10.9826 37.468C10.8146 37.7573 10.6886 38.14 10.6046 38.616C10.5206 39.0827 10.4786 39.666 10.4786 40.366C10.4786 41.066 10.5206 41.654 10.6046 42.13C10.6886 42.5967 10.8146 42.9747 10.9826 43.264C11.1599 43.5533 11.3839 43.7633 11.6546 43.894C11.9346 44.0153 12.2659 44.076 12.6486 44.076Z" fill="white"/>
<path d="M9.172 203.14C8.60267 203.14 8.10333 203.056 7.674 202.888C7.24467 202.711 6.89 202.431 6.61 202.048C6.33 201.665 6.12 201.175 5.98 200.578C5.84 199.971 5.77 199.234 5.77 198.366C5.77 197.507 5.84 196.775 5.98 196.168C6.12 195.561 6.33 195.067 6.61 194.684C6.89 194.301 7.24 194.026 7.66 193.858C8.08 193.681 8.57467 193.592 9.144 193.592C9.71333 193.592 10.208 193.681 10.628 193.858C11.0573 194.035 11.412 194.315 11.692 194.698C11.9813 195.081 12.196 195.575 12.336 196.182C12.476 196.779 12.546 197.507 12.546 198.366C12.546 199.234 12.476 199.971 12.336 200.578C12.196 201.175 11.986 201.665 11.706 202.048C11.426 202.431 11.0713 202.711 10.642 202.888C10.222 203.056 9.732 203.14 9.172 203.14ZM9.172 202.076C9.55467 202.076 9.88133 202.015 10.152 201.894C10.4227 201.763 10.642 201.553 10.81 201.264C10.9873 200.975 11.1133 200.597 11.188 200.13C11.272 199.654 11.314 199.066 11.314 198.366C11.314 197.666 11.272 197.083 11.188 196.616C11.1133 196.14 10.9873 195.757 10.81 195.468C10.642 195.179 10.4227 194.973 10.152 194.852C9.88133 194.721 9.55467 194.656 9.172 194.656C8.78933 194.656 8.458 194.721 8.178 194.852C7.90733 194.973 7.68333 195.179 7.506 195.468C7.338 195.757 7.212 196.14 7.128 196.616C7.044 197.083 7.002 197.666 7.002 198.366C7.002 199.066 7.044 199.654 7.128 200.13C7.212 200.597 7.338 200.975 7.506 201.264C7.68333 201.553 7.90733 201.763 8.178 201.894C8.458 202.015 8.78933 202.076 9.172 202.076Z" fill="white"/>
<path d="M12.12 6.032H13.16V6.576C13.96 6.10667 14.7813 5.872 15.624 5.872C16.5947 5.872 17.2667 6.13867 17.64 6.672C17.8533 6.544 18.088 6.432 18.344 6.336C18.6107 6.24 18.8773 6.16 19.144 6.096C19.4213 6.02133 19.688 5.968 19.944 5.936C20.2107 5.89333 20.4507 5.872 20.664 5.872C21.208 5.872 21.6453 5.984 21.976 6.208C22.3067 6.432 22.5627 6.72533 22.744 7.088C22.936 7.45067 23.0587 7.86667 23.112 8.336C23.176 8.80533 23.208 9.29067 23.208 9.792V14H22.152V9.824C22.152 9.45067 22.136 9.08267 22.104 8.72C22.0827 8.35733 22.0133 8.032 21.896 7.744C21.7787 7.456 21.5973 7.22667 21.352 7.056C21.1173 6.87467 20.7813 6.784 20.344 6.784C19.992 6.784 19.608 6.84267 19.192 6.96C18.7867 7.07733 18.3973 7.232 18.024 7.424C18.1733 7.65867 18.248 8.464 18.248 9.84V14H17.192V9.872C17.192 9.488 17.1813 9.10933 17.16 8.736C17.1387 8.36267 17.0747 8.032 16.968 7.744C16.872 7.456 16.712 7.22667 16.488 7.056C16.2747 6.87467 15.9707 6.784 15.576 6.784C15.4053 6.784 15.208 6.80533 14.984 6.848C14.7707 6.88 14.552 6.928 14.328 6.992C14.1147 7.04533 13.9067 7.10933 13.704 7.184C13.5013 7.25867 13.3253 7.33867 13.176 7.424V14H12.12V6.032ZM27.8519 14.144C27.5105 14.144 27.1265 14.128 26.6999 14.096C26.2732 14.0747 25.8572 14.0373 25.4519 13.984V2.464H26.5079V6.4C26.9452 6.21867 27.3612 6.08 27.7559 5.984C28.1612 5.888 28.5825 5.84 29.0199 5.84C29.5319 5.84 29.9639 5.91467 30.3159 6.064C30.6785 6.20267 30.9665 6.432 31.1799 6.752C31.4039 7.072 31.5639 7.49333 31.6599 8.016C31.7559 8.53867 31.8039 9.17867 31.8039 9.936C31.8039 10.6827 31.7345 11.3227 31.5959 11.856C31.4572 12.3893 31.2332 12.8267 30.9239 13.168C30.6145 13.4987 30.2039 13.744 29.6919 13.904C29.1905 14.064 28.5772 14.144 27.8519 14.144ZM28.1239 13.232C28.6252 13.232 29.0412 13.1733 29.3719 13.056C29.7132 12.928 29.9852 12.7307 30.1879 12.464C30.3905 12.1867 30.5345 11.84 30.6199 11.424C30.7052 10.9973 30.7479 10.4907 30.7479 9.904C30.7479 9.30667 30.7159 8.81067 30.6519 8.416C30.5879 8.01067 30.4812 7.68533 30.3319 7.44C30.1825 7.19467 29.9852 7.01867 29.7399 6.912C29.4945 6.80533 29.1905 6.752 28.8279 6.752C28.1772 6.752 27.4039 6.91733 26.5079 7.248V13.152C26.5932 13.152 26.7159 13.1573 26.8759 13.168C27.0465 13.1787 27.2119 13.1893 27.3719 13.2C27.5425 13.2 27.6972 13.2053 27.8359 13.216C27.9852 13.2267 28.0812 13.232 28.1239 13.232ZM33.0775 13.84L37.5895 2.688L38.5175 3.056L34.0215 14.16L33.0775 13.84ZM43.0283 14.16C42.5589 14.16 42.0896 14.128 41.6203 14.064C41.1509 14.0107 40.6869 13.9413 40.2283 13.856L40.2923 12.96C40.9003 13.0453 41.4336 13.1147 41.8923 13.168C42.3509 13.2213 42.7509 13.248 43.0923 13.248C43.7536 13.248 44.2443 13.136 44.5643 12.912C44.8843 12.688 45.0443 12.32 45.0443 11.808C45.0443 11.552 44.9643 11.3387 44.8043 11.168C44.6549 10.9867 44.4629 10.8373 44.2283 10.72C44.0043 10.6027 43.7589 10.512 43.4923 10.448C43.2256 10.384 42.9803 10.336 42.7563 10.304C42.2763 10.2187 41.8656 10.1227 41.5243 10.016C41.1936 9.89867 40.9216 9.76 40.7083 9.6C40.5056 9.42933 40.3563 9.22667 40.2603 8.992C40.1643 8.74667 40.1163 8.45867 40.1163 8.128C40.1163 7.31733 40.3723 6.736 40.8843 6.384C41.4069 6.032 42.1643 5.856 43.1562 5.856C43.5616 5.856 43.9989 5.88267 44.4683 5.936C44.9483 5.98933 45.4016 6.05867 45.8283 6.144L45.7963 7.04C45.3269 6.976 44.8629 6.91733 44.4043 6.864C43.9563 6.8 43.5296 6.768 43.1243 6.768C42.4416 6.768 41.9456 6.87467 41.6363 7.088C41.3269 7.30133 41.1723 7.616 41.1723 8.032C41.1723 8.40533 41.3163 8.69333 41.6043 8.896C41.8923 9.088 42.4096 9.25867 43.1562 9.408C43.4443 9.472 43.7589 9.552 44.1003 9.648C44.4416 9.73333 44.7616 9.86133 45.0603 10.032C45.3589 10.2027 45.6043 10.4213 45.7963 10.688C45.9989 10.9547 46.1003 11.2907 46.1003 11.696C46.1003 12.56 45.8496 13.1893 45.3483 13.584C44.8576 13.968 44.0843 14.16 43.0283 14.16Z" fill="white"/>
</svg>
