<svg width="507" height="44" viewBox="0 0 507 44" fill="none" xmlns="http://www.w3.org/2000/svg">
<path d="M2.99997 9.5C1.61926 9.5 0.499969 10.6193 0.499969 12C0.499969 13.3807 1.61926 14.5 2.99997 14.5V9.5ZM457 9.5L2.99997 9.5V14.5L457 14.5V9.5Z" fill="#D9D9D9"/>
<path d="M469.656 4.512H470.856V5.712H469.656V4.512ZM469.048 10.432L468.28 10.224L468.632 9.008C468.707 8.74133 468.829 8.51733 469 8.336C469.171 8.15467 469.357 8.016 469.56 7.92C469.773 7.824 469.992 7.76533 470.216 7.744C470.44 7.72267 470.648 7.744 470.84 7.808L476.52 9.52L476.248 10.32L475.4 10.064C475.251 10.0107 475.096 10.0107 474.936 10.064C474.776 10.1067 474.632 10.176 474.504 10.272V11.648C474.504 12.0213 474.632 12.336 474.888 12.592C475.144 12.8373 475.448 12.96 475.8 12.96H477.912C477.976 12.96 478.029 12.9813 478.072 13.024C478.125 13.0667 478.152 13.12 478.152 13.184V13.776C478.152 13.84 478.125 13.8933 478.072 13.936C478.029 13.9787 477.976 14 477.912 14H475.96C475.64 14 475.341 13.9413 475.064 13.824C474.797 13.696 474.563 13.5307 474.36 13.328C474.168 13.1147 474.013 12.864 473.896 12.576C473.789 12.288 473.736 11.984 473.736 11.664V10.832L470.504 13.216C470.163 13.472 469.891 13.7813 469.688 14.144C469.496 14.5173 469.405 14.9173 469.416 15.344C469.416 15.728 469.491 16.0907 469.64 16.432C469.789 16.7733 469.992 17.072 470.248 17.328C470.504 17.584 470.803 17.7867 471.144 17.936C471.485 18.0853 471.848 18.16 472.232 18.16H475.848V19.2H472.232C471.72 19.2 471.235 19.104 470.776 18.912C470.328 18.72 469.933 18.4533 469.592 18.112C469.261 17.7813 468.995 17.392 468.792 16.944C468.6 16.496 468.504 16.016 468.504 15.504C468.504 14.896 468.643 14.3307 468.92 13.808C469.197 13.2747 469.576 12.832 470.056 12.48C470.291 12.3093 470.568 12.1067 470.888 11.872C471.208 11.6373 471.533 11.3973 471.864 11.152C472.205 10.9067 472.531 10.672 472.84 10.448C473.149 10.2133 473.411 10.0213 473.624 9.872C473.677 9.82933 473.731 9.792 473.784 9.76C473.848 9.71733 473.912 9.68 473.976 9.648L470.456 8.608C470.243 8.544 470.029 8.58133 469.816 8.72C469.603 8.85867 469.464 9.03467 469.4 9.248L469.048 10.432ZM479.586 12.96C479.938 12.96 480.237 12.8373 480.482 12.592C480.738 12.336 480.866 12.032 480.866 11.68V8.864H481.746V11.68C481.746 12 481.682 12.304 481.554 12.592C481.437 12.8693 481.272 13.1147 481.058 13.328C480.856 13.5307 480.61 13.696 480.322 13.824C480.045 13.9413 479.746 14 479.426 14H477.906C477.757 14 477.682 13.9253 477.682 13.776V13.2C477.682 13.136 477.704 13.0827 477.746 13.04C477.789 12.9867 477.842 12.96 477.906 12.96H479.586ZM477.906 17.12H479.106V15.92H477.906V17.12ZM479.938 17.12H481.138V15.92H479.938V17.12ZM482.039 17.952L481.751 17.04L483.575 16.448C484.055 16.288 484.439 16.0053 484.727 15.6C485.015 15.1947 485.159 14.736 485.159 14.224V9.312H486.039V14.16C486.039 14.5227 485.985 14.8693 485.879 15.2C485.772 15.5413 485.617 15.8507 485.415 16.128C485.212 16.4053 484.967 16.6507 484.679 16.864C484.401 17.088 484.092 17.2587 483.751 17.376L482.039 17.952ZM491.777 13.776C491.777 13.9253 491.702 14 491.553 14H490.913C490.593 14 490.289 13.9413 490.001 13.824C489.723 13.696 489.478 13.5307 489.265 13.328C489.062 13.1147 488.897 12.8693 488.769 12.592C488.651 12.304 488.593 12 488.593 11.68V3.6H489.473V11.68C489.473 12.032 489.595 12.336 489.841 12.592C490.097 12.8373 490.401 12.96 490.753 12.96H491.553C491.617 12.96 491.67 12.9867 491.713 13.04C491.755 13.0827 491.777 13.136 491.777 13.2V13.776ZM493.227 12.96C493.579 12.96 493.878 12.8373 494.123 12.592C494.379 12.336 494.507 12.032 494.507 11.68V8.864H495.387V11.68C495.387 12 495.323 12.304 495.195 12.592C495.078 12.8693 494.912 13.1147 494.699 13.328C494.496 13.5307 494.251 13.696 493.963 13.824C493.686 13.9413 493.387 14 493.067 14H491.547C491.398 14 491.323 13.9253 491.323 13.776V13.2C491.323 13.136 491.344 13.0827 491.387 13.04C491.43 12.9867 491.483 12.96 491.547 12.96H493.227ZM492.139 6.848H493.339V5.648H492.139V6.848ZM494.171 6.848H495.371V5.648H494.171V6.848Z" fill="white"/>
<path d="M33.0419 40.486L32.7339 39.534L34.4419 38.974C34.8339 38.8433 35.1513 38.6053 35.3939 38.26C35.6459 37.9147 35.7719 37.532 35.7719 37.112V32.674H36.7239V37.028C36.7239 37.3547 36.6726 37.6673 36.5699 37.966C36.4766 38.274 36.3366 38.554 36.1499 38.806C35.9726 39.0673 35.7533 39.2913 35.4919 39.478C35.2399 39.674 34.9599 39.828 34.6519 39.94L33.0419 40.486ZM41.6843 36.804C41.6843 36.9347 41.619 37 41.4883 37H40.9703C40.681 37 40.4057 36.944 40.1443 36.832C39.883 36.72 39.6543 36.566 39.4583 36.37C39.2623 36.174 39.1083 35.9453 38.9963 35.684C38.8843 35.4227 38.8283 35.1473 38.8283 34.858V27.774H39.7943V34.844C39.7943 35.124 39.8923 35.362 40.0883 35.558C40.2937 35.754 40.5317 35.852 40.8023 35.852H41.4883C41.5443 35.852 41.591 35.8753 41.6283 35.922C41.6657 35.9593 41.6843 36.006 41.6843 36.062V36.804ZM42.7154 35.852V34.144C42.7154 33.8733 42.7667 33.6213 42.8694 33.388C42.9721 33.1453 43.1074 32.9353 43.2754 32.758C43.4527 32.5807 43.6581 32.4407 43.8914 32.338C44.1341 32.2353 44.3954 32.184 44.6754 32.184H45.2074C45.6461 32.184 46.0334 32.324 46.3694 32.604C46.7147 32.884 46.9294 33.2433 47.0134 33.682L47.2234 34.788C47.2794 35.068 47.2701 35.3433 47.1954 35.614C47.1301 35.8753 47.0134 36.1087 46.8454 36.314C46.6774 36.5193 46.4674 36.6873 46.2154 36.818C45.9727 36.9393 45.7067 37 45.4174 37H44.2414C44.1387 37 44.0407 36.9907 43.9474 36.972C43.8541 36.944 43.7607 36.916 43.6674 36.888C43.6767 36.888 43.6814 36.9347 43.6814 37.028C43.6814 37.476 43.7701 37.8167 43.9474 38.05C44.1247 38.2927 44.3954 38.4513 44.7594 38.526L46.0194 38.764L47.1534 37C47.6387 36.2347 48.3434 35.852 49.2674 35.852H49.4634C49.5941 35.852 49.6594 35.9173 49.6594 36.048V36.79C49.6594 36.846 49.6407 36.8973 49.6034 36.944C49.5661 36.9813 49.5194 37 49.4634 37H49.0294C48.7587 37 48.5254 37.056 48.3294 37.168C48.1427 37.2893 47.9701 37.4713 47.8114 37.714C47.7927 37.742 47.7461 37.812 47.6714 37.924C47.6061 38.036 47.5221 38.1667 47.4194 38.316C47.3261 38.4747 47.2234 38.638 47.1114 38.806C46.9994 38.974 46.8967 39.128 46.8034 39.268C46.7101 39.4173 46.6307 39.5433 46.5654 39.646C46.5001 39.7487 46.4627 39.8047 46.4534 39.814L44.3674 39.352C43.8447 39.24 43.4387 38.988 43.1494 38.596C42.8694 38.2133 42.7247 37.6813 42.7154 37H41.4834C41.4274 37 41.3807 36.9813 41.3434 36.944C41.3061 36.8973 41.2874 36.846 41.2874 36.79V36.048C41.2874 35.9173 41.3527 35.852 41.4834 35.852H42.7154ZM43.6814 34.13V35.852H45.5154C45.6367 35.852 45.7487 35.8287 45.8514 35.782C45.9541 35.726 46.0381 35.656 46.1034 35.572C46.1781 35.488 46.2294 35.39 46.2574 35.278C46.2947 35.166 46.3041 35.0493 46.2854 34.928L46.1034 33.976C46.0661 33.7613 45.9634 33.5887 45.7954 33.458C45.6367 33.318 45.4501 33.248 45.2354 33.248H44.5494C44.3067 33.248 44.1014 33.3367 43.9334 33.514C43.7654 33.682 43.6814 33.8873 43.6814 34.13ZM50.8818 35.852C51.1618 35.852 51.3998 35.754 51.5958 35.558C51.7918 35.3527 51.8898 35.1147 51.8898 34.844V32.282H52.8558V34.858C52.8558 35.1567 52.7998 35.4367 52.6878 35.698C52.5758 35.9593 52.4218 36.188 52.2258 36.384C52.0298 36.5707 51.8011 36.72 51.5398 36.832C51.2878 36.944 51.0124 37 50.7138 37H49.4678C49.3371 37 49.2718 36.9347 49.2718 36.804V36.062C49.2718 36.006 49.2904 35.9593 49.3278 35.922C49.3651 35.8753 49.4118 35.852 49.4678 35.852H50.8818ZM49.7338 39.87H50.9238V38.68H49.7338V39.87Z" fill="white"/>
<path d="M146.199 39.45C145.807 39.45 145.438 39.3753 145.093 39.226C144.757 39.086 144.463 38.89 144.211 38.638C143.959 38.386 143.758 38.0873 143.609 37.742C143.469 37.406 143.399 37.042 143.399 36.65V32.912H144.365V36.496C144.365 36.748 144.412 36.9813 144.505 37.196C144.598 37.42 144.724 37.6113 144.883 37.77C145.051 37.938 145.247 38.0687 145.471 38.162C145.695 38.2553 145.933 38.302 146.185 38.302H148.607C148.822 38.302 149.022 38.26 149.209 38.176C149.396 38.1013 149.559 37.994 149.699 37.854C149.839 37.7233 149.946 37.5647 150.021 37.378C150.105 37.2007 150.147 37.0047 150.147 36.79V32.674H151.113V36.958C151.113 37.3033 151.048 37.6253 150.917 37.924C150.786 38.232 150.604 38.498 150.371 38.722C150.147 38.946 149.881 39.1233 149.573 39.254C149.274 39.3847 148.952 39.45 148.607 39.45H146.199ZM146.661 31.47H147.851V32.66H146.661V31.47ZM155.921 36.804C155.921 36.9347 155.855 37 155.725 37H155.207C154.917 37 154.642 36.944 154.381 36.832C154.119 36.72 153.891 36.566 153.695 36.37C153.499 36.174 153.345 35.9453 153.233 35.684C153.121 35.4227 153.065 35.1473 153.065 34.858V27.774H154.031V34.844C154.031 35.124 154.129 35.362 154.325 35.558C154.53 35.754 154.768 35.852 155.039 35.852H155.725C155.781 35.852 155.827 35.8753 155.865 35.922C155.902 35.9593 155.921 36.006 155.921 36.062V36.804ZM156.616 31.092H157.806V29.902H156.616V31.092ZM158.534 31.092H159.724V29.902H158.534V31.092ZM160.76 36.804C160.76 36.9347 160.694 37 160.564 37H159.696C159.537 37 159.378 36.9767 159.22 36.93C159.061 36.8833 158.912 36.818 158.772 36.734C158.632 36.65 158.51 36.552 158.408 36.44C158.305 36.328 158.235 36.2067 158.198 36.076C158.039 36.3467 157.81 36.5707 157.512 36.748C157.222 36.916 156.914 37 156.588 37H155.72C155.589 37 155.524 36.9347 155.524 36.804V36.062C155.524 36.006 155.542 35.9593 155.58 35.922C155.617 35.8753 155.664 35.852 155.72 35.852H156.63C156.9 35.852 157.134 35.768 157.33 35.6C157.535 35.432 157.666 35.222 157.722 34.97L158.156 32.758L159.108 32.912L158.744 34.76C158.716 34.9 158.72 35.04 158.758 35.18C158.795 35.3107 158.86 35.4273 158.954 35.53C159.047 35.6233 159.159 35.7027 159.29 35.768C159.42 35.824 159.56 35.852 159.71 35.852H160.564C160.62 35.852 160.666 35.8753 160.704 35.922C160.741 35.9593 160.76 36.006 160.76 36.062V36.804ZM164.312 37C163.966 37 163.649 36.9253 163.36 36.776C163.07 36.6173 162.828 36.384 162.632 36.076C162.436 36.384 162.193 36.6173 161.904 36.776C161.614 36.9253 161.297 37 160.952 37H160.56C160.504 37 160.457 36.9813 160.42 36.944C160.382 36.8973 160.364 36.8507 160.364 36.804V36.048C160.364 35.992 160.387 35.9453 160.434 35.908C160.471 35.8707 160.513 35.852 160.56 35.852H161.12C161.4 35.852 161.638 35.754 161.834 35.558C162.039 35.362 162.142 35.124 162.142 34.844V32.66H163.108V34.872C163.108 35.1427 163.206 35.376 163.402 35.572C163.607 35.7587 163.845 35.852 164.116 35.852H164.368C164.638 35.852 164.876 35.7727 165.082 35.614C165.296 35.446 165.427 35.2267 165.474 34.956L165.894 32.758L166.86 32.912L166.482 34.76C166.454 34.9093 166.458 35.0493 166.496 35.18C166.542 35.3107 166.612 35.4273 166.706 35.53C166.799 35.6233 166.911 35.7027 167.042 35.768C167.182 35.824 167.336 35.852 167.504 35.852H167.644C167.924 35.852 168.162 35.754 168.358 35.558C168.554 35.362 168.652 35.124 168.652 34.844V32.254H169.618V34.914C169.636 35.1847 169.744 35.4087 169.94 35.586C170.136 35.7633 170.369 35.852 170.64 35.852H171.2C171.246 35.852 171.288 35.8707 171.326 35.908C171.372 35.9453 171.396 35.992 171.396 36.048V36.804C171.396 36.8507 171.377 36.8973 171.34 36.944C171.302 36.9813 171.256 37 171.2 37H170.808C170.462 37 170.145 36.9253 169.856 36.776C169.566 36.6173 169.328 36.384 169.142 36.076C168.946 36.384 168.698 36.6173 168.4 36.776C168.11 36.9253 167.798 37 167.462 37C167.144 37 166.846 36.93 166.566 36.79C166.295 36.6407 166.085 36.4027 165.936 36.076C165.749 36.3933 165.511 36.6267 165.222 36.776C164.932 36.9253 164.629 37 164.312 37ZM172.61 35.852C172.89 35.852 173.128 35.754 173.324 35.558C173.52 35.3527 173.618 35.1147 173.618 34.844V32.282H174.584V34.858C174.584 35.1567 174.528 35.4367 174.416 35.698C174.304 35.9593 174.15 36.188 173.954 36.384C173.758 36.5707 173.53 36.72 173.268 36.832C173.016 36.944 172.741 37 172.442 37H171.196C171.066 37 171 36.9347 171 36.804V36.062C171 36.006 171.019 35.9593 171.056 35.922C171.094 35.8753 171.14 35.852 171.196 35.852H172.61ZM171.462 39.87H172.652V38.68H171.462V39.87ZM179.341 36.804C179.341 36.9347 179.275 37 179.145 37H178.627C178.337 37 178.062 36.944 177.801 36.832C177.539 36.72 177.311 36.566 177.115 36.37C176.919 36.174 176.765 35.9453 176.653 35.684C176.541 35.4227 176.485 35.1473 176.485 34.858V27.774H177.451V34.844C177.451 35.124 177.549 35.362 177.745 35.558C177.95 35.754 178.188 35.852 178.459 35.852H179.145C179.201 35.852 179.247 35.8753 179.285 35.922C179.322 35.9593 179.341 36.006 179.341 36.062V36.804ZM180.834 35.852C181.114 35.852 181.352 35.754 181.548 35.558C181.744 35.362 181.842 35.1287 181.842 34.858V32.282H182.808V34.858C182.808 35.1567 182.752 35.4367 182.64 35.698C182.528 35.9593 182.374 36.188 182.178 36.384C181.982 36.5707 181.753 36.72 181.492 36.832C181.24 36.944 180.964 37 180.666 37H179.14C179.009 37 178.944 36.9347 178.944 36.804V36.062C178.944 36.006 178.962 35.9593 179 35.922C179.037 35.8753 179.084 35.852 179.14 35.852H180.834ZM179.686 30.644H180.876V29.454H179.686V30.644ZM181.604 30.644H182.794V29.454H181.604V30.644Z" fill="white"/>
<path d="M275.529 32.688V34.886C275.529 35.1567 275.627 35.3853 275.823 35.572C276.028 35.7587 276.266 35.852 276.537 35.852H277.993C278.049 35.852 278.096 35.8753 278.133 35.922C278.17 35.9593 278.189 36.006 278.189 36.062V36.804C278.189 36.9347 278.124 37 277.993 37H276.705C276.481 37 276.262 36.9533 276.047 36.86C275.832 36.7667 275.66 36.6267 275.529 36.44V37.056C275.529 37.3827 275.478 37.6953 275.375 37.994C275.272 38.302 275.128 38.582 274.941 38.834C274.764 39.086 274.544 39.3053 274.283 39.492C274.022 39.688 273.737 39.8373 273.429 39.94L271.833 40.5L271.525 39.534L273.219 38.974C273.63 38.8433 273.956 38.6053 274.199 38.26C274.442 37.9147 274.563 37.532 274.563 37.112V32.688H275.529ZM274.437 29.846H275.627V31.036H274.437V29.846ZM278.887 39.87H280.077V38.68H278.887V39.87ZM280.805 39.87H281.995V38.68H280.805V39.87ZM283.031 36.804C283.031 36.9347 282.966 37 282.835 37H281.967C281.809 37 281.65 36.9767 281.491 36.93C281.333 36.8833 281.183 36.818 281.043 36.734C280.903 36.65 280.782 36.552 280.679 36.44C280.577 36.328 280.507 36.2067 280.469 36.076C280.311 36.3467 280.082 36.5707 279.783 36.748C279.494 36.916 279.186 37 278.859 37H277.991C277.861 37 277.795 36.9347 277.795 36.804V36.062C277.795 36.006 277.814 35.9593 277.851 35.922C277.889 35.8753 277.935 35.852 277.991 35.852H278.901C279.172 35.852 279.405 35.768 279.601 35.6C279.807 35.432 279.937 35.222 279.993 34.97L280.427 32.758L281.379 32.912L281.015 34.76C280.987 34.9 280.992 35.04 281.029 35.18C281.067 35.3107 281.132 35.4273 281.225 35.53C281.319 35.6233 281.431 35.7027 281.561 35.768C281.692 35.824 281.832 35.852 281.981 35.852H282.835C282.891 35.852 282.938 35.8753 282.975 35.922C283.013 35.9593 283.031 36.006 283.031 36.062V36.804ZM284.525 35.852C284.805 35.852 285.043 35.754 285.239 35.558C285.435 35.362 285.533 35.1287 285.533 34.858V32.282H286.499V34.858C286.499 35.1567 286.443 35.4367 286.331 35.698C286.219 35.9593 286.065 36.188 285.869 36.384C285.673 36.5707 285.444 36.72 285.183 36.832C284.931 36.944 284.656 37 284.357 37H282.831C282.7 37 282.635 36.9347 282.635 36.804V36.062C282.635 36.006 282.654 35.9593 282.691 35.922C282.728 35.8753 282.775 35.852 282.831 35.852H284.525ZM282.887 39.87H284.077V38.68H282.887V39.87ZM284.805 39.87H285.995V38.68H284.805V39.87ZM291.454 36.804C291.454 36.9347 291.389 37 291.258 37H290.74C290.451 37 290.175 36.944 289.914 36.832C289.653 36.72 289.424 36.566 289.228 36.37C289.032 36.174 288.878 35.9453 288.766 35.684C288.654 35.4227 288.598 35.1473 288.598 34.858V27.774H289.564V34.844C289.564 35.124 289.662 35.362 289.858 35.558C290.063 35.754 290.301 35.852 290.572 35.852H291.258C291.314 35.852 291.361 35.8753 291.398 35.922C291.435 35.9593 291.454 36.006 291.454 36.062V36.804ZM292.947 35.852C293.227 35.852 293.465 35.754 293.661 35.558C293.857 35.362 293.955 35.1287 293.955 34.858V32.282H294.921V34.858C294.921 35.1567 294.865 35.4367 294.753 35.698C294.641 35.9593 294.487 36.188 294.291 36.384C294.095 36.5707 293.866 36.72 293.605 36.832C293.353 36.944 293.078 37 292.779 37H291.253C291.122 37 291.057 36.9347 291.057 36.804V36.062C291.057 36.006 291.076 35.9593 291.113 35.922C291.15 35.8753 291.197 35.852 291.253 35.852H292.947ZM291.365 39.87H292.555V38.68H291.365V39.87ZM293.283 39.87H294.473V38.68H293.283V39.87ZM292.345 41.578H293.535V40.388H292.345V41.578Z" fill="white"/>
<path d="M388.163 39.45C387.771 39.45 387.402 39.3753 387.057 39.226C386.721 39.086 386.427 38.89 386.175 38.638C385.923 38.386 385.722 38.0873 385.573 37.742C385.433 37.406 385.363 37.042 385.363 36.65V32.912H386.329V36.496C386.329 36.748 386.375 36.9813 386.469 37.196C386.562 37.42 386.688 37.6113 386.847 37.77C387.015 37.938 387.211 38.0687 387.435 38.162C387.659 38.2553 387.897 38.302 388.149 38.302H390.571C390.785 38.302 390.986 38.26 391.173 38.176C391.359 38.1013 391.523 37.994 391.663 37.854C391.803 37.7233 391.91 37.5647 391.985 37.378C392.069 37.2007 392.111 37.0047 392.111 36.79V32.674H393.077V36.958C393.077 37.3033 393.011 37.6253 392.881 37.924C392.75 38.232 392.568 38.498 392.335 38.722C392.111 38.946 391.845 39.1233 391.537 39.254C391.238 39.3847 390.916 39.45 390.571 39.45H388.163ZM388.625 31.47H389.815V32.66H388.625V31.47ZM397.885 36.804C397.885 36.9347 397.819 37 397.689 37H397.171C396.881 37 396.606 36.944 396.345 36.832C396.083 36.72 395.855 36.566 395.659 36.37C395.463 36.174 395.309 35.9453 395.197 35.684C395.085 35.4227 395.029 35.1473 395.029 34.858V27.774H395.995V34.844C395.995 35.124 396.093 35.362 396.289 35.558C396.494 35.754 396.732 35.852 397.003 35.852H397.689C397.745 35.852 397.791 35.8753 397.829 35.922C397.866 35.9593 397.885 36.006 397.885 36.062V36.804ZM398.58 31.092H399.77V29.902H398.58V31.092ZM400.498 31.092H401.688V29.902H400.498V31.092ZM402.724 36.804C402.724 36.9347 402.658 37 402.528 37H401.66C401.501 37 401.342 36.9767 401.184 36.93C401.025 36.8833 400.876 36.818 400.736 36.734C400.596 36.65 400.474 36.552 400.372 36.44C400.269 36.328 400.199 36.2067 400.162 36.076C400.003 36.3467 399.774 36.5707 399.476 36.748C399.186 36.916 398.878 37 398.552 37H397.684C397.553 37 397.488 36.9347 397.488 36.804V36.062C397.488 36.006 397.506 35.9593 397.544 35.922C397.581 35.8753 397.628 35.852 397.684 35.852H398.594C398.864 35.852 399.098 35.768 399.294 35.6C399.499 35.432 399.63 35.222 399.686 34.97L400.12 32.758L401.072 32.912L400.708 34.76C400.68 34.9 400.684 35.04 400.722 35.18C400.759 35.3107 400.824 35.4273 400.918 35.53C401.011 35.6233 401.123 35.7027 401.254 35.768C401.384 35.824 401.524 35.852 401.674 35.852H402.528C402.584 35.852 402.63 35.8753 402.668 35.922C402.705 35.9593 402.724 36.006 402.724 36.062V36.804ZM406.275 37C405.93 37 405.613 36.9253 405.323 36.776C405.034 36.6173 404.791 36.384 404.595 36.076C404.399 36.384 404.157 36.6173 403.867 36.776C403.578 36.9253 403.261 37 402.915 37H402.523C402.467 37 402.421 36.9813 402.383 36.944C402.346 36.8973 402.327 36.8507 402.327 36.804V36.048C402.327 35.992 402.351 35.9453 402.397 35.908C402.435 35.8707 402.477 35.852 402.523 35.852H403.083C403.363 35.852 403.601 35.754 403.797 35.558C404.003 35.362 404.105 35.124 404.105 34.844V32.66H405.071V34.872C405.071 35.1427 405.169 35.376 405.365 35.572C405.571 35.7587 405.809 35.852 406.079 35.852H406.331C406.602 35.852 406.84 35.7727 407.045 35.614C407.26 35.446 407.391 35.2267 407.437 34.956L407.857 32.758L408.823 32.912L408.445 34.76C408.417 34.9093 408.422 35.0493 408.459 35.18C408.506 35.3107 408.576 35.4273 408.669 35.53C408.763 35.6233 408.875 35.7027 409.005 35.768C409.145 35.824 409.299 35.852 409.467 35.852H409.607C409.887 35.852 410.125 35.754 410.321 35.558C410.517 35.362 410.615 35.124 410.615 34.844V32.254H411.581V34.914C411.6 35.1847 411.707 35.4087 411.903 35.586C412.099 35.7633 412.333 35.852 412.603 35.852H413.163C413.21 35.852 413.252 35.8707 413.289 35.908C413.336 35.9453 413.359 35.992 413.359 36.048V36.804C413.359 36.8507 413.341 36.8973 413.303 36.944C413.266 36.9813 413.219 37 413.163 37H412.771C412.426 37 412.109 36.9253 411.819 36.776C411.53 36.6173 411.292 36.384 411.105 36.076C410.909 36.384 410.662 36.6173 410.363 36.776C410.074 36.9253 409.761 37 409.425 37C409.108 37 408.809 36.93 408.529 36.79C408.259 36.6407 408.049 36.4027 407.899 36.076C407.713 36.3933 407.475 36.6267 407.185 36.776C406.896 36.9253 406.593 37 406.275 37ZM416.436 35.852H418.564V33.976C418.564 33.7333 418.475 33.528 418.298 33.36C418.13 33.1827 417.92 33.094 417.668 33.094H416.758C416.543 33.094 416.357 33.164 416.198 33.304C416.039 33.4347 415.937 33.6027 415.89 33.808L415.68 34.942C415.633 35.1847 415.685 35.3993 415.834 35.586C415.993 35.7633 416.193 35.852 416.436 35.852ZM414.686 34.97L414.98 33.528C415.017 33.3133 415.092 33.1127 415.204 32.926C415.316 32.7393 415.451 32.5807 415.61 32.45C415.769 32.3193 415.946 32.2167 416.142 32.142C416.347 32.0673 416.562 32.03 416.786 32.03H417.57C417.841 32.03 418.093 32.0813 418.326 32.184C418.569 32.2867 418.779 32.4267 418.956 32.604C419.133 32.7813 419.273 32.9867 419.376 33.22C419.479 33.4533 419.53 33.7053 419.53 33.976V35.74C419.53 36.1133 419.413 36.4167 419.18 36.65C418.956 36.8833 418.648 37 418.256 37H416.548C416.249 37 415.974 36.93 415.722 36.79C415.479 36.6407 415.279 36.4027 415.12 36.076C414.952 36.4027 414.728 36.6407 414.448 36.79C414.168 36.93 413.874 37 413.566 37H413.16C413.029 37 412.964 36.9347 412.964 36.804V36.048C412.964 36.0013 412.983 35.9593 413.02 35.922C413.057 35.8753 413.104 35.852 413.16 35.852H413.608C413.879 35.852 414.112 35.768 414.308 35.6C414.513 35.432 414.639 35.222 414.686 34.97ZM418.855 40.486L418.547 39.534L420.241 38.974C420.643 38.8433 420.965 38.6053 421.207 38.26C421.459 37.9147 421.585 37.532 421.585 37.112V32.688H422.551V37.028C422.551 37.3547 422.5 37.672 422.397 37.98C422.295 38.288 422.15 38.568 421.963 38.82C421.786 39.072 421.567 39.296 421.305 39.492C421.053 39.688 420.773 39.8373 420.465 39.94L418.855 40.486ZM421.459 29.846H422.649V31.036H421.459V29.846Z" fill="white"/>
</svg>
