<svg width="20" height="20" viewBox="0 0 20 20" fill="none" xmlns="http://www.w3.org/2000/svg">
<path fill-rule="evenodd" clip-rule="evenodd" d="M0 10C0 14.714 0 17.071 1.464 18.536C2.93 20 5.286 20 10 20C14.714 20 17.071 20 18.535 18.536C20 17.07 20 14.714 20 10C20 5.286 20 2.929 18.535 1.465C17.072 1.19209e-07 14.714 0 10 0C5.286 0 2.929 1.19209e-07 1.464 1.465C0 2.928 0 5.286 0 10ZM10 15.75C10.1989 15.75 10.3897 15.671 10.5303 15.5303C10.671 15.3897 10.75 15.1989 10.75 15V9.81L12.47 11.53C12.5387 11.6037 12.6215 11.6628 12.7135 11.7038C12.8055 11.7448 12.9048 11.7668 13.0055 11.7686C13.1062 11.7704 13.2062 11.7518 13.2996 11.7141C13.393 11.6764 13.4778 11.6203 13.549 11.549C13.6203 11.4778 13.6764 11.393 13.7141 11.2996C13.7518 11.2062 13.7704 11.1062 13.7686 11.0055C13.7668 10.9048 13.7448 10.8055 13.7038 10.7135C13.6628 10.6215 13.6037 10.5387 13.53 10.47L10.53 7.47C10.3894 7.32955 10.1988 7.25066 10 7.25066C9.80125 7.25066 9.61063 7.32955 9.47 7.47L6.47 10.47C6.39631 10.5387 6.33721 10.6215 6.29622 10.7135C6.25523 10.8055 6.23318 10.9048 6.23141 11.0055C6.22963 11.1062 6.24816 11.2062 6.28588 11.2996C6.3236 11.393 6.37974 11.4778 6.45096 11.549C6.52218 11.6203 6.60701 11.6764 6.7004 11.7141C6.79379 11.7518 6.89382 11.7704 6.99452 11.7686C7.09522 11.7668 7.19454 11.7448 7.28654 11.7038C7.37854 11.6628 7.46134 11.6037 7.53 11.53L9.25 9.81V15C9.25 15.1989 9.32902 15.3897 9.46967 15.5303C9.61032 15.671 9.80109 15.75 10 15.75ZM6 5.75C5.80109 5.75 5.61032 5.67098 5.46967 5.53033C5.32902 5.38968 5.25 5.19891 5.25 5C5.25 4.80109 5.32902 4.61032 5.46967 4.46967C5.61032 4.32902 5.80109 4.25 6 4.25H14C14.1989 4.25 14.3897 4.32902 14.5303 4.46967C14.671 4.61032 14.75 4.80109 14.75 5C14.75 5.19891 14.671 5.38968 14.5303 5.53033C14.3897 5.67098 14.1989 5.75 14 5.75H6Z" fill="#126AED"/>
</svg>
