<svg width="53" height="53" viewBox="0 0 53 53" fill="none" xmlns="http://www.w3.org/2000/svg">
<path fill-rule="evenodd" clip-rule="evenodd" d="M0.381836 26.5093C0.381836 38.7128 0.381836 44.8145 4.17179 48.607C7.96691 52.397 14.066 52.397 26.2695 52.397C38.4729 52.397 44.5746 52.397 48.3646 48.607C52.1571 44.8119 52.1571 38.7128 52.1571 26.5093C52.1571 14.3059 52.1571 8.20419 48.3646 4.41423C44.5772 0.621693 38.4729 0.621693 26.2695 0.621693C14.066 0.621693 7.96433 0.621693 4.17179 4.41423C0.381836 8.2016 0.381836 14.3059 0.381836 26.5093ZM26.2695 41.3947C26.7844 41.3947 27.2783 41.1902 27.6424 40.8261C28.0065 40.4619 28.211 39.9681 28.211 39.4532V26.0175L32.6637 30.4701C32.8415 30.6609 33.0558 30.8139 33.294 30.92C33.5322 31.0261 33.7893 31.0832 34.0499 31.0878C34.3106 31.0924 34.5696 31.0444 34.8114 30.9468C35.0531 30.8491 35.2727 30.7038 35.4571 30.5194C35.6415 30.3351 35.7868 30.1154 35.8845 29.8737C35.9821 29.6319 36.0301 29.373 36.0255 29.1123C36.0209 28.8516 35.9638 28.5945 35.8577 28.3563C35.7516 28.1182 35.5986 27.9038 35.4078 27.7261L27.6415 19.9598C27.2775 19.5962 26.784 19.3919 26.2695 19.3919C25.755 19.3919 25.2615 19.5962 24.8974 19.9598L17.1311 27.7261C16.9404 27.9038 16.7874 28.1182 16.6813 28.3563C16.5751 28.5945 16.5181 28.8516 16.5135 29.1123C16.5089 29.373 16.5568 29.6319 16.6545 29.8737C16.7521 30.1154 16.8975 30.3351 17.0819 30.5194C17.2662 30.7038 17.4858 30.8491 17.7276 30.9468C17.9694 31.0444 18.2283 31.0924 18.489 31.0878C18.7497 31.0832 19.0068 31.0261 19.245 30.92C19.4831 30.8139 19.6975 30.6609 19.8752 30.4701L24.3279 26.0175V39.4532C24.3279 39.9681 24.5325 40.4619 24.8966 40.8261C25.2607 41.1902 25.7545 41.3947 26.2695 41.3947ZM15.9144 15.5071C15.3995 15.5071 14.9056 15.3025 14.5415 14.9384C14.1774 14.5743 13.9728 14.0805 13.9728 13.5655C13.9728 13.0506 14.1774 12.5567 14.5415 12.1926C14.9056 11.8285 15.3995 11.6239 15.9144 11.6239H36.6245C37.1395 11.6239 37.6333 11.8285 37.9974 12.1926C38.3615 12.5567 38.5661 13.0506 38.5661 13.5655C38.5661 14.0805 38.3615 14.5743 37.9974 14.9384C37.6333 15.3025 37.1395 15.5071 36.6245 15.5071H15.9144Z" fill="#126AED"/>
</svg>
