<svg width="33" height="32" viewBox="0 0 33 32" fill="none" xmlns="http://www.w3.org/2000/svg">
<path id="Vector" opacity="0.5" fill-rule="evenodd" clip-rule="evenodd" d="M0.890625 15.7252C0.890625 23.1074 0.890625 26.7984 3.18325 29.0926C5.47901 31.3853 9.16851 31.3853 16.5507 31.3853C23.9328 31.3853 27.6239 31.3853 29.9165 29.0926C32.2107 26.7969 32.2107 23.1074 32.2107 15.7252C32.2107 8.34309 32.2107 4.65202 29.9165 2.3594C27.6254 0.0652027 23.9328 0.0652008 16.5507 0.0652008C9.16851 0.0652008 5.47745 0.0652027 3.18325 2.3594C0.890625 4.65046 0.890625 8.34309 0.890625 15.7252ZM16.5507 24.7297C16.8621 24.7297 17.1609 24.606 17.3811 24.3857C17.6014 24.1655 17.7252 23.8667 17.7252 23.5552V15.4277L20.4187 18.1212C20.5262 18.2366 20.6559 18.3292 20.7999 18.3934C20.944 18.4575 21.0995 18.4921 21.2572 18.4948C21.4149 18.4976 21.5716 18.4686 21.7178 18.4095C21.8641 18.3505 21.9969 18.2626 22.1085 18.151C22.22 18.0395 22.3079 17.9066 22.367 17.7604C22.426 17.6142 22.4551 17.4575 22.4523 17.2998C22.4495 17.1421 22.415 16.9866 22.3508 16.8425C22.2866 16.6984 22.194 16.5688 22.0786 16.4612L17.3806 11.7632C17.1604 11.5433 16.8619 11.4198 16.5507 11.4198C16.2394 11.4198 15.9409 11.5433 15.7207 11.7632L11.0227 16.4612C10.9073 16.5688 10.8147 16.6984 10.7505 16.8425C10.6863 16.9866 10.6518 17.1421 10.649 17.2998C10.6462 17.4575 10.6753 17.6142 10.7343 17.7604C10.7934 17.9066 10.8813 18.0395 10.9928 18.151C11.1044 18.2626 11.2372 18.3505 11.3835 18.4095C11.5297 18.4686 11.6864 18.4976 11.8441 18.4948C12.0018 18.4921 12.1573 18.4575 12.3014 18.3934C12.4454 18.3292 12.5751 18.2366 12.6826 18.1212L15.3761 15.4277V23.5552C15.3761 23.8667 15.4999 24.1655 15.7202 24.3857C15.9404 24.606 16.2392 24.7297 16.5507 24.7297ZM10.2866 9.06972C9.97514 9.06972 9.6764 8.94598 9.45614 8.72571C9.23588 8.50545 9.11214 8.20671 9.11214 7.89521C9.11214 7.58372 9.23588 7.28498 9.45614 7.06472C9.6764 6.84445 9.97514 6.72071 10.2866 6.72071H22.8147C23.1262 6.72071 23.4249 6.84445 23.6452 7.06472C23.8654 7.28498 23.9892 7.58372 23.9892 7.89521C23.9892 8.20671 23.8654 8.50545 23.6452 8.72571C23.4249 8.94598 23.1262 9.06972 22.8147 9.06972H10.2866Z" fill="#126AED"/>
</svg>
