<svg width="32" height="32" viewBox="0 0 32 32" fill="none" xmlns="http://www.w3.org/2000/svg">
<path d="M7.6 5.794C8.692 6.7894 10.9432 9.5082 11.205 12.4258C11.45 15.1544 13.249 17.372 16 17.4C17.057 17.4112 18.1252 16.6482 18.1224 15.5912C18.1224 15.265 18.0678 14.9304 17.9838 14.6224C17.8443 14.1503 17.8858 13.6432 18.1 13.2C18.954 11.4402 20.634 10.967 21.964 10.0108C22.5534 9.5866 23.0924 9.1386 23.329 8.7788C23.9856 7.7848 24.6408 5.7954 24.3132 4.8M30 17.4C29.538 18.7034 29.2118 22.125 24.0052 22.1796C24.0052 22.1796 19.395 22.1796 18.0118 24.7864C16.9044 26.8724 17.5498 29.1306 18.0118 30M30 16C30 23.732 23.732 30 16 30C8.26801 30 2 23.732 2 16C2 8.26801 8.26801 2 16 2C23.732 2 30 8.26801 30 16Z" stroke="#126AED" stroke-width="2.5"/>
</svg>
