<svg width="861" height="48" viewBox="0 0 861 48" fill="none" xmlns="http://www.w3.org/2000/svg">
<path d="M3 7.5C1.61929 7.5 0.5 8.61929 0.5 10C0.5 11.3807 1.61929 12.5 3 12.5V7.5ZM812 7.5L3 7.5V12.5L812 12.5V7.5Z" fill="#D9D9D9"/>
<path d="M825.74 13.46L824.52 13.14L824.98 11.54C825.087 11.1933 825.247 10.9 825.46 10.66C825.673 10.42 825.92 10.2333 826.2 10.1C826.48 9.96667 826.773 9.88667 827.08 9.86C827.387 9.83333 827.673 9.86 827.94 9.94L835.2 12.12L834.78 13.36L833.66 13.1C833.487 13.0467 833.307 13.04 833.12 13.08C832.947 13.12 832.787 13.1933 832.64 13.3V14.9C832.64 15.3133 832.78 15.66 833.06 15.94C833.353 16.22 833.7 16.36 834.1 16.36H836.74C836.94 16.36 837.04 16.4533 837.04 16.64V17.72C837.04 17.7867 837.007 17.8533 836.94 17.92C836.887 17.9733 836.82 18 836.74 18H834.34C833.927 18 833.54 17.92 833.18 17.76C832.82 17.6 832.507 17.3867 832.24 17.12C831.987 16.84 831.787 16.5133 831.64 16.14C831.493 15.7667 831.42 15.3733 831.42 14.96V14.14L827.56 16.98C827.147 17.2867 826.827 17.66 826.6 18.1C826.373 18.54 826.26 19.02 826.26 19.54C826.26 19.9933 826.347 20.42 826.52 20.82C826.707 21.2333 826.953 21.5867 827.26 21.88C827.567 22.1867 827.92 22.4267 828.32 22.6C828.733 22.7733 829.167 22.86 829.62 22.86H834.32V24.5H829.62C828.967 24.5 828.347 24.3733 827.76 24.12C827.173 23.8667 826.66 23.52 826.22 23.08C825.793 22.6533 825.447 22.1467 825.18 21.56C824.927 20.9867 824.8 20.3733 824.8 19.72C824.8 18.9467 824.973 18.2333 825.32 17.58C825.667 16.9133 826.14 16.36 826.74 15.92C827.02 15.72 827.353 15.48 827.74 15.2C828.14 14.9067 828.54 14.6133 828.94 14.32C829.353 14.0133 829.747 13.7267 830.12 13.46C830.507 13.18 830.827 12.9467 831.08 12.76C831.147 12.7067 831.227 12.6533 831.32 12.6C831.413 12.5333 831.5 12.4733 831.58 12.42L827.36 11.18C827.133 11.1133 826.907 11.1533 826.68 11.3C826.453 11.4333 826.307 11.62 826.24 11.86L825.74 13.46ZM826.24 5.78H827.94V7.48H826.24V5.78ZM839.15 16.36C839.55 16.36 839.89 16.22 840.17 15.94C840.45 15.66 840.59 15.3267 840.59 14.94V11.26H841.97V14.94C841.97 15.3667 841.89 15.7667 841.73 16.14C841.57 16.5133 841.35 16.84 841.07 17.12C840.79 17.3867 840.464 17.6 840.09 17.76C839.73 17.92 839.337 18 838.91 18H836.73C836.544 18 836.45 17.9067 836.45 17.72V16.66C836.45 16.58 836.477 16.5133 836.53 16.46C836.584 16.3933 836.65 16.36 836.73 16.36H839.15ZM836.81 22.1H838.51V20.4H836.81V22.1ZM839.55 22.1H841.25V20.4H839.55V22.1ZM842.308 22.98L841.868 21.62L844.308 20.82C844.868 20.6333 845.321 20.2933 845.668 19.8C846.028 19.3067 846.208 18.76 846.208 18.16V11.82H847.568V18.04C847.568 18.5067 847.495 18.9533 847.348 19.38C847.215 19.82 847.015 20.22 846.748 20.58C846.495 20.9533 846.181 21.2733 845.808 21.54C845.448 21.82 845.048 22.04 844.608 22.2L842.308 22.98ZM854.654 17.72C854.654 17.9067 854.561 18 854.374 18H853.634C853.221 18 852.828 17.92 852.454 17.76C852.081 17.6 851.754 17.38 851.474 17.1C851.194 16.82 850.974 16.4933 850.814 16.12C850.654 15.7467 850.574 15.3533 850.574 14.94V4.82H851.954V14.92C851.954 15.32 852.094 15.66 852.374 15.94C852.668 16.22 853.008 16.36 853.394 16.36H854.374C854.454 16.36 854.521 16.3933 854.574 16.46C854.628 16.5133 854.654 16.58 854.654 16.66V17.72ZM856.787 16.36C857.187 16.36 857.527 16.22 857.807 15.94C858.087 15.66 858.227 15.3267 858.227 14.94V11.26H859.607V14.94C859.607 15.3667 859.527 15.7667 859.367 16.14C859.207 16.5133 858.987 16.84 858.707 17.12C858.427 17.3867 858.101 17.6 857.727 17.76C857.367 17.92 856.974 18 856.547 18H854.367C854.181 18 854.087 17.9067 854.087 17.72V16.66C854.087 16.58 854.114 16.5133 854.167 16.46C854.221 16.3933 854.287 16.36 854.367 16.36H856.787ZM855.147 8.92H856.847V7.22H855.147V8.92ZM857.887 8.92H859.587V7.22H857.887V8.92Z" fill="#676767"/>
<path d="M19.9914 40.65V36.912H20.9574V40.496C20.9574 40.748 21.0041 40.9813 21.0974 41.196C21.1907 41.42 21.3167 41.6113 21.4754 41.77C21.6434 41.938 21.8394 42.0687 22.0634 42.162C22.2874 42.2553 22.5254 42.302 22.7774 42.302H25.1994C25.4141 42.302 25.6147 42.26 25.8014 42.176C25.9881 42.1013 26.1514 41.994 26.2914 41.854C26.4314 41.7233 26.5387 41.5647 26.6134 41.378C26.6974 41.2007 26.7394 41.0047 26.7394 40.79V36.674H27.7054V38.83C27.7054 39.194 27.8174 39.4553 28.0414 39.614C28.2654 39.7727 28.5221 39.852 28.8114 39.852H29.5534C29.6841 39.852 29.7494 39.9173 29.7494 40.048V40.804C29.7494 40.8507 29.7307 40.8973 29.6934 40.944C29.6561 40.9813 29.6094 41 29.5534 41H28.8674C28.6154 41 28.3821 40.9487 28.1674 40.846C27.9527 40.734 27.7941 40.5987 27.6914 40.44V41.028C27.6914 41.364 27.6261 41.6767 27.4954 41.966C27.3647 42.2647 27.1827 42.5213 26.9494 42.736C26.7254 42.96 26.4594 43.1327 26.1514 43.254C25.8527 43.3847 25.5354 43.45 25.1994 43.45H22.7914C22.3994 43.45 22.0307 43.3753 21.6854 43.226C21.3494 43.086 21.0554 42.89 20.8034 42.638C20.5514 42.386 20.3507 42.0873 20.2014 41.742C20.0614 41.406 19.9914 41.042 19.9914 40.65ZM23.2534 35.47H24.4434V36.66H23.2534V35.47ZM31.2448 39.852C31.5248 39.852 31.7628 39.754 31.9588 39.558C32.1548 39.362 32.2528 39.1287 32.2528 38.858V36.282H33.2188V38.858C33.2188 39.1567 33.1628 39.4367 33.0508 39.698C32.9388 39.9593 32.7848 40.188 32.5888 40.384C32.3928 40.5707 32.1641 40.72 31.9028 40.832C31.6508 40.944 31.3754 41 31.0768 41H29.5508C29.4201 41 29.3548 40.9347 29.3548 40.804V40.062C29.3548 40.006 29.3734 39.9593 29.4108 39.922C29.4481 39.8753 29.4948 39.852 29.5508 39.852H31.2448ZM29.6068 43.87H30.7968V42.68H29.6068V43.87ZM31.5248 43.87H32.7148V42.68H31.5248V43.87ZM36.8296 41C36.6242 41 36.4282 40.9627 36.2416 40.888C36.0549 40.804 35.8916 40.692 35.7516 40.552C35.6209 40.412 35.5136 40.2487 35.4296 40.062C35.3549 39.8753 35.3176 39.6793 35.3176 39.474V37.99H36.1436V39.264C36.1436 39.4227 36.1902 39.5627 36.2836 39.684C36.3769 39.796 36.5169 39.852 36.7036 39.852H38.9016C39.1816 39.852 39.4102 39.7913 39.5876 39.67C39.7649 39.5487 39.8956 39.404 39.9796 39.236C40.0636 39.0587 40.1009 38.8673 40.0916 38.662C40.0822 38.4567 40.0309 38.27 39.9376 38.102L38.3276 35.232L39.1396 34.686L40.7356 37.542C40.9689 37.9433 41.0809 38.354 41.0716 38.774C41.0716 39.1847 40.9782 39.5533 40.7916 39.88C40.6142 40.2067 40.3529 40.4773 40.0076 40.692C39.6716 40.8973 39.2842 41 38.8456 41H36.8296ZM40.4277 44.486L40.1197 43.534L41.8277 42.974C42.2197 42.8433 42.537 42.6053 42.7797 42.26C43.0317 41.9147 43.1577 41.532 43.1577 41.112V36.674H44.1097V41.028C44.1097 41.3547 44.0584 41.6673 43.9557 41.966C43.8624 42.274 43.7224 42.554 43.5357 42.806C43.3584 43.0673 43.139 43.2913 42.8777 43.478C42.6257 43.674 42.3457 43.828 42.0377 43.94L40.4277 44.486ZM50.9041 41.042C50.9041 41.3687 50.8527 41.686 50.7501 41.994C50.6474 42.302 50.5027 42.582 50.3161 42.834C50.1387 43.0953 49.9194 43.324 49.6581 43.52C49.4061 43.716 49.1214 43.8653 48.8041 43.968L47.2081 44.514L46.9001 43.548L48.5801 42.988C48.9814 42.848 49.3034 42.61 49.5461 42.274C49.7981 41.9473 49.9241 41.5693 49.9241 41.14V40.888C49.8494 40.9347 49.7607 40.9673 49.6581 40.986C49.5647 40.9953 49.4667 41 49.3641 41H47.9221C47.6327 41 47.3621 40.9393 47.1101 40.818C46.8674 40.6967 46.6621 40.5333 46.4941 40.328C46.3261 40.1227 46.2047 39.8893 46.1301 39.628C46.0647 39.3573 46.0601 39.082 46.1161 38.802L46.3541 37.528C46.3914 37.3133 46.4661 37.1173 46.5781 36.94C46.6901 36.7533 46.8254 36.5947 46.9841 36.464C47.1427 36.3333 47.3201 36.2307 47.5161 36.156C47.7214 36.0813 47.9361 36.044 48.1601 36.044H48.9441C49.2147 36.044 49.4667 36.0953 49.7001 36.198C49.9427 36.3007 50.1527 36.4407 50.3301 36.618C50.5074 36.786 50.6474 36.9913 50.7501 37.234C50.8527 37.4673 50.9041 37.7193 50.9041 37.99V41.042ZM49.9381 39.852V37.99C49.9381 37.7473 49.8494 37.542 49.6721 37.374C49.5041 37.1967 49.2987 37.108 49.0561 37.108H48.1321C47.9174 37.108 47.7307 37.1733 47.5721 37.304C47.4134 37.4347 47.3107 37.6073 47.2641 37.822L47.0541 38.942C47.0074 39.1847 47.0634 39.3993 47.2221 39.586C47.3807 39.7633 47.5814 39.852 47.8241 39.852H49.9381ZM55.2936 36.688V38.886C55.2936 39.1567 55.3916 39.3853 55.5876 39.572C55.7929 39.7587 56.0309 39.852 56.3016 39.852H57.7016C57.7576 39.852 57.8043 39.8753 57.8416 39.922C57.8789 39.9593 57.8976 40.006 57.8976 40.062V40.804C57.8976 40.9347 57.8323 41 57.7016 41H56.4696C56.2456 41 56.0263 40.9533 55.8116 40.86C55.5969 40.7667 55.4243 40.6267 55.2936 40.44V41.056C55.2936 41.3827 55.2423 41.6953 55.1396 41.994C55.0369 42.302 54.8923 42.582 54.7056 42.834C54.5283 43.086 54.3089 43.3053 54.0476 43.492C53.7863 43.688 53.5016 43.8373 53.1936 43.94L51.5976 44.5L51.2896 43.534L52.9836 42.974C53.3943 42.8433 53.7209 42.6053 53.9636 42.26C54.2063 41.9147 54.3276 41.532 54.3276 41.112V36.688H55.2936ZM60.1932 37.556H62.2372V35.764C62.2372 35.5213 62.1485 35.316 61.9712 35.148C61.7938 34.98 61.5838 34.896 61.3412 34.896H60.4872C60.2725 34.896 60.0812 34.9613 59.9132 35.092C59.7545 35.2227 59.6565 35.3953 59.6192 35.61L59.4232 36.632C59.3765 36.8747 59.4325 37.0893 59.5912 37.276C59.7498 37.4627 59.9505 37.556 60.1932 37.556ZM63.1892 38.83C63.1892 39.1287 63.1332 39.4133 63.0212 39.684C62.9092 39.9453 62.7552 40.174 62.5592 40.37C62.3632 40.566 62.1298 40.72 61.8592 40.832C61.5978 40.944 61.3178 41 61.0192 41H57.7012C57.6452 41 57.5985 40.9813 57.5612 40.944C57.5238 40.8973 57.5052 40.846 57.5052 40.79V40.062C57.5052 40.006 57.5285 39.9593 57.5752 39.922C57.6125 39.8753 57.6545 39.852 57.7012 39.852H61.1032C61.4018 39.852 61.6632 39.768 61.8872 39.6C62.1112 39.432 62.2232 39.1567 62.2232 38.774V38.578C62.0458 38.6527 61.8545 38.69 61.6492 38.69H60.2912C60.0018 38.69 59.7312 38.6293 59.4792 38.508C59.2365 38.3867 59.0312 38.2233 58.8632 38.018C58.6952 37.8127 58.5738 37.5793 58.4992 37.318C58.4338 37.0473 58.4292 36.772 58.4852 36.492L58.6952 35.316C58.7792 34.8773 58.9892 34.518 59.3252 34.238C59.6705 33.958 60.0625 33.818 60.5012 33.818H61.2432C61.5138 33.818 61.7658 33.8693 61.9992 33.972C62.2418 34.0747 62.4472 34.2147 62.6152 34.392C62.7925 34.5693 62.9325 34.7793 63.0352 35.022C63.1378 35.2553 63.1892 35.5073 63.1892 35.778V38.83ZM60.3052 30.99H61.4952V32.18H60.3052V30.99Z" fill="black"/>
<path d="M110.246 36.282H111.436V35.092H110.246V36.282ZM112.164 36.282H113.354V35.092H112.164V36.282ZM107.768 36.282V38.368C107.768 38.5733 107.805 38.7693 107.88 38.956C107.964 39.1333 108.076 39.2873 108.216 39.418C108.356 39.5487 108.514 39.656 108.692 39.74C108.878 39.8147 109.074 39.852 109.28 39.852H114.824C115.104 39.852 115.342 39.754 115.538 39.558C115.734 39.362 115.832 39.124 115.832 38.844V36.674H116.798V38.844C116.798 39.124 116.896 39.362 117.092 39.558C117.288 39.754 117.526 39.852 117.806 39.852H118.226C118.356 39.852 118.422 39.9173 118.422 40.048V40.804C118.422 40.9347 118.356 41 118.226 41H117.988C117.642 41 117.325 40.9207 117.036 40.762C116.746 40.6033 116.508 40.3747 116.322 40.076C116.116 40.384 115.869 40.6173 115.58 40.776C115.29 40.9253 114.978 41 114.642 41H109.322C108.976 41 108.65 40.9347 108.342 40.804C108.043 40.6733 107.777 40.496 107.544 40.272C107.32 40.048 107.142 39.7867 107.012 39.488C106.881 39.18 106.816 38.8533 106.816 38.508V36.282H107.768ZM121.987 41C121.641 41 121.324 40.9253 121.035 40.776C120.745 40.6173 120.503 40.384 120.307 40.076C120.111 40.384 119.868 40.6173 119.579 40.776C119.289 40.9253 118.972 41 118.627 41H118.221C118.165 41 118.118 40.9813 118.081 40.944C118.043 40.8973 118.025 40.8507 118.025 40.804V40.048C118.025 39.992 118.048 39.9453 118.095 39.908C118.132 39.8707 118.174 39.852 118.221 39.852H118.795C119.075 39.852 119.313 39.754 119.509 39.558C119.714 39.362 119.817 39.124 119.817 38.844V36.66H120.783V38.886C120.783 39.1567 120.881 39.39 121.077 39.586C121.282 39.7727 121.52 39.866 121.791 39.866H122.043C122.313 39.866 122.551 39.782 122.757 39.614C122.971 39.446 123.102 39.2267 123.149 38.956L123.569 36.758L124.535 36.912L124.171 38.76C124.143 38.9187 124.147 39.068 124.185 39.208C124.222 39.3387 124.287 39.4553 124.381 39.558C124.474 39.6513 124.591 39.726 124.731 39.782C124.871 39.838 125.02 39.866 125.179 39.866H125.319C125.599 39.866 125.837 39.768 126.033 39.572C126.229 39.3667 126.327 39.124 126.327 38.844V36.254H127.293V38.914C127.311 39.1847 127.419 39.4087 127.615 39.586C127.811 39.7633 128.044 39.852 128.315 39.852H128.875C128.921 39.852 128.963 39.8707 129.001 39.908C129.047 39.9453 129.071 39.992 129.071 40.048V40.804C129.071 40.8507 129.052 40.8973 129.015 40.944C128.977 40.9813 128.931 41 128.875 41H128.483C128.137 41 127.82 40.9253 127.531 40.776C127.241 40.6173 127.003 40.384 126.817 40.076C126.621 40.384 126.373 40.6173 126.075 40.776C125.785 40.9253 125.477 41 125.151 41C124.824 41 124.521 40.93 124.241 40.79C123.97 40.6407 123.76 40.4027 123.611 40.076C123.424 40.3933 123.186 40.6267 122.897 40.776C122.607 40.9253 122.304 41 121.987 41ZM125.137 35.092H123.947V33.902H125.137V35.092ZM123.219 35.092H122.029V33.902H123.219V35.092ZM124.129 33.384H122.939V32.194H124.129V33.384ZM130.103 39.852V38.144C130.103 37.8733 130.154 37.6213 130.257 37.388C130.36 37.1453 130.495 36.9353 130.663 36.758C130.84 36.5807 131.046 36.4407 131.279 36.338C131.522 36.2353 131.783 36.184 132.063 36.184H132.595C133.034 36.184 133.421 36.324 133.757 36.604C134.102 36.884 134.317 37.2433 134.401 37.682L134.611 38.788C134.667 39.068 134.658 39.3433 134.583 39.614C134.518 39.8753 134.401 40.1087 134.233 40.314C134.065 40.5193 133.855 40.6873 133.603 40.818C133.36 40.9393 133.094 41 132.805 41H131.629C131.526 41 131.428 40.9907 131.335 40.972C131.242 40.944 131.148 40.916 131.055 40.888C131.064 40.888 131.069 40.9347 131.069 41.028C131.069 41.476 131.158 41.8167 131.335 42.05C131.512 42.2927 131.783 42.4513 132.147 42.526L133.407 42.764L134.541 41C135.026 40.2347 135.731 39.852 136.655 39.852H136.851C136.982 39.852 137.047 39.9173 137.047 40.048V40.79C137.047 40.846 137.028 40.8973 136.991 40.944C136.954 40.9813 136.907 41 136.851 41H136.417C136.146 41 135.913 41.056 135.717 41.168C135.53 41.2893 135.358 41.4713 135.199 41.714C135.18 41.742 135.134 41.812 135.059 41.924C134.994 42.036 134.91 42.1667 134.807 42.316C134.714 42.4747 134.611 42.638 134.499 42.806C134.387 42.974 134.284 43.128 134.191 43.268C134.098 43.4173 134.018 43.5433 133.953 43.646C133.888 43.7487 133.85 43.8047 133.841 43.814L131.755 43.352C131.232 43.24 130.826 42.988 130.537 42.596C130.257 42.2133 130.112 41.6813 130.103 41H128.871C128.815 41 128.768 40.9813 128.731 40.944C128.694 40.8973 128.675 40.846 128.675 40.79V40.048C128.675 39.9173 128.74 39.852 128.871 39.852H130.103ZM131.069 38.13V39.852H132.903C133.024 39.852 133.136 39.8287 133.239 39.782C133.342 39.726 133.426 39.656 133.491 39.572C133.566 39.488 133.617 39.39 133.645 39.278C133.682 39.166 133.692 39.0493 133.673 38.928L133.491 37.976C133.454 37.7613 133.351 37.5887 133.183 37.458C133.024 37.318 132.838 37.248 132.623 37.248H131.937C131.694 37.248 131.489 37.3367 131.321 37.514C131.153 37.682 131.069 37.8873 131.069 38.13ZM138.703 43.884H139.893V42.694H138.703V43.884ZM141.895 40.804C141.895 40.9347 141.83 41 141.699 41H140.831C140.673 41 140.514 40.9767 140.355 40.93C140.197 40.8833 140.047 40.818 139.907 40.734C139.767 40.65 139.646 40.552 139.543 40.44C139.441 40.328 139.371 40.2067 139.333 40.076C139.175 40.3467 138.946 40.5707 138.647 40.748C138.358 40.916 138.05 41 137.723 41H136.855C136.725 41 136.659 40.9347 136.659 40.804V40.062C136.659 40.006 136.678 39.9593 136.715 39.922C136.753 39.8753 136.799 39.852 136.855 39.852H137.765C138.036 39.852 138.269 39.768 138.465 39.6C138.671 39.432 138.801 39.222 138.857 38.97L139.291 36.758L140.243 36.912L139.879 38.76C139.851 38.9 139.856 39.04 139.893 39.18C139.931 39.3107 139.996 39.4273 140.089 39.53C140.183 39.6233 140.295 39.7027 140.425 39.768C140.556 39.824 140.696 39.852 140.845 39.852H141.699C141.755 39.852 141.802 39.8753 141.839 39.922C141.877 39.9593 141.895 40.006 141.895 40.062V40.804ZM143.389 39.852C143.669 39.852 143.907 39.754 144.103 39.558C144.299 39.362 144.397 39.1287 144.397 38.858V36.282H145.363V38.858C145.363 39.1567 145.307 39.4367 145.195 39.698C145.083 39.9593 144.929 40.188 144.733 40.384C144.537 40.5707 144.309 40.72 144.047 40.832C143.795 40.944 143.52 41 143.221 41H141.695C141.565 41 141.499 40.9347 141.499 40.804V40.062C141.499 40.006 141.518 39.9593 141.555 39.922C141.593 39.8753 141.639 39.852 141.695 39.852H143.389ZM141.751 43.87H142.941V42.68H141.751V43.87ZM143.669 43.87H144.859V42.68H143.669V43.87ZM148.974 41C148.769 41 148.573 40.9627 148.386 40.888C148.199 40.804 148.036 40.692 147.896 40.552C147.765 40.412 147.658 40.2487 147.574 40.062C147.499 39.8753 147.462 39.6793 147.462 39.474V37.99H148.288V39.264C148.288 39.4227 148.335 39.5627 148.428 39.684C148.521 39.796 148.661 39.852 148.848 39.852H151.046C151.326 39.852 151.555 39.7913 151.732 39.67C151.909 39.5487 152.04 39.404 152.124 39.236C152.208 39.0587 152.245 38.8673 152.236 38.662C152.227 38.4567 152.175 38.27 152.082 38.102L150.472 35.232L151.284 34.686L152.88 37.542C153.113 37.9433 153.225 38.354 153.216 38.774C153.216 39.1847 153.123 39.5533 152.936 39.88C152.759 40.2067 152.497 40.4773 152.152 40.692C151.816 40.8973 151.429 41 150.99 41H148.974ZM152.572 44.486L152.264 43.534L153.972 42.974C154.364 42.8433 154.682 42.6053 154.924 42.26C155.176 41.9147 155.302 41.532 155.302 41.112V36.674H156.254V41.028C156.254 41.3547 156.203 41.6673 156.1 41.966C156.007 42.274 155.867 42.554 155.68 42.806C155.503 43.0673 155.284 43.2913 155.022 43.478C154.77 43.674 154.49 43.828 154.182 43.94L152.572 44.486ZM159.325 41H158.359V31.774H159.325V41Z" fill="black"/>
<path d="M203.895 41C203.69 41 203.494 40.9627 203.307 40.888C203.12 40.804 202.957 40.692 202.817 40.552C202.686 40.412 202.579 40.2487 202.495 40.062C202.42 39.8753 202.383 39.6793 202.383 39.474V37.99H203.209V39.264C203.209 39.4227 203.256 39.5627 203.349 39.684C203.442 39.796 203.582 39.852 203.769 39.852H205.967C206.247 39.852 206.476 39.7913 206.653 39.67C206.83 39.5487 206.961 39.404 207.045 39.236C207.129 39.0587 207.166 38.8673 207.157 38.662C207.148 38.4567 207.096 38.27 207.003 38.102L205.393 35.232L206.205 34.686L207.801 37.542C208.034 37.9433 208.146 38.354 208.137 38.774C208.137 39.1847 208.044 39.5533 207.857 39.88C207.68 40.2067 207.418 40.4773 207.073 40.692C206.737 40.8973 206.35 41 205.911 41H203.895ZM211.019 41H210.053V31.774H211.019V41ZM214.491 41C214.285 41 214.089 40.9627 213.903 40.888C213.716 40.804 213.553 40.692 213.413 40.552C213.282 40.412 213.175 40.2487 213.091 40.062C213.016 39.8753 212.979 39.6793 212.979 39.474V37.99H213.805V39.264C213.805 39.4227 213.851 39.5627 213.945 39.684C214.038 39.796 214.178 39.852 214.365 39.852H216.563C216.843 39.852 217.071 39.7913 217.249 39.67C217.426 39.5487 217.557 39.404 217.641 39.236C217.725 39.0587 217.762 38.8673 217.753 38.662C217.743 38.4567 217.692 38.27 217.599 38.102L215.989 35.232L216.801 34.686L218.397 37.542C218.63 37.9433 218.742 38.354 218.733 38.774C218.733 39.1847 218.639 39.5533 218.453 39.88C218.275 40.2067 218.014 40.4773 217.669 40.692C217.333 40.8973 216.945 41 216.507 41H214.491ZM221.785 36.688V38.886C221.785 39.1567 221.883 39.3853 222.079 39.572C222.284 39.7587 222.522 39.852 222.793 39.852H224.193C224.249 39.852 224.295 39.8753 224.333 39.922C224.37 39.9593 224.389 40.006 224.389 40.062V40.804C224.389 40.9347 224.323 41 224.193 41H222.961C222.737 41 222.517 40.9533 222.303 40.86C222.088 40.7667 221.915 40.6267 221.785 40.44V41.056C221.785 41.3827 221.733 41.6953 221.631 41.994C221.528 42.302 221.383 42.582 221.197 42.834C221.019 43.086 220.8 43.3053 220.539 43.492C220.277 43.688 219.993 43.8373 219.685 43.94L218.089 44.5L217.781 43.534L219.475 42.974C219.885 42.8433 220.212 42.6053 220.455 42.26C220.697 41.9147 220.819 41.532 220.819 41.112V36.688H221.785ZM226.32 33.986H227.51V32.796H226.32V33.986ZM223.996 40.062C223.996 40.0153 224.015 39.9687 224.052 39.922C224.09 39.8753 224.136 39.852 224.192 39.852H226.474C226.922 39.852 227.352 39.7773 227.762 39.628C228.182 39.4787 228.556 39.2547 228.882 38.956L230.114 37.808C230.226 37.7053 230.31 37.64 230.366 37.612L227.02 36.618C226.843 36.562 226.675 36.5807 226.516 36.674C226.367 36.758 226.264 36.884 226.208 37.052L225.844 38.172L225.004 37.934L225.326 36.828C225.392 36.604 225.494 36.408 225.634 36.24C225.784 36.0627 225.952 35.9227 226.138 35.82C226.334 35.7173 226.54 35.6567 226.754 35.638C226.978 35.61 227.198 35.6287 227.412 35.694L232.816 37.318L232.522 38.256L231.962 38.088C231.682 38.032 231.454 38.0413 231.276 38.116C231.099 38.1907 230.922 38.3073 230.744 38.466L229.12 39.964C228.747 40.3 228.322 40.5567 227.846 40.734C227.38 40.9113 226.894 41 226.39 41H224.192C224.062 41 223.996 40.9347 223.996 40.804V40.062Z" fill="black"/>
<path d="M275.336 36.688V38.886C275.336 39.1567 275.434 39.3853 275.63 39.572C275.835 39.7587 276.073 39.852 276.344 39.852H277.744C277.8 39.852 277.846 39.8753 277.884 39.922C277.921 39.9593 277.94 40.006 277.94 40.062V40.804C277.94 40.9347 277.874 41 277.744 41H276.512C276.288 41 276.068 40.9533 275.854 40.86C275.639 40.7667 275.466 40.6267 275.336 40.44V41.056C275.336 41.3827 275.284 41.6953 275.182 41.994C275.079 42.302 274.934 42.582 274.748 42.834C274.57 43.086 274.351 43.3053 274.09 43.492C273.828 43.688 273.544 43.8373 273.236 43.94L271.64 44.5L271.332 43.534L273.026 42.974C273.436 42.8433 273.763 42.6053 274.006 42.26C274.248 41.9147 274.37 41.532 274.37 41.112V36.688H275.336ZM278.639 43.87H279.829V42.68H278.639V43.87ZM280.557 43.87H281.747V42.68H280.557V43.87ZM282.783 40.804C282.783 40.9347 282.718 41 282.587 41H281.719C281.56 41 281.402 40.9767 281.243 40.93C281.084 40.8833 280.935 40.818 280.795 40.734C280.655 40.65 280.534 40.552 280.431 40.44C280.328 40.328 280.258 40.2067 280.221 40.076C280.062 40.3467 279.834 40.5707 279.535 40.748C279.246 40.916 278.938 41 278.611 41H277.743C277.612 41 277.547 40.9347 277.547 40.804V40.062C277.547 40.006 277.566 39.9593 277.603 39.922C277.64 39.8753 277.687 39.852 277.743 39.852H278.653C278.924 39.852 279.157 39.768 279.353 39.6C279.558 39.432 279.689 39.222 279.745 38.97L280.179 36.758L281.131 36.912L280.767 38.76C280.739 38.9 280.744 39.04 280.781 39.18C280.818 39.3107 280.884 39.4273 280.977 39.53C281.07 39.6233 281.182 39.7027 281.313 39.768C281.444 39.824 281.584 39.852 281.733 39.852H282.587C282.643 39.852 282.69 39.8753 282.727 39.922C282.764 39.9593 282.783 40.006 282.783 40.062V40.804ZM284.277 39.852C284.557 39.852 284.795 39.754 284.991 39.558C285.187 39.362 285.285 39.1287 285.285 38.858V36.282H286.251V38.858C286.251 39.1567 286.195 39.4367 286.083 39.698C285.971 39.9593 285.817 40.188 285.621 40.384C285.425 40.5707 285.196 40.72 284.935 40.832C284.683 40.944 284.408 41 284.109 41H282.583C282.452 41 282.387 40.9347 282.387 40.804V40.062C282.387 40.006 282.406 39.9593 282.443 39.922C282.48 39.8753 282.527 39.852 282.583 39.852H284.277ZM283.129 34.644H284.319V33.454H283.129V34.644ZM285.047 34.644H286.237V33.454H285.047V34.644Z" fill="black"/>
<path d="M328.53 41C328.324 41 328.128 40.9627 327.942 40.888C327.755 40.804 327.592 40.692 327.452 40.552C327.321 40.412 327.214 40.2487 327.13 40.062C327.055 39.8753 327.018 39.6793 327.018 39.474V37.99H327.844V39.264C327.844 39.4227 327.89 39.5627 327.984 39.684C328.077 39.796 328.217 39.852 328.404 39.852H330.602C330.882 39.852 331.11 39.7913 331.288 39.67C331.465 39.5487 331.596 39.404 331.68 39.236C331.764 39.0587 331.801 38.8673 331.792 38.662C331.782 38.4567 331.731 38.27 331.638 38.102L330.028 35.232L330.84 34.686L332.436 37.542C332.669 37.9433 332.781 38.354 332.772 38.774C332.772 39.1847 332.678 39.5533 332.492 39.88C332.314 40.2067 332.053 40.4773 331.708 40.692C331.372 40.8973 330.984 41 330.546 41H328.53ZM335.654 41H334.688V31.774H335.654V41ZM339.125 41C338.92 41 338.724 40.9627 338.537 40.888C338.351 40.804 338.187 40.692 338.047 40.552C337.917 40.412 337.809 40.2487 337.725 40.062C337.651 39.8753 337.613 39.6793 337.613 39.474V37.99H338.439V39.264C338.439 39.4227 338.486 39.5627 338.579 39.684C338.673 39.796 338.813 39.852 338.999 39.852H341.197C341.477 39.852 341.706 39.7913 341.883 39.67C342.061 39.5487 342.191 39.404 342.275 39.236C342.359 39.0587 342.397 38.8673 342.387 38.662C342.378 38.4567 342.327 38.27 342.233 38.102L340.623 35.232L341.435 34.686L343.031 37.542C343.265 37.9433 343.377 38.354 343.367 38.774C343.367 39.1847 343.274 39.5533 343.087 39.88C342.91 40.2067 342.649 40.4773 342.303 40.692C341.967 40.8973 341.58 41 341.141 41H339.125ZM346.42 36.688V38.886C346.42 39.1567 346.518 39.3853 346.714 39.572C346.919 39.7587 347.157 39.852 347.428 39.852H348.828C348.884 39.852 348.93 39.8753 348.968 39.922C349.005 39.9593 349.024 40.006 349.024 40.062V40.804C349.024 40.9347 348.958 41 348.828 41H347.596C347.372 41 347.152 40.9533 346.938 40.86C346.723 40.7667 346.55 40.6267 346.42 40.44V41.056C346.42 41.3827 346.368 41.6953 346.266 41.994C346.163 42.302 346.018 42.582 345.832 42.834C345.654 43.086 345.435 43.3053 345.174 43.492C344.912 43.688 344.628 43.8373 344.32 43.94L342.724 44.5L342.416 43.534L344.11 42.974C344.52 42.8433 344.847 42.6053 345.09 42.26C345.332 41.9147 345.454 41.532 345.454 41.112V36.688H346.42ZM352.103 39.852H354.231V37.976C354.231 37.7333 354.142 37.528 353.965 37.36C353.797 37.1827 353.587 37.094 353.335 37.094H352.425C352.21 37.094 352.024 37.164 351.865 37.304C351.706 37.4347 351.604 37.6027 351.557 37.808L351.347 38.942C351.3 39.1847 351.352 39.3993 351.501 39.586C351.66 39.7633 351.86 39.852 352.103 39.852ZM350.353 38.97L350.647 37.528C350.684 37.3133 350.759 37.1127 350.871 36.926C350.983 36.7393 351.118 36.5807 351.277 36.45C351.436 36.3193 351.613 36.2167 351.809 36.142C352.014 36.0673 352.229 36.03 352.453 36.03H353.237C353.508 36.03 353.76 36.0813 353.993 36.184C354.236 36.2867 354.446 36.4267 354.623 36.604C354.8 36.7813 354.94 36.9867 355.043 37.22C355.146 37.4533 355.197 37.7053 355.197 37.976V39.74C355.197 40.1133 355.08 40.4167 354.847 40.65C354.623 40.8833 354.315 41 353.923 41H352.215C351.916 41 351.641 40.93 351.389 40.79C351.146 40.6407 350.946 40.4027 350.787 40.076C350.619 40.4027 350.395 40.6407 350.115 40.79C349.835 40.93 349.541 41 349.233 41H348.827C348.696 41 348.631 40.9347 348.631 40.804V40.048C348.631 40.0013 348.65 39.9593 348.687 39.922C348.724 39.8753 348.771 39.852 348.827 39.852H349.275C349.546 39.852 349.779 39.768 349.975 39.6C350.18 39.432 350.306 39.222 350.353 38.97Z" fill="black"/>
<path d="M396.122 44.486L395.814 43.534L397.522 42.974C397.914 42.8433 398.231 42.6053 398.474 42.26C398.726 41.9147 398.852 41.532 398.852 41.112V36.674H399.804V41.028C399.804 41.3547 399.753 41.6673 399.65 41.966C399.557 42.274 399.417 42.554 399.23 42.806C399.053 43.0673 398.833 43.2913 398.572 43.478C398.32 43.674 398.04 43.828 397.732 43.94L396.122 44.486ZM403.616 41C403.327 41 403.061 40.9393 402.818 40.818C402.576 40.6967 402.37 40.5333 402.202 40.328C402.034 40.1227 401.913 39.8893 401.838 39.628C401.764 39.3573 401.754 39.082 401.81 38.802L402.048 37.528C402.086 37.3133 402.16 37.1173 402.272 36.94C402.384 36.7533 402.52 36.5947 402.678 36.464C402.837 36.3333 403.014 36.2307 403.21 36.156C403.416 36.0813 403.63 36.044 403.854 36.044H404.638C404.909 36.044 405.161 36.0953 405.394 36.198C405.637 36.3007 405.847 36.4407 406.024 36.618C406.202 36.786 406.342 36.9913 406.444 37.234C406.547 37.4673 406.598 37.7193 406.598 37.99V39.852H407.704C407.76 39.852 407.807 39.8753 407.844 39.922C407.882 39.9593 407.9 40.0013 407.9 40.048V40.804C407.9 40.9347 407.835 41 407.704 41H406.584V41.168C406.566 41.8027 406.365 42.372 405.982 42.876C405.609 43.3893 405.114 43.7533 404.498 43.968L402.902 44.514L402.594 43.548L404.274 42.988C404.676 42.848 404.998 42.61 405.24 42.274C405.492 41.9473 405.618 41.5693 405.618 41.14V40.888C405.544 40.9347 405.455 40.9673 405.352 40.986C405.259 40.9953 405.161 41 405.058 41H403.616ZM403.518 39.852H405.632V37.99C405.632 37.7473 405.544 37.542 405.366 37.374C405.198 37.1967 404.993 37.108 404.75 37.108H403.826C403.612 37.108 403.425 37.1733 403.266 37.304C403.108 37.4347 403.005 37.6073 402.958 37.822L402.748 38.942C402.702 39.1847 402.758 39.3993 402.916 39.586C403.075 39.7633 403.276 39.852 403.518 39.852ZM409.402 39.852C409.682 39.852 409.92 39.754 410.116 39.558C410.312 39.362 410.41 39.1287 410.41 38.858V36.282H411.376V38.858C411.376 39.1567 411.32 39.4367 411.208 39.698C411.096 39.9593 410.942 40.188 410.746 40.384C410.55 40.5707 410.321 40.72 410.06 40.832C409.808 40.944 409.533 41 409.234 41H407.708C407.577 41 407.512 40.9347 407.512 40.804V40.062C407.512 40.006 407.531 39.9593 407.568 39.922C407.605 39.8753 407.652 39.852 407.708 39.852H409.402ZM407.764 43.87H408.954V42.68H407.764V43.87ZM409.682 43.87H410.872V42.68H409.682V43.87ZM415.308 36.688V38.886C415.308 39.1567 415.406 39.3853 415.602 39.572C415.808 39.7587 416.046 39.852 416.316 39.852H417.716C417.772 39.852 417.819 39.8753 417.856 39.922C417.894 39.9593 417.912 40.006 417.912 40.062V40.804C417.912 40.9347 417.847 41 417.716 41H416.484C416.26 41 416.041 40.9533 415.826 40.86C415.612 40.7667 415.439 40.6267 415.308 40.44V41.056C415.308 41.3827 415.257 41.6953 415.154 41.994C415.052 42.302 414.907 42.582 414.72 42.834C414.543 43.086 414.324 43.3053 414.062 43.492C413.801 43.688 413.516 43.8373 413.208 43.94L411.612 44.5L411.304 43.534L412.998 42.974C413.409 42.8433 413.736 42.6053 413.978 42.26C414.221 41.9147 414.342 41.532 414.342 41.112V36.688H415.308ZM418.948 39.852V38.144C418.948 37.8733 418.999 37.6213 419.102 37.388C419.204 37.1453 419.34 36.9353 419.508 36.758C419.685 36.5807 419.89 36.4407 420.124 36.338C420.366 36.2353 420.628 36.184 420.908 36.184H421.44C421.878 36.184 422.266 36.324 422.602 36.604C422.947 36.884 423.162 37.2433 423.246 37.682L423.456 38.788C423.512 39.068 423.502 39.3433 423.428 39.614C423.362 39.8753 423.246 40.1087 423.078 40.314C422.91 40.5193 422.7 40.6873 422.448 40.818C422.205 40.9393 421.939 41 421.65 41H420.474C420.371 41 420.273 40.9907 420.18 40.972C420.086 40.944 419.993 40.916 419.9 40.888C419.909 40.888 419.914 40.9347 419.914 41.028C419.914 41.476 420.002 41.8167 420.18 42.05C420.357 42.2927 420.628 42.4513 420.992 42.526L422.252 42.764L423.386 41C423.871 40.2347 424.576 39.852 425.5 39.852H425.696C425.826 39.852 425.892 39.9173 425.892 40.048V40.79C425.892 40.846 425.873 40.8973 425.836 40.944C425.798 40.9813 425.752 41 425.696 41H425.262C424.991 41 424.758 41.056 424.562 41.168C424.375 41.2893 424.202 41.4713 424.044 41.714C424.025 41.742 423.978 41.812 423.904 41.924C423.838 42.036 423.754 42.1667 423.652 42.316C423.558 42.4747 423.456 42.638 423.344 42.806C423.232 42.974 423.129 43.128 423.036 43.268C422.942 43.4173 422.863 43.5433 422.798 43.646C422.732 43.7487 422.695 43.8047 422.686 43.814L420.6 43.352C420.077 43.24 419.671 42.988 419.382 42.596C419.102 42.2133 418.957 41.6813 418.948 41H417.716C417.66 41 417.613 40.9813 417.576 40.944C417.538 40.8973 417.52 40.846 417.52 40.79V40.048C417.52 39.9173 417.585 39.852 417.716 39.852H418.948ZM419.914 38.13V39.852H421.748C421.869 39.852 421.981 39.8287 422.084 39.782C422.186 39.726 422.27 39.656 422.336 39.572C422.41 39.488 422.462 39.39 422.49 39.278C422.527 39.166 422.536 39.0493 422.518 38.928L422.336 37.976C422.298 37.7613 422.196 37.5887 422.028 37.458C421.869 37.318 421.682 37.248 421.468 37.248H420.782C420.539 37.248 420.334 37.3367 420.166 37.514C419.998 37.682 419.914 37.8873 419.914 38.13ZM429.438 41C429.093 41 428.776 40.9207 428.486 40.762C428.197 40.6033 427.959 40.3747 427.772 40.076C427.576 40.3747 427.334 40.6033 427.044 40.762C426.755 40.9207 426.442 41 426.106 41H425.7C425.644 41 425.598 40.9813 425.56 40.944C425.514 40.9067 425.495 40.86 425.504 40.804V40.048C425.504 39.9173 425.57 39.852 425.7 39.852H426.274C426.554 39.852 426.792 39.754 426.988 39.558C427.194 39.362 427.296 39.1193 427.296 38.83V36.66H428.262V38.858C428.262 39.138 428.36 39.376 428.556 39.572C428.752 39.7587 428.99 39.852 429.27 39.852H429.508C429.779 39.852 430.012 39.7727 430.208 39.614C430.414 39.446 430.544 39.2267 430.6 38.956L431.034 36.758L432 36.912L431.622 38.76C431.594 38.9093 431.599 39.0493 431.636 39.18C431.683 39.3107 431.748 39.4273 431.832 39.53C431.926 39.6233 432.038 39.7027 432.168 39.768C432.299 39.824 432.439 39.852 432.588 39.852H433.792V36.254H434.758V39.74C434.758 40.1227 434.642 40.4307 434.408 40.664C434.184 40.888 433.881 41 433.498 41H432.588C432.271 41 431.972 40.9207 431.692 40.762C431.422 40.6033 431.216 40.3747 431.076 40.076C430.88 40.3933 430.638 40.6267 430.348 40.776C430.068 40.9253 429.765 41 429.438 41ZM432.616 35.106H431.426V33.916H432.616V35.106ZM430.698 35.106H429.508V33.916H430.698V35.106ZM431.622 33.398H430.432V32.208H431.622V33.398Z" fill="black"/>
<path d="M698.724 40.65V36.912H699.69V40.496C699.69 40.748 699.736 40.9813 699.83 41.196C699.923 41.42 700.049 41.6113 700.208 41.77C700.376 41.938 700.572 42.0687 700.796 42.162C701.02 42.2553 701.258 42.302 701.51 42.302H703.932C704.146 42.302 704.347 42.26 704.534 42.176C704.72 42.1013 704.884 41.994 705.024 41.854C705.164 41.7233 705.271 41.5647 705.346 41.378C705.43 41.2007 705.472 41.0047 705.472 40.79V36.674H706.438V38.83C706.438 39.194 706.55 39.4553 706.774 39.614C706.998 39.7727 707.254 39.852 707.544 39.852H708.286C708.416 39.852 708.482 39.9173 708.482 40.048V40.804C708.482 40.8507 708.463 40.8973 708.426 40.944C708.388 40.9813 708.342 41 708.286 41H707.6C707.348 41 707.114 40.9487 706.9 40.846C706.685 40.734 706.526 40.5987 706.424 40.44V41.028C706.424 41.364 706.358 41.6767 706.228 41.966C706.097 42.2647 705.915 42.5213 705.682 42.736C705.458 42.96 705.192 43.1327 704.884 43.254C704.585 43.3847 704.268 43.45 703.932 43.45H701.524C701.132 43.45 700.763 43.3753 700.418 43.226C700.082 43.086 699.788 42.89 699.536 42.638C699.284 42.386 699.083 42.0873 698.934 41.742C698.794 41.406 698.724 41.042 698.724 40.65ZM701.986 35.47H703.176V36.66H701.986V35.47ZM708.283 41C708.153 41 708.087 40.9347 708.087 40.804V40.048C708.087 40.0013 708.106 39.9593 708.143 39.922C708.181 39.8753 708.227 39.852 708.283 39.852H708.731C709.002 39.852 709.235 39.768 709.431 39.6C709.637 39.432 709.763 39.222 709.809 38.97L710.103 37.528C710.141 37.3133 710.215 37.1127 710.327 36.926C710.439 36.7393 710.575 36.5807 710.733 36.45C710.892 36.3193 711.069 36.2167 711.265 36.142C711.471 36.0673 711.685 36.03 711.909 36.03H712.693C712.964 36.03 713.216 36.0813 713.449 36.184C713.692 36.2867 713.902 36.4267 714.079 36.604C714.257 36.7813 714.397 36.9867 714.499 37.22C714.602 37.4533 714.653 37.7053 714.653 37.976V38.83C714.653 39.1193 714.751 39.362 714.947 39.558C715.143 39.754 715.381 39.852 715.661 39.852H716.109C716.165 39.852 716.212 39.8753 716.249 39.922C716.287 39.9593 716.305 40.0013 716.305 40.048V40.804C716.305 40.9347 716.24 41 716.109 41H715.843C715.563 41 715.297 40.944 715.045 40.832C714.793 40.72 714.574 40.5427 714.387 40.3C714.313 40.58 714.187 40.7667 714.009 40.86C713.832 40.9533 713.622 41 713.379 41H711.671C711.373 41 711.097 40.93 710.845 40.79C710.593 40.6407 710.393 40.4027 710.243 40.076C710.075 40.4027 709.851 40.6407 709.571 40.79C709.291 40.93 708.997 41 708.689 41H708.283ZM711.559 39.852H713.687V37.976C713.687 37.7333 713.599 37.528 713.421 37.36C713.253 37.1827 713.043 37.094 712.791 37.094H711.881C711.667 37.094 711.48 37.164 711.321 37.304C711.163 37.4347 711.06 37.6027 711.013 37.808L710.803 38.942C710.757 39.1847 710.808 39.3993 710.957 39.586C711.116 39.7633 711.317 39.852 711.559 39.852ZM717.336 39.852V38.144C717.336 37.8733 717.387 37.6213 717.49 37.388C717.592 37.1453 717.728 36.9353 717.896 36.758C718.073 36.5807 718.278 36.4407 718.512 36.338C718.754 36.2353 719.016 36.184 719.296 36.184H719.828C720.266 36.184 720.654 36.324 720.99 36.604C721.335 36.884 721.55 37.2433 721.634 37.682L721.844 38.788C721.9 39.068 721.89 39.3433 721.816 39.614C721.75 39.8753 721.634 40.1087 721.466 40.314C721.298 40.5193 721.088 40.6873 720.836 40.818C720.593 40.9393 720.327 41 720.038 41H718.862C718.759 41 718.661 40.9907 718.568 40.972C718.474 40.944 718.381 40.916 718.288 40.888C718.297 40.888 718.302 40.9347 718.302 41.028C718.302 41.476 718.39 41.8167 718.568 42.05C718.745 42.2927 719.016 42.4513 719.38 42.526L720.64 42.764L721.774 41C722.259 40.2347 722.964 39.852 723.888 39.852H724.084C724.214 39.852 724.28 39.9173 724.28 40.048V40.79C724.28 40.846 724.261 40.8973 724.224 40.944C724.186 40.9813 724.14 41 724.084 41H723.65C723.379 41 723.146 41.056 722.95 41.168C722.763 41.2893 722.59 41.4713 722.432 41.714C722.413 41.742 722.366 41.812 722.292 41.924C722.226 42.036 722.142 42.1667 722.04 42.316C721.946 42.4747 721.844 42.638 721.732 42.806C721.62 42.974 721.517 43.128 721.424 43.268C721.33 43.4173 721.251 43.5433 721.186 43.646C721.12 43.7487 721.083 43.8047 721.074 43.814L718.988 43.352C718.465 43.24 718.059 42.988 717.77 42.596C717.49 42.2133 717.345 41.6813 717.336 41H716.104C716.048 41 716.001 40.9813 715.964 40.944C715.926 40.8973 715.908 40.846 715.908 40.79V40.048C715.908 39.9173 715.973 39.852 716.104 39.852H717.336ZM718.302 38.13V39.852H720.136C720.257 39.852 720.369 39.8287 720.472 39.782C720.574 39.726 720.658 39.656 720.724 39.572C720.798 39.488 720.85 39.39 720.878 39.278C720.915 39.166 720.924 39.0493 720.906 38.928L720.724 37.976C720.686 37.7613 720.584 37.5887 720.416 37.458C720.257 37.318 720.07 37.248 719.856 37.248H719.17C718.927 37.248 718.722 37.3367 718.554 37.514C718.386 37.682 718.302 37.8873 718.302 38.13ZM725.502 39.852C725.782 39.852 726.02 39.754 726.216 39.558C726.412 39.3527 726.51 39.1147 726.51 38.844V36.282H727.476V38.858C727.476 39.1567 727.42 39.4367 727.308 39.698C727.196 39.9593 727.042 40.188 726.846 40.384C726.65 40.5707 726.421 40.72 726.16 40.832C725.908 40.944 725.633 41 725.334 41H724.088C723.957 41 723.892 40.9347 723.892 40.804V40.062C723.892 40.006 723.911 39.9593 723.948 39.922C723.985 39.8753 724.032 39.852 724.088 39.852H725.502ZM724.354 43.87H725.544V42.68H724.354V43.87Z" fill="black"/>
<path d="M772.824 39.852H773.118C773.174 39.852 773.22 39.8753 773.258 39.922C773.295 39.9593 773.314 40.006 773.314 40.062V40.804C773.314 40.9347 773.248 41 773.118 41H772.852C772.497 41 772.175 40.9113 771.886 40.734C771.596 40.5473 771.363 40.286 771.186 39.95C770.999 40.286 770.747 40.5473 770.43 40.734C770.122 40.9113 769.79 41 769.436 41H767.518C767.312 41 767.116 40.9627 766.93 40.888C766.752 40.804 766.594 40.692 766.454 40.552C766.323 40.412 766.216 40.2533 766.132 40.076C766.057 39.8893 766.02 39.6933 766.02 39.488V38.004H766.846V39.236C766.846 39.404 766.892 39.5487 766.986 39.67C767.079 39.7913 767.219 39.852 767.406 39.852H769.45C769.646 39.852 769.823 39.81 769.982 39.726C770.14 39.642 770.271 39.53 770.374 39.39C770.486 39.25 770.56 39.096 770.598 38.928C770.635 38.7507 770.63 38.5733 770.584 38.396L769.548 34.63L770.458 34.294L771.788 39.054C771.853 39.2873 771.979 39.4787 772.166 39.628C772.362 39.7773 772.581 39.852 772.824 39.852ZM775.064 35.092H776.254V33.902H775.064V35.092ZM778.158 40.804C778.158 40.9347 778.093 41 777.962 41H777.094C776.935 41 776.777 40.9767 776.618 40.93C776.459 40.8833 776.31 40.818 776.17 40.734C776.03 40.65 775.909 40.552 775.806 40.44C775.703 40.328 775.633 40.2067 775.596 40.076C775.437 40.3467 775.209 40.5707 774.91 40.748C774.621 40.916 774.313 41 773.986 41H773.118C772.987 41 772.922 40.9347 772.922 40.804V40.062C772.922 40.006 772.941 39.9593 772.978 39.922C773.015 39.8753 773.062 39.852 773.118 39.852H774.028C774.299 39.852 774.532 39.768 774.728 39.6C774.933 39.432 775.064 39.222 775.12 38.97L775.554 36.758L776.506 36.912L776.142 38.76C776.114 38.9 776.119 39.04 776.156 39.18C776.193 39.3107 776.259 39.4273 776.352 39.53C776.445 39.6233 776.557 39.7027 776.688 39.768C776.819 39.824 776.959 39.852 777.108 39.852H777.962C778.018 39.852 778.065 39.8753 778.102 39.922C778.139 39.9593 778.158 40.006 778.158 40.062V40.804ZM779.666 38.228C779.666 38.5267 779.797 38.7973 780.058 39.04C780.319 39.2827 780.655 39.5067 781.066 39.712C781.477 39.5067 781.817 39.2827 782.088 39.04C782.359 38.7973 782.494 38.5267 782.494 38.228V37.822C782.494 37.6353 782.457 37.4627 782.382 37.304C782.317 37.1453 782.223 37.01 782.102 36.898C781.981 36.7767 781.841 36.6833 781.682 36.618C781.523 36.5433 781.351 36.506 781.164 36.506H780.968C780.791 36.506 780.623 36.5433 780.464 36.618C780.305 36.6833 780.165 36.7767 780.044 36.898C779.932 37.01 779.839 37.1453 779.764 37.304C779.699 37.4627 779.666 37.6353 779.666 37.822V38.228ZM778.714 37.738C778.714 37.4207 778.775 37.122 778.896 36.842C779.017 36.562 779.181 36.3193 779.386 36.114C779.601 35.8993 779.843 35.7313 780.114 35.61C780.394 35.4887 780.688 35.428 780.996 35.428H781.164C781.481 35.428 781.775 35.4887 782.046 35.61C782.326 35.7313 782.569 35.8993 782.774 36.114C782.979 36.3193 783.143 36.562 783.264 36.842C783.385 37.1127 783.446 37.4067 783.446 37.724V38.158C783.446 38.494 783.362 38.802 783.194 39.082C783.035 39.362 782.821 39.6187 782.55 39.852H782.97H784.202C784.249 39.852 784.291 39.8753 784.328 39.922C784.375 39.9593 784.398 40.006 784.398 40.062V40.804C784.398 40.8507 784.375 40.8973 784.328 40.944C784.291 40.9813 784.249 41 784.202 41H782.97C782.643 41 782.326 40.972 782.018 40.916C781.719 40.8507 781.402 40.7527 781.066 40.622C780.739 40.7527 780.422 40.8507 780.114 40.916C779.815 40.972 779.503 41 779.176 41H777.958C777.902 41 777.855 40.9813 777.818 40.944C777.781 40.8973 777.762 40.8507 777.762 40.804V40.062C777.762 40.006 777.781 39.9593 777.818 39.922C777.855 39.8753 777.902 39.852 777.958 39.852H779.19H779.61C779.339 39.6187 779.12 39.362 778.952 39.082C778.793 38.802 778.714 38.494 778.714 38.158V37.738ZM780.45 33.776H781.64V32.586H780.45V33.776ZM787.916 41C787.58 41 787.267 40.9253 786.978 40.776C786.689 40.6173 786.451 40.384 786.264 40.076C786.077 40.384 785.839 40.6173 785.55 40.776C785.261 40.9253 784.948 41 784.612 41H784.206C784.075 41 784.01 40.9347 784.01 40.804V40.048C784.01 39.992 784.033 39.9453 784.08 39.908C784.117 39.8707 784.159 39.852 784.206 39.852H784.78C785.06 39.852 785.298 39.754 785.494 39.558C785.69 39.362 785.788 39.124 785.788 38.844V36.66H786.754V38.858C786.754 39.138 786.852 39.376 787.048 39.572C787.244 39.7587 787.477 39.852 787.748 39.852H788C788.271 39.852 788.509 39.7727 788.714 39.614C788.919 39.446 789.045 39.2313 789.092 38.97L789.54 36.758L790.478 36.926L790.114 38.76C790.058 39.0587 790.128 39.3153 790.324 39.53C790.529 39.7447 790.781 39.852 791.08 39.852H792.284V36.268H793.25V39.74C793.25 40.1227 793.133 40.4307 792.9 40.664C792.667 40.888 792.363 41 791.99 41H791.066C790.758 41 790.464 40.9207 790.184 40.762C789.904 40.6033 789.694 40.3747 789.554 40.076C789.367 40.3933 789.129 40.6267 788.84 40.776C788.551 40.9253 788.243 41 787.916 41ZM796.12 41H795.154V31.774H796.12V41Z" fill="black"/>
<path d="M477.923 36.688V38.886C477.923 39.1567 478.021 39.3853 478.217 39.572C478.423 39.7587 478.661 39.852 478.931 39.852H480.331C480.387 39.852 480.434 39.8753 480.471 39.922C480.509 39.9593 480.527 40.006 480.527 40.062V40.804C480.527 40.9347 480.462 41 480.331 41H479.099C478.875 41 478.656 40.9533 478.441 40.86C478.227 40.7667 478.054 40.6267 477.923 40.44V41.056C477.923 41.3827 477.872 41.6953 477.769 41.994C477.667 42.302 477.522 42.582 477.335 42.834C477.158 43.086 476.939 43.3053 476.677 43.492C476.416 43.688 476.131 43.8373 475.823 43.94L474.227 44.5L473.919 43.534L475.613 42.974C476.024 42.8433 476.351 42.6053 476.593 42.26C476.836 41.9147 476.957 41.532 476.957 41.112V36.688H477.923ZM481.563 39.852V38.144C481.563 37.8733 481.614 37.6213 481.717 37.388C481.82 37.1453 481.955 36.9353 482.123 36.758C482.3 36.5807 482.506 36.4407 482.739 36.338C482.982 36.2353 483.243 36.184 483.523 36.184H484.055C484.494 36.184 484.881 36.324 485.217 36.604C485.562 36.884 485.777 37.2433 485.861 37.682L486.071 38.788C486.127 39.068 486.118 39.3433 486.043 39.614C485.978 39.8753 485.861 40.1087 485.693 40.314C485.525 40.5193 485.315 40.6873 485.063 40.818C484.82 40.9393 484.554 41 484.265 41H483.089C482.986 41 482.888 40.9907 482.795 40.972C482.702 40.944 482.608 40.916 482.515 40.888C482.524 40.888 482.529 40.9347 482.529 41.028C482.529 41.476 482.618 41.8167 482.795 42.05C482.972 42.2927 483.243 42.4513 483.607 42.526L484.867 42.764L486.001 41C486.486 40.2347 487.191 39.852 488.115 39.852H488.311C488.442 39.852 488.507 39.9173 488.507 40.048V40.79C488.507 40.846 488.488 40.8973 488.451 40.944C488.414 40.9813 488.367 41 488.311 41H487.877C487.606 41 487.373 41.056 487.177 41.168C486.99 41.2893 486.818 41.4713 486.659 41.714C486.64 41.742 486.594 41.812 486.519 41.924C486.454 42.036 486.37 42.1667 486.267 42.316C486.174 42.4747 486.071 42.638 485.959 42.806C485.847 42.974 485.744 43.128 485.651 43.268C485.558 43.4173 485.478 43.5433 485.413 43.646C485.348 43.7487 485.31 43.8047 485.301 43.814L483.215 43.352C482.692 43.24 482.286 42.988 481.997 42.596C481.717 42.2133 481.572 41.6813 481.563 41H480.331C480.275 41 480.228 40.9813 480.191 40.944C480.154 40.8973 480.135 40.846 480.135 40.79V40.048C480.135 39.9173 480.2 39.852 480.331 39.852H481.563ZM482.529 38.13V39.852H484.363C484.484 39.852 484.596 39.8287 484.699 39.782C484.802 39.726 484.886 39.656 484.951 39.572C485.026 39.488 485.077 39.39 485.105 39.278C485.142 39.166 485.152 39.0493 485.133 38.928L484.951 37.976C484.914 37.7613 484.811 37.5887 484.643 37.458C484.484 37.318 484.298 37.248 484.083 37.248H483.397C483.154 37.248 482.949 37.3367 482.781 37.514C482.613 37.682 482.529 37.8873 482.529 38.13ZM491.591 39.852H493.719V37.976C493.719 37.7333 493.631 37.528 493.453 37.36C493.285 37.1827 493.075 37.094 492.823 37.094H491.913C491.699 37.094 491.512 37.164 491.353 37.304C491.195 37.4347 491.092 37.6027 491.045 37.808L490.835 38.942C490.789 39.1847 490.84 39.3993 490.989 39.586C491.148 39.7633 491.349 39.852 491.591 39.852ZM489.841 38.97L490.135 37.528C490.173 37.3133 490.247 37.1127 490.359 36.926C490.471 36.7393 490.607 36.5807 490.765 36.45C490.924 36.3193 491.101 36.2167 491.297 36.142C491.503 36.0673 491.717 36.03 491.941 36.03H492.725C492.996 36.03 493.248 36.0813 493.481 36.184C493.724 36.2867 493.934 36.4267 494.111 36.604C494.289 36.7813 494.429 36.9867 494.531 37.22C494.634 37.4533 494.685 37.7053 494.685 37.976V39.74C494.685 40.1133 494.569 40.4167 494.335 40.65C494.111 40.8833 493.803 41 493.411 41H491.703C491.405 41 491.129 40.93 490.877 40.79C490.635 40.6407 490.434 40.4027 490.275 40.076C490.107 40.4027 489.883 40.6407 489.603 40.79C489.323 40.93 489.029 41 488.721 41H488.315C488.185 41 488.119 40.9347 488.119 40.804V40.048C488.119 40.0013 488.138 39.9593 488.175 39.922C488.213 39.8753 488.259 39.852 488.315 39.852H488.763C489.034 39.852 489.267 39.768 489.463 39.6C489.669 39.432 489.795 39.222 489.841 38.97Z" fill="black"/>
<path d="M537.713 43.45C537.321 43.45 536.952 43.3753 536.607 43.226C536.271 43.086 535.977 42.89 535.725 42.638C535.473 42.386 535.272 42.0873 535.123 41.742C534.983 41.406 534.913 41.042 534.913 40.65V36.912H535.879V40.496C535.879 40.748 535.925 40.9813 536.019 41.196C536.112 41.42 536.238 41.6113 536.397 41.77C536.565 41.938 536.761 42.0687 536.985 42.162C537.209 42.2553 537.447 42.302 537.699 42.302H540.121C540.335 42.302 540.536 42.26 540.723 42.176C540.909 42.1013 541.073 41.994 541.213 41.854C541.353 41.7233 541.46 41.5647 541.535 41.378C541.619 41.2007 541.661 41.0047 541.661 40.79V36.674H542.627V40.958C542.627 41.3033 542.561 41.6253 542.431 41.924C542.3 42.232 542.118 42.498 541.885 42.722C541.661 42.946 541.395 43.1233 541.087 43.254C540.788 43.3847 540.466 43.45 540.121 43.45H537.713ZM538.175 35.47H539.365V36.66H538.175V35.47ZM547.434 40.804C547.434 40.9347 547.369 41 547.238 41H546.72C546.431 41 546.156 40.944 545.894 40.832C545.633 40.72 545.404 40.566 545.208 40.37C545.012 40.174 544.858 39.9453 544.746 39.684C544.634 39.4227 544.578 39.1473 544.578 38.858V31.774H545.544V38.844C545.544 39.124 545.642 39.362 545.838 39.558C546.044 39.754 546.282 39.852 546.552 39.852H547.238C547.294 39.852 547.341 39.8753 547.378 39.922C547.416 39.9593 547.434 40.006 547.434 40.062V40.804ZM548.647 39.852C548.927 39.852 549.165 39.754 549.361 39.558C549.557 39.3527 549.655 39.1147 549.655 38.844V36.282H550.621V38.858C550.621 39.1567 550.565 39.4367 550.453 39.698C550.341 39.9593 550.187 40.188 549.991 40.384C549.795 40.5707 549.567 40.72 549.305 40.832C549.053 40.944 548.778 41 548.479 41H547.233C547.103 41 547.037 40.9347 547.037 40.804V40.062C547.037 40.006 547.056 39.9593 547.093 39.922C547.131 39.8753 547.177 39.852 547.233 39.852H548.647ZM547.499 43.87H548.689V42.68H547.499V43.87ZM553.056 41H552.09V32.894H553.056V41ZM550.354 32.544V32.012C550.354 31.6947 550.457 31.4333 550.662 31.228C550.858 31.0227 551.12 30.92 551.446 30.92H554.106V31.774H551.432C551.339 31.774 551.255 31.8113 551.18 31.886C551.115 31.9513 551.082 32.0353 551.082 32.138V32.544H550.354Z" fill="black"/>
<path d="M591.331 44.486L591.023 43.534L592.731 42.974C593.123 42.8433 593.44 42.6053 593.683 42.26C593.935 41.9147 594.061 41.532 594.061 41.112V36.674H595.013V41.028C595.013 41.3547 594.962 41.6673 594.859 41.966C594.766 42.274 594.626 42.554 594.439 42.806C594.262 43.0673 594.042 43.2913 593.781 43.478C593.529 43.674 593.249 43.828 592.941 43.94L591.331 44.486ZM598.629 41C598.424 41 598.228 40.9627 598.041 40.888C597.855 40.804 597.691 40.692 597.551 40.552C597.421 40.412 597.313 40.2487 597.229 40.062C597.155 39.8753 597.117 39.6793 597.117 39.474V37.99H597.943V39.264C597.943 39.4227 597.99 39.5627 598.083 39.684C598.177 39.796 598.317 39.852 598.503 39.852H600.701C600.981 39.852 601.21 39.7913 601.387 39.67C601.565 39.5487 601.695 39.404 601.779 39.236C601.863 39.0587 601.901 38.8673 601.891 38.662C601.882 38.4567 601.831 38.27 601.737 38.102L600.127 35.232L600.939 34.686L602.535 37.542C602.769 37.9433 602.881 38.354 602.871 38.774C602.871 39.1847 602.778 39.5533 602.591 39.88C602.414 40.2067 602.153 40.4773 601.807 40.692C601.471 40.8973 601.084 41 600.645 41H598.629ZM599.273 31.83H600.463V33.02H599.273V31.83ZM605.322 41H604.356V32.894H605.322V41ZM602.62 32.544V32.012C602.62 31.6947 602.723 31.4333 602.928 31.228C603.124 31.0227 603.385 30.92 603.712 30.92H606.372V31.774H603.698C603.605 31.774 603.521 31.8113 603.446 31.886C603.381 31.9513 603.348 32.0353 603.348 32.138V32.544H602.62Z" fill="black"/>
<path d="M651.317 39.054C651.616 39.1193 651.854 39.2547 652.031 39.46C652.209 39.6653 652.297 39.9173 652.297 40.216V40.776C652.297 41.1213 652.232 41.448 652.101 41.756C651.971 42.064 651.789 42.33 651.555 42.554C651.331 42.7873 651.065 42.9693 650.757 43.1C650.459 43.2307 650.137 43.296 649.791 43.296H646.963C646.581 43.296 646.217 43.2213 645.871 43.072C645.535 42.9227 645.241 42.722 644.989 42.47C644.737 42.218 644.537 41.9193 644.387 41.574C644.238 41.238 644.163 40.874 644.163 40.482V37.262H645.129V40.328C645.129 40.58 645.176 40.8133 645.269 41.028C645.363 41.252 645.493 41.4433 645.661 41.602C645.829 41.77 646.025 41.9007 646.249 41.994C646.473 42.0967 646.711 42.148 646.963 42.148H649.833C650.039 42.148 650.23 42.106 650.407 42.022C650.594 41.9473 650.753 41.84 650.883 41.7C651.023 41.5693 651.131 41.4107 651.205 41.224C651.289 41.0373 651.331 40.8413 651.331 40.636V40.09L647.509 39.194V37.71C647.509 37.374 647.565 37.0613 647.677 36.772C647.799 36.4733 647.962 36.212 648.167 35.988C648.373 35.764 648.606 35.582 648.867 35.442C649.138 35.302 649.427 35.2133 649.735 35.176L651.359 34.966L651.513 35.974L649.665 36.226C649.311 36.282 649.017 36.4547 648.783 36.744C648.559 37.024 648.447 37.3413 648.447 37.696V38.382L651.317 39.054ZM655.779 41C655.573 41 655.377 40.9627 655.191 40.888C655.004 40.804 654.841 40.692 654.701 40.552C654.57 40.412 654.463 40.2487 654.379 40.062C654.304 39.8753 654.267 39.6793 654.267 39.474V37.99H655.093V39.264C655.093 39.4227 655.139 39.5627 655.233 39.684C655.326 39.796 655.466 39.852 655.653 39.852H657.851C658.131 39.852 658.359 39.7913 658.537 39.67C658.714 39.5487 658.845 39.404 658.929 39.236C659.013 39.0587 659.05 38.8673 659.041 38.662C659.031 38.4567 658.98 38.27 658.887 38.102L657.277 35.232L658.089 34.686L659.685 37.542C659.918 37.9433 660.03 38.354 660.021 38.774C660.021 39.1847 659.927 39.5533 659.741 39.88C659.563 40.2067 659.302 40.4773 658.957 40.692C658.621 40.8973 658.233 41 657.795 41H655.779Z" fill="black"/>
</svg>
