<svg width="39" height="331" viewBox="0 0 39 331" fill="none" xmlns="http://www.w3.org/2000/svg">
<path d="M34 328C34 329.381 35.1193 330.5 36.5 330.5C37.8807 330.5 39 329.381 39 328L34 328ZM34 1.09278e-07L34 328L39 328L39 -1.09278e-07L34 1.09278e-07Z" fill="#D9D9D9"/>
<path d="M6.752 267.09L4.428 268.616L3.882 267.72L6.836 265.76H7.942V275H6.752V267.09ZM13.1603 275.14C12.5909 275.14 12.0916 275.056 11.6623 274.888C11.2329 274.711 10.8783 274.431 10.5983 274.048C10.3183 273.665 10.1083 273.175 9.96828 272.578C9.82828 271.971 9.75828 271.234 9.75828 270.366C9.75828 269.507 9.82828 268.775 9.96828 268.168C10.1083 267.561 10.3183 267.067 10.5983 266.684C10.8783 266.301 11.2283 266.026 11.6483 265.858C12.0683 265.681 12.5629 265.592 13.1323 265.592C13.7016 265.592 14.1963 265.681 14.6163 265.858C15.0456 266.035 15.4003 266.315 15.6803 266.698C15.9696 267.081 16.1843 267.575 16.3243 268.182C16.4643 268.779 16.5343 269.507 16.5343 270.366C16.5343 271.234 16.4643 271.971 16.3243 272.578C16.1843 273.175 15.9743 273.665 15.6943 274.048C15.4143 274.431 15.0596 274.711 14.6303 274.888C14.2103 275.056 13.7203 275.14 13.1603 275.14ZM13.1603 274.076C13.5429 274.076 13.8696 274.015 14.1403 273.894C14.4109 273.763 14.6303 273.553 14.7983 273.264C14.9756 272.975 15.1016 272.597 15.1763 272.13C15.2603 271.654 15.3023 271.066 15.3023 270.366C15.3023 269.666 15.2603 269.083 15.1763 268.616C15.1016 268.14 14.9756 267.757 14.7983 267.468C14.6303 267.179 14.4109 266.973 14.1403 266.852C13.8696 266.721 13.5429 266.656 13.1603 266.656C12.7776 266.656 12.4463 266.721 12.1663 266.852C11.8956 266.973 11.6716 267.179 11.4943 267.468C11.3263 267.757 11.2003 268.14 11.1163 268.616C11.0323 269.083 10.9903 269.666 10.9903 270.366C10.9903 271.066 11.0323 271.654 11.1163 272.13C11.2003 272.597 11.3263 272.975 11.4943 273.264C11.6716 273.553 11.8956 273.763 12.1663 273.894C12.4463 274.015 12.7776 274.076 13.1603 274.076Z" fill="#676767"/>
<path d="M0.952 226.964L3.556 224.234L4.578 223.142C4.82067 222.862 5.02133 222.559 5.18 222.232C5.33867 221.905 5.418 221.541 5.418 221.14C5.418 220.627 5.264 220.258 4.956 220.034C4.65733 219.801 4.18133 219.684 3.528 219.684C2.912 219.684 2.226 219.754 1.47 219.894L1.106 219.978L1.008 218.998C1.44667 218.867 1.89 218.769 2.338 218.704C2.786 218.639 3.234 218.606 3.682 218.606C4.69933 218.606 5.446 218.811 5.922 219.222C6.398 219.623 6.636 220.249 6.636 221.098C6.636 221.387 6.608 221.653 6.552 221.896C6.50533 222.129 6.43067 222.353 6.328 222.568C6.188 222.867 5.98267 223.17 5.712 223.478C5.45067 223.786 5.11 224.145 4.69 224.556L2.324 226.936H6.86V228H0.952V226.964ZM11.9786 228.14C11.4093 228.14 10.91 228.056 10.4806 227.888C10.0513 227.711 9.69664 227.431 9.41664 227.048C9.13664 226.665 8.92664 226.175 8.78664 225.578C8.64664 224.971 8.57664 224.234 8.57664 223.366C8.57664 222.507 8.64664 221.775 8.78664 221.168C8.92664 220.561 9.13664 220.067 9.41664 219.684C9.69664 219.301 10.0466 219.026 10.4666 218.858C10.8866 218.681 11.3813 218.592 11.9506 218.592C12.52 218.592 13.0146 218.681 13.4346 218.858C13.864 219.035 14.2186 219.315 14.4986 219.698C14.788 220.081 15.0026 220.575 15.1426 221.182C15.2826 221.779 15.3526 222.507 15.3526 223.366C15.3526 224.234 15.2826 224.971 15.1426 225.578C15.0026 226.175 14.7926 226.665 14.5126 227.048C14.2326 227.431 13.878 227.711 13.4486 227.888C13.0286 228.056 12.5386 228.14 11.9786 228.14ZM11.9786 227.076C12.3613 227.076 12.688 227.015 12.9586 226.894C13.2293 226.763 13.4486 226.553 13.6166 226.264C13.794 225.975 13.92 225.597 13.9946 225.13C14.0786 224.654 14.1206 224.066 14.1206 223.366C14.1206 222.666 14.0786 222.083 13.9946 221.616C13.92 221.14 13.794 220.757 13.6166 220.468C13.4486 220.179 13.2293 219.973 12.9586 219.852C12.688 219.721 12.3613 219.656 11.9786 219.656C11.596 219.656 11.2646 219.721 10.9846 219.852C10.714 219.973 10.49 220.179 10.3126 220.468C10.1446 220.757 10.0186 221.14 9.93464 221.616C9.85064 222.083 9.80864 222.666 9.80864 223.366C9.80864 224.066 9.85064 224.654 9.93464 225.13C10.0186 225.597 10.1446 225.975 10.3126 226.264C10.49 226.553 10.714 226.763 10.9846 226.894C11.2646 227.015 11.596 227.076 11.9786 227.076Z" fill="#676767"/>
<path d="M1.078 172.012C1.51667 171.872 1.96467 171.769 2.422 171.704C2.88867 171.639 3.35067 171.606 3.808 171.606C4.86267 171.606 5.62333 171.797 6.09 172.18C6.55667 172.563 6.79 173.179 6.79 174.028C6.79 174.476 6.664 174.896 6.412 175.288C6.16 175.671 5.838 175.955 5.446 176.142C5.71667 176.245 5.95 176.361 6.146 176.492C6.342 176.623 6.50067 176.777 6.622 176.954C6.75267 177.131 6.846 177.337 6.902 177.57C6.96733 177.803 7 178.083 7 178.41C7 179.334 6.75267 180.025 6.258 180.482C5.77267 180.93 4.98867 181.154 3.906 181.154C3.55133 181.154 3.15933 181.131 2.73 181.084C2.30067 181.037 1.85267 180.963 1.386 180.86L0.952 180.748L1.05 179.796C1.53533 179.899 1.974 179.983 2.366 180.048C2.76733 180.104 3.14067 180.132 3.486 180.132C3.822 180.132 4.13 180.099 4.41 180.034C4.69 179.969 4.928 179.866 5.124 179.726C5.32933 179.586 5.488 179.404 5.6 179.18C5.72133 178.947 5.782 178.671 5.782 178.354C5.782 177.841 5.628 177.444 5.32 177.164C5.02133 176.884 4.564 176.744 3.948 176.744H2.086V175.708H3.948C4.144 175.708 4.34 175.671 4.536 175.596C4.732 175.512 4.90467 175.4 5.054 175.26C5.21267 175.111 5.33867 174.933 5.432 174.728C5.52533 174.523 5.572 174.299 5.572 174.056C5.572 173.561 5.42267 173.207 5.124 172.992C4.82533 172.768 4.326 172.656 3.626 172.656C3.32733 172.656 3.00067 172.675 2.646 172.712C2.29133 172.749 1.92267 172.805 1.54 172.88L1.176 172.95L1.078 172.012ZM12.129 181.14C11.5597 181.14 11.0604 181.056 10.631 180.888C10.2017 180.711 9.84703 180.431 9.56703 180.048C9.28703 179.665 9.07703 179.175 8.93703 178.578C8.79703 177.971 8.72703 177.234 8.72703 176.366C8.72703 175.507 8.79703 174.775 8.93703 174.168C9.07703 173.561 9.28703 173.067 9.56703 172.684C9.84703 172.301 10.197 172.026 10.617 171.858C11.037 171.681 11.5317 171.592 12.101 171.592C12.6704 171.592 13.165 171.681 13.585 171.858C14.0144 172.035 14.369 172.315 14.649 172.698C14.9384 173.081 15.153 173.575 15.293 174.182C15.433 174.779 15.503 175.507 15.503 176.366C15.503 177.234 15.433 177.971 15.293 178.578C15.153 179.175 14.943 179.665 14.663 180.048C14.383 180.431 14.0284 180.711 13.599 180.888C13.179 181.056 12.689 181.14 12.129 181.14ZM12.129 180.076C12.5117 180.076 12.8384 180.015 13.109 179.894C13.3797 179.763 13.599 179.553 13.767 179.264C13.9444 178.975 14.0704 178.597 14.145 178.13C14.229 177.654 14.271 177.066 14.271 176.366C14.271 175.666 14.229 175.083 14.145 174.616C14.0704 174.14 13.9444 173.757 13.767 173.468C13.599 173.179 13.3797 172.973 13.109 172.852C12.8384 172.721 12.5117 172.656 12.129 172.656C11.7464 172.656 11.415 172.721 11.135 172.852C10.8644 172.973 10.6404 173.179 10.463 173.468C10.295 173.757 10.169 174.14 10.085 174.616C10.001 175.083 9.95903 175.666 9.95903 176.366C9.95903 177.066 10.001 177.654 10.085 178.13C10.169 178.597 10.295 178.975 10.463 179.264C10.6404 179.553 10.8644 179.763 11.135 179.894C11.415 180.015 11.7464 180.076 12.129 180.076Z" fill="#676767"/>
<path d="M4.97 132.222H0.56V131.312L3.15 124.76H4.438L1.792 131.186H4.97V128.344H6.16V131.186H7.294V132.222H6.16V134H4.97V132.222ZM12.0197 134.14C11.4503 134.14 10.951 134.056 10.5217 133.888C10.0923 133.711 9.73766 133.431 9.45766 133.048C9.17766 132.665 8.96766 132.175 8.82766 131.578C8.68766 130.971 8.61766 130.234 8.61766 129.366C8.61766 128.507 8.68766 127.775 8.82766 127.168C8.96766 126.561 9.17766 126.067 9.45766 125.684C9.73766 125.301 10.0877 125.026 10.5077 124.858C10.9277 124.681 11.4223 124.592 11.9917 124.592C12.561 124.592 13.0557 124.681 13.4757 124.858C13.905 125.035 14.2597 125.315 14.5397 125.698C14.829 126.081 15.0437 126.575 15.1837 127.182C15.3237 127.779 15.3937 128.507 15.3937 129.366C15.3937 130.234 15.3237 130.971 15.1837 131.578C15.0437 132.175 14.8337 132.665 14.5537 133.048C14.2737 133.431 13.919 133.711 13.4897 133.888C13.0697 134.056 12.5797 134.14 12.0197 134.14ZM12.0197 133.076C12.4023 133.076 12.729 133.015 12.9997 132.894C13.2703 132.763 13.4897 132.553 13.6577 132.264C13.835 131.975 13.961 131.597 14.0357 131.13C14.1197 130.654 14.1617 130.066 14.1617 129.366C14.1617 128.666 14.1197 128.083 14.0357 127.616C13.961 127.14 13.835 126.757 13.6577 126.468C13.4897 126.179 13.2703 125.973 12.9997 125.852C12.729 125.721 12.4023 125.656 12.0197 125.656C11.637 125.656 11.3057 125.721 11.0257 125.852C10.755 125.973 10.531 126.179 10.3537 126.468C10.1857 126.757 10.0597 127.14 9.97566 127.616C9.89166 128.083 9.84966 128.666 9.84966 129.366C9.84966 130.066 9.89166 130.654 9.97566 131.13C10.0597 131.597 10.1857 131.975 10.3537 132.264C10.531 132.553 10.755 132.763 11.0257 132.894C11.3057 133.015 11.637 133.076 12.0197 133.076Z" fill="#676767"/>
<path d="M4.046 87.14C3.64467 87.14 3.22 87.1073 2.772 87.042C2.324 86.986 1.87133 86.9067 1.414 86.804L0.952 86.706L1.078 85.782C2.13267 85.978 3.04733 86.076 3.822 86.076C4.51267 86.076 5.03533 85.8987 5.39 85.544C5.74467 85.18 5.922 84.662 5.922 83.99C5.922 83.374 5.768 82.926 5.46 82.646C5.152 82.366 4.68533 82.226 4.06 82.226C3.79867 82.226 3.53733 82.2587 3.276 82.324C3.024 82.38 2.79533 82.45 2.59 82.534C2.394 82.6087 2.23533 82.6787 2.114 82.744C1.99267 82.8093 1.932 82.842 1.932 82.842L1.106 82.702L1.358 77.76H6.776V78.824H2.338L2.086 81.722C2.44067 81.5353 2.79533 81.3953 3.15 81.302C3.514 81.2087 3.90133 81.162 4.312 81.162C5.24533 81.162 5.95 81.3953 6.426 81.862C6.902 82.3193 7.14 83.0147 7.14 83.948C7.14 84.9653 6.86933 85.754 6.328 86.314C5.796 86.8647 5.03533 87.14 4.046 87.14ZM12.2658 87.14C11.6964 87.14 11.1971 87.056 10.7678 86.888C10.3384 86.7107 9.98375 86.4307 9.70375 86.048C9.42375 85.6653 9.21375 85.1753 9.07375 84.578C8.93375 83.9713 8.86375 83.234 8.86375 82.366C8.86375 81.5073 8.93375 80.7747 9.07375 80.168C9.21375 79.5613 9.42375 79.0667 9.70375 78.684C9.98375 78.3013 10.3338 78.026 10.7538 77.858C11.1738 77.6807 11.6684 77.592 12.2378 77.592C12.8071 77.592 13.3018 77.6807 13.7218 77.858C14.1511 78.0353 14.5058 78.3153 14.7858 78.698C15.0751 79.0807 15.2898 79.5753 15.4298 80.182C15.5698 80.7793 15.6398 81.5073 15.6398 82.366C15.6398 83.234 15.5698 83.9713 15.4298 84.578C15.2898 85.1753 15.0798 85.6653 14.7998 86.048C14.5198 86.4307 14.1651 86.7107 13.7358 86.888C13.3158 87.056 12.8258 87.14 12.2658 87.14ZM12.2658 86.076C12.6484 86.076 12.9751 86.0153 13.2458 85.894C13.5164 85.7633 13.7358 85.5533 13.9038 85.264C14.0811 84.9747 14.2071 84.5967 14.2818 84.13C14.3658 83.654 14.4078 83.066 14.4078 82.366C14.4078 81.666 14.3658 81.0827 14.2818 80.616C14.2071 80.14 14.0811 79.7573 13.9038 79.468C13.7358 79.1787 13.5164 78.9733 13.2458 78.852C12.9751 78.7213 12.6484 78.656 12.2658 78.656C11.8831 78.656 11.5518 78.7213 11.2718 78.852C11.0011 78.9733 10.7771 79.1787 10.5998 79.468C10.4318 79.7573 10.3058 80.14 10.2218 80.616C10.1378 81.0827 10.0958 81.666 10.0958 82.366C10.0958 83.066 10.1378 83.654 10.2218 84.13C10.3058 84.5967 10.4318 84.9747 10.5998 85.264C10.7771 85.5533 11.0011 85.7633 11.2718 85.894C11.5518 86.0153 11.8831 86.076 12.2658 86.076Z" fill="#676767"/>
<path d="M4.368 40.154C3.21067 40.154 2.352 39.762 1.792 38.978C1.232 38.1847 0.952 37.0133 0.952 35.464C0.952 33.8027 1.26467 32.58 1.89 31.796C2.51533 31.0027 3.40667 30.606 4.564 30.606C4.984 30.606 5.418 30.634 5.866 30.69C6.314 30.746 6.74333 30.8113 7.154 30.886L7.042 31.824C6.16467 31.712 5.348 31.656 4.592 31.656C3.81733 31.656 3.22467 31.9173 2.814 32.44C2.40333 32.9627 2.198 33.7187 2.198 34.708C2.366 34.652 2.548 34.5913 2.744 34.526C2.94933 34.4607 3.15 34.4047 3.346 34.358C3.55133 34.3113 3.74733 34.274 3.934 34.246C4.12067 34.2087 4.284 34.19 4.424 34.19C6.496 34.19 7.532 35.1373 7.532 37.032C7.532 38.0493 7.252 38.824 6.692 39.356C6.14133 39.888 5.36667 40.154 4.368 40.154ZM4.242 39.104C4.92333 39.104 5.43667 38.936 5.782 38.6C6.12733 38.2547 6.3 37.76 6.3 37.116C6.3 36.4813 6.132 36.01 5.796 35.702C5.46933 35.3847 4.99333 35.226 4.368 35.226C4.21867 35.226 4.046 35.2447 3.85 35.282C3.66333 35.31 3.46733 35.3473 3.262 35.394C3.05667 35.4407 2.86067 35.4967 2.674 35.562C2.48733 35.6273 2.324 35.688 2.184 35.744C2.184 36.8173 2.352 37.648 2.688 38.236C3.03333 38.8147 3.55133 39.104 4.242 39.104ZM12.6486 40.14C12.0792 40.14 11.5799 40.056 11.1506 39.888C10.7212 39.7107 10.3666 39.4307 10.0866 39.048C9.80656 38.6653 9.59656 38.1753 9.45656 37.578C9.31656 36.9713 9.24656 36.234 9.24656 35.366C9.24656 34.5073 9.31656 33.7747 9.45656 33.168C9.59656 32.5613 9.80656 32.0667 10.0866 31.684C10.3666 31.3013 10.7166 31.026 11.1366 30.858C11.5566 30.6807 12.0512 30.592 12.6206 30.592C13.1899 30.592 13.6846 30.6807 14.1046 30.858C14.5339 31.0353 14.8886 31.3153 15.1686 31.698C15.4579 32.0807 15.6726 32.5753 15.8126 33.182C15.9526 33.7793 16.0226 34.5073 16.0226 35.366C16.0226 36.234 15.9526 36.9713 15.8126 37.578C15.6726 38.1753 15.4626 38.6653 15.1826 39.048C14.9026 39.4307 14.5479 39.7107 14.1186 39.888C13.6986 40.056 13.2086 40.14 12.6486 40.14ZM12.6486 39.076C13.0312 39.076 13.3579 39.0153 13.6286 38.894C13.8992 38.7633 14.1186 38.5533 14.2866 38.264C14.4639 37.9747 14.5899 37.5967 14.6646 37.13C14.7486 36.654 14.7906 36.066 14.7906 35.366C14.7906 34.666 14.7486 34.0827 14.6646 33.616C14.5899 33.14 14.4639 32.7573 14.2866 32.468C14.1186 32.1787 13.8992 31.9733 13.6286 31.852C13.3579 31.7213 13.0312 31.656 12.6486 31.656C12.2659 31.656 11.9346 31.7213 11.6546 31.852C11.3839 31.9733 11.1599 32.1787 10.9826 32.468C10.8146 32.7573 10.6886 33.14 10.6046 33.616C10.5206 34.0827 10.4786 34.666 10.4786 35.366C10.4786 36.066 10.5206 36.654 10.6046 37.13C10.6886 37.5967 10.8146 37.9747 10.9826 38.264C11.1599 38.5533 11.3839 38.7633 11.6546 38.894C11.9346 39.0153 12.2659 39.076 12.6486 39.076Z" fill="#676767"/>
<path d="M13.172 322.14C12.6027 322.14 12.1033 322.056 11.674 321.888C11.2447 321.711 10.89 321.431 10.61 321.048C10.33 320.665 10.12 320.175 9.98 319.578C9.84 318.971 9.77 318.234 9.77 317.366C9.77 316.507 9.84 315.775 9.98 315.168C10.12 314.561 10.33 314.067 10.61 313.684C10.89 313.301 11.24 313.026 11.66 312.858C12.08 312.681 12.5747 312.592 13.144 312.592C13.7133 312.592 14.208 312.681 14.628 312.858C15.0573 313.035 15.412 313.315 15.692 313.698C15.9813 314.081 16.196 314.575 16.336 315.182C16.476 315.779 16.546 316.507 16.546 317.366C16.546 318.234 16.476 318.971 16.336 319.578C16.196 320.175 15.986 320.665 15.706 321.048C15.426 321.431 15.0713 321.711 14.642 321.888C14.222 322.056 13.732 322.14 13.172 322.14ZM13.172 321.076C13.5547 321.076 13.8813 321.015 14.152 320.894C14.4227 320.763 14.642 320.553 14.81 320.264C14.9873 319.975 15.1133 319.597 15.188 319.13C15.272 318.654 15.314 318.066 15.314 317.366C15.314 316.666 15.272 316.083 15.188 315.616C15.1133 315.14 14.9873 314.757 14.81 314.468C14.642 314.179 14.4227 313.973 14.152 313.852C13.8813 313.721 13.5547 313.656 13.172 313.656C12.7893 313.656 12.458 313.721 12.178 313.852C11.9073 313.973 11.6833 314.179 11.506 314.468C11.338 314.757 11.212 315.14 11.128 315.616C11.044 316.083 11.002 316.666 11.002 317.366C11.002 318.066 11.044 318.654 11.128 319.13C11.212 319.597 11.338 319.975 11.506 320.264C11.6833 320.553 11.9073 320.763 12.178 320.894C12.458 321.015 12.7893 321.076 13.172 321.076Z" fill="#676767"/>
</svg>
