<svg width="61" height="362" viewBox="0 0 61 362" fill="none" xmlns="http://www.w3.org/2000/svg">
<path d="M34 359C34 360.381 35.1193 361.5 36.5 361.5C37.8807 361.5 39 360.381 39 359L34 359ZM34 31L34 359L39 359L39 31L34 31Z" fill="#D9D9D9"/>
<path d="M6.752 298.09L4.428 299.616L3.882 298.72L6.836 296.76H7.942V306H6.752V298.09ZM13.1603 306.14C12.5909 306.14 12.0916 306.056 11.6623 305.888C11.2329 305.711 10.8783 305.431 10.5983 305.048C10.3183 304.665 10.1083 304.175 9.96828 303.578C9.82828 302.971 9.75828 302.234 9.75828 301.366C9.75828 300.507 9.82828 299.775 9.96828 299.168C10.1083 298.561 10.3183 298.067 10.5983 297.684C10.8783 297.301 11.2283 297.026 11.6483 296.858C12.0683 296.681 12.5629 296.592 13.1323 296.592C13.7016 296.592 14.1963 296.681 14.6163 296.858C15.0456 297.035 15.4003 297.315 15.6803 297.698C15.9696 298.081 16.1843 298.575 16.3243 299.182C16.4643 299.779 16.5343 300.507 16.5343 301.366C16.5343 302.234 16.4643 302.971 16.3243 303.578C16.1843 304.175 15.9743 304.665 15.6943 305.048C15.4143 305.431 15.0596 305.711 14.6303 305.888C14.2103 306.056 13.7203 306.14 13.1603 306.14ZM13.1603 305.076C13.5429 305.076 13.8696 305.015 14.1403 304.894C14.4109 304.763 14.6303 304.553 14.7983 304.264C14.9756 303.975 15.1016 303.597 15.1763 303.13C15.2603 302.654 15.3023 302.066 15.3023 301.366C15.3023 300.666 15.2603 300.083 15.1763 299.616C15.1016 299.14 14.9756 298.757 14.7983 298.468C14.6303 298.179 14.4109 297.973 14.1403 297.852C13.8696 297.721 13.5429 297.656 13.1603 297.656C12.7776 297.656 12.4463 297.721 12.1663 297.852C11.8956 297.973 11.6716 298.179 11.4943 298.468C11.3263 298.757 11.2003 299.14 11.1163 299.616C11.0323 300.083 10.9903 300.666 10.9903 301.366C10.9903 302.066 11.0323 302.654 11.1163 303.13C11.2003 303.597 11.3263 303.975 11.4943 304.264C11.6716 304.553 11.8956 304.763 12.1663 304.894C12.4463 305.015 12.7776 305.076 13.1603 305.076Z" fill="#676767"/>
<path d="M0.952 257.964L3.556 255.234L4.578 254.142C4.82067 253.862 5.02133 253.559 5.18 253.232C5.33867 252.905 5.418 252.541 5.418 252.14C5.418 251.627 5.264 251.258 4.956 251.034C4.65733 250.801 4.18133 250.684 3.528 250.684C2.912 250.684 2.226 250.754 1.47 250.894L1.106 250.978L1.008 249.998C1.44667 249.867 1.89 249.769 2.338 249.704C2.786 249.639 3.234 249.606 3.682 249.606C4.69933 249.606 5.446 249.811 5.922 250.222C6.398 250.623 6.636 251.249 6.636 252.098C6.636 252.387 6.608 252.653 6.552 252.896C6.50533 253.129 6.43067 253.353 6.328 253.568C6.188 253.867 5.98267 254.17 5.712 254.478C5.45067 254.786 5.11 255.145 4.69 255.556L2.324 257.936H6.86V259H0.952V257.964ZM11.9786 259.14C11.4093 259.14 10.91 259.056 10.4806 258.888C10.0513 258.711 9.69664 258.431 9.41664 258.048C9.13664 257.665 8.92664 257.175 8.78664 256.578C8.64664 255.971 8.57664 255.234 8.57664 254.366C8.57664 253.507 8.64664 252.775 8.78664 252.168C8.92664 251.561 9.13664 251.067 9.41664 250.684C9.69664 250.301 10.0466 250.026 10.4666 249.858C10.8866 249.681 11.3813 249.592 11.9506 249.592C12.52 249.592 13.0146 249.681 13.4346 249.858C13.864 250.035 14.2186 250.315 14.4986 250.698C14.788 251.081 15.0026 251.575 15.1426 252.182C15.2826 252.779 15.3526 253.507 15.3526 254.366C15.3526 255.234 15.2826 255.971 15.1426 256.578C15.0026 257.175 14.7926 257.665 14.5126 258.048C14.2326 258.431 13.878 258.711 13.4486 258.888C13.0286 259.056 12.5386 259.14 11.9786 259.14ZM11.9786 258.076C12.3613 258.076 12.688 258.015 12.9586 257.894C13.2293 257.763 13.4486 257.553 13.6166 257.264C13.794 256.975 13.92 256.597 13.9946 256.13C14.0786 255.654 14.1206 255.066 14.1206 254.366C14.1206 253.666 14.0786 253.083 13.9946 252.616C13.92 252.14 13.794 251.757 13.6166 251.468C13.4486 251.179 13.2293 250.973 12.9586 250.852C12.688 250.721 12.3613 250.656 11.9786 250.656C11.596 250.656 11.2646 250.721 10.9846 250.852C10.714 250.973 10.49 251.179 10.3126 251.468C10.1446 251.757 10.0186 252.14 9.93464 252.616C9.85064 253.083 9.80864 253.666 9.80864 254.366C9.80864 255.066 9.85064 255.654 9.93464 256.13C10.0186 256.597 10.1446 256.975 10.3126 257.264C10.49 257.553 10.714 257.763 10.9846 257.894C11.2646 258.015 11.596 258.076 11.9786 258.076Z" fill="#676767"/>
<path d="M1.078 203.012C1.51667 202.872 1.96467 202.769 2.422 202.704C2.88867 202.639 3.35067 202.606 3.808 202.606C4.86267 202.606 5.62333 202.797 6.09 203.18C6.55667 203.563 6.79 204.179 6.79 205.028C6.79 205.476 6.664 205.896 6.412 206.288C6.16 206.671 5.838 206.955 5.446 207.142C5.71667 207.245 5.95 207.361 6.146 207.492C6.342 207.623 6.50067 207.777 6.622 207.954C6.75267 208.131 6.846 208.337 6.902 208.57C6.96733 208.803 7 209.083 7 209.41C7 210.334 6.75267 211.025 6.258 211.482C5.77267 211.93 4.98867 212.154 3.906 212.154C3.55133 212.154 3.15933 212.131 2.73 212.084C2.30067 212.037 1.85267 211.963 1.386 211.86L0.952 211.748L1.05 210.796C1.53533 210.899 1.974 210.983 2.366 211.048C2.76733 211.104 3.14067 211.132 3.486 211.132C3.822 211.132 4.13 211.099 4.41 211.034C4.69 210.969 4.928 210.866 5.124 210.726C5.32933 210.586 5.488 210.404 5.6 210.18C5.72133 209.947 5.782 209.671 5.782 209.354C5.782 208.841 5.628 208.444 5.32 208.164C5.02133 207.884 4.564 207.744 3.948 207.744H2.086V206.708H3.948C4.144 206.708 4.34 206.671 4.536 206.596C4.732 206.512 4.90467 206.4 5.054 206.26C5.21267 206.111 5.33867 205.933 5.432 205.728C5.52533 205.523 5.572 205.299 5.572 205.056C5.572 204.561 5.42267 204.207 5.124 203.992C4.82533 203.768 4.326 203.656 3.626 203.656C3.32733 203.656 3.00067 203.675 2.646 203.712C2.29133 203.749 1.92267 203.805 1.54 203.88L1.176 203.95L1.078 203.012ZM12.129 212.14C11.5597 212.14 11.0604 212.056 10.631 211.888C10.2017 211.711 9.84703 211.431 9.56703 211.048C9.28703 210.665 9.07703 210.175 8.93703 209.578C8.79703 208.971 8.72703 208.234 8.72703 207.366C8.72703 206.507 8.79703 205.775 8.93703 205.168C9.07703 204.561 9.28703 204.067 9.56703 203.684C9.84703 203.301 10.197 203.026 10.617 202.858C11.037 202.681 11.5317 202.592 12.101 202.592C12.6704 202.592 13.165 202.681 13.585 202.858C14.0144 203.035 14.369 203.315 14.649 203.698C14.9384 204.081 15.153 204.575 15.293 205.182C15.433 205.779 15.503 206.507 15.503 207.366C15.503 208.234 15.433 208.971 15.293 209.578C15.153 210.175 14.943 210.665 14.663 211.048C14.383 211.431 14.0284 211.711 13.599 211.888C13.179 212.056 12.689 212.14 12.129 212.14ZM12.129 211.076C12.5117 211.076 12.8384 211.015 13.109 210.894C13.3797 210.763 13.599 210.553 13.767 210.264C13.9444 209.975 14.0704 209.597 14.145 209.13C14.229 208.654 14.271 208.066 14.271 207.366C14.271 206.666 14.229 206.083 14.145 205.616C14.0704 205.14 13.9444 204.757 13.767 204.468C13.599 204.179 13.3797 203.973 13.109 203.852C12.8384 203.721 12.5117 203.656 12.129 203.656C11.7464 203.656 11.415 203.721 11.135 203.852C10.8644 203.973 10.6404 204.179 10.463 204.468C10.295 204.757 10.169 205.14 10.085 205.616C10.001 206.083 9.95903 206.666 9.95903 207.366C9.95903 208.066 10.001 208.654 10.085 209.13C10.169 209.597 10.295 209.975 10.463 210.264C10.6404 210.553 10.8644 210.763 11.135 210.894C11.415 211.015 11.7464 211.076 12.129 211.076Z" fill="#676767"/>
<path d="M4.97 163.222H0.56V162.312L3.15 155.76H4.438L1.792 162.186H4.97V159.344H6.16V162.186H7.294V163.222H6.16V165H4.97V163.222ZM12.0197 165.14C11.4503 165.14 10.951 165.056 10.5217 164.888C10.0923 164.711 9.73766 164.431 9.45766 164.048C9.17766 163.665 8.96766 163.175 8.82766 162.578C8.68766 161.971 8.61766 161.234 8.61766 160.366C8.61766 159.507 8.68766 158.775 8.82766 158.168C8.96766 157.561 9.17766 157.067 9.45766 156.684C9.73766 156.301 10.0877 156.026 10.5077 155.858C10.9277 155.681 11.4223 155.592 11.9917 155.592C12.561 155.592 13.0557 155.681 13.4757 155.858C13.905 156.035 14.2597 156.315 14.5397 156.698C14.829 157.081 15.0437 157.575 15.1837 158.182C15.3237 158.779 15.3937 159.507 15.3937 160.366C15.3937 161.234 15.3237 161.971 15.1837 162.578C15.0437 163.175 14.8337 163.665 14.5537 164.048C14.2737 164.431 13.919 164.711 13.4897 164.888C13.0697 165.056 12.5797 165.14 12.0197 165.14ZM12.0197 164.076C12.4023 164.076 12.729 164.015 12.9997 163.894C13.2703 163.763 13.4897 163.553 13.6577 163.264C13.835 162.975 13.961 162.597 14.0357 162.13C14.1197 161.654 14.1617 161.066 14.1617 160.366C14.1617 159.666 14.1197 159.083 14.0357 158.616C13.961 158.14 13.835 157.757 13.6577 157.468C13.4897 157.179 13.2703 156.973 12.9997 156.852C12.729 156.721 12.4023 156.656 12.0197 156.656C11.637 156.656 11.3057 156.721 11.0257 156.852C10.755 156.973 10.531 157.179 10.3537 157.468C10.1857 157.757 10.0597 158.14 9.97566 158.616C9.89166 159.083 9.84966 159.666 9.84966 160.366C9.84966 161.066 9.89166 161.654 9.97566 162.13C10.0597 162.597 10.1857 162.975 10.3537 163.264C10.531 163.553 10.755 163.763 11.0257 163.894C11.3057 164.015 11.637 164.076 12.0197 164.076Z" fill="#676767"/>
<path d="M4.046 118.14C3.64467 118.14 3.22 118.107 2.772 118.042C2.324 117.986 1.87133 117.907 1.414 117.804L0.952 117.706L1.078 116.782C2.13267 116.978 3.04733 117.076 3.822 117.076C4.51267 117.076 5.03533 116.899 5.39 116.544C5.74467 116.18 5.922 115.662 5.922 114.99C5.922 114.374 5.768 113.926 5.46 113.646C5.152 113.366 4.68533 113.226 4.06 113.226C3.79867 113.226 3.53733 113.259 3.276 113.324C3.024 113.38 2.79533 113.45 2.59 113.534C2.394 113.609 2.23533 113.679 2.114 113.744C1.99267 113.809 1.932 113.842 1.932 113.842L1.106 113.702L1.358 108.76H6.776V109.824H2.338L2.086 112.722C2.44067 112.535 2.79533 112.395 3.15 112.302C3.514 112.209 3.90133 112.162 4.312 112.162C5.24533 112.162 5.95 112.395 6.426 112.862C6.902 113.319 7.14 114.015 7.14 114.948C7.14 115.965 6.86933 116.754 6.328 117.314C5.796 117.865 5.03533 118.14 4.046 118.14ZM12.2658 118.14C11.6964 118.14 11.1971 118.056 10.7678 117.888C10.3384 117.711 9.98375 117.431 9.70375 117.048C9.42375 116.665 9.21375 116.175 9.07375 115.578C8.93375 114.971 8.86375 114.234 8.86375 113.366C8.86375 112.507 8.93375 111.775 9.07375 111.168C9.21375 110.561 9.42375 110.067 9.70375 109.684C9.98375 109.301 10.3338 109.026 10.7538 108.858C11.1738 108.681 11.6684 108.592 12.2378 108.592C12.8071 108.592 13.3018 108.681 13.7218 108.858C14.1511 109.035 14.5058 109.315 14.7858 109.698C15.0751 110.081 15.2898 110.575 15.4298 111.182C15.5698 111.779 15.6398 112.507 15.6398 113.366C15.6398 114.234 15.5698 114.971 15.4298 115.578C15.2898 116.175 15.0798 116.665 14.7998 117.048C14.5198 117.431 14.1651 117.711 13.7358 117.888C13.3158 118.056 12.8258 118.14 12.2658 118.14ZM12.2658 117.076C12.6484 117.076 12.9751 117.015 13.2458 116.894C13.5164 116.763 13.7358 116.553 13.9038 116.264C14.0811 115.975 14.2071 115.597 14.2818 115.13C14.3658 114.654 14.4078 114.066 14.4078 113.366C14.4078 112.666 14.3658 112.083 14.2818 111.616C14.2071 111.14 14.0811 110.757 13.9038 110.468C13.7358 110.179 13.5164 109.973 13.2458 109.852C12.9751 109.721 12.6484 109.656 12.2658 109.656C11.8831 109.656 11.5518 109.721 11.2718 109.852C11.0011 109.973 10.7771 110.179 10.5998 110.468C10.4318 110.757 10.3058 111.14 10.2218 111.616C10.1378 112.083 10.0958 112.666 10.0958 113.366C10.0958 114.066 10.1378 114.654 10.2218 115.13C10.3058 115.597 10.4318 115.975 10.5998 116.264C10.7771 116.553 11.0011 116.763 11.2718 116.894C11.5518 117.015 11.8831 117.076 12.2658 117.076Z" fill="#676767"/>
<path d="M4.368 71.154C3.21067 71.154 2.352 70.762 1.792 69.978C1.232 69.1847 0.952 68.0133 0.952 66.464C0.952 64.8027 1.26467 63.58 1.89 62.796C2.51533 62.0027 3.40667 61.606 4.564 61.606C4.984 61.606 5.418 61.634 5.866 61.69C6.314 61.746 6.74333 61.8113 7.154 61.886L7.042 62.824C6.16467 62.712 5.348 62.656 4.592 62.656C3.81733 62.656 3.22467 62.9173 2.814 63.44C2.40333 63.9627 2.198 64.7187 2.198 65.708C2.366 65.652 2.548 65.5913 2.744 65.526C2.94933 65.4607 3.15 65.4047 3.346 65.358C3.55133 65.3113 3.74733 65.274 3.934 65.246C4.12067 65.2087 4.284 65.19 4.424 65.19C6.496 65.19 7.532 66.1373 7.532 68.032C7.532 69.0493 7.252 69.824 6.692 70.356C6.14133 70.888 5.36667 71.154 4.368 71.154ZM4.242 70.104C4.92333 70.104 5.43667 69.936 5.782 69.6C6.12733 69.2547 6.3 68.76 6.3 68.116C6.3 67.4813 6.132 67.01 5.796 66.702C5.46933 66.3847 4.99333 66.226 4.368 66.226C4.21867 66.226 4.046 66.2447 3.85 66.282C3.66333 66.31 3.46733 66.3473 3.262 66.394C3.05667 66.4407 2.86067 66.4967 2.674 66.562C2.48733 66.6273 2.324 66.688 2.184 66.744C2.184 67.8173 2.352 68.648 2.688 69.236C3.03333 69.8147 3.55133 70.104 4.242 70.104ZM12.6486 71.14C12.0792 71.14 11.5799 71.056 11.1506 70.888C10.7212 70.7107 10.3666 70.4307 10.0866 70.048C9.80656 69.6653 9.59656 69.1753 9.45656 68.578C9.31656 67.9713 9.24656 67.234 9.24656 66.366C9.24656 65.5073 9.31656 64.7747 9.45656 64.168C9.59656 63.5613 9.80656 63.0667 10.0866 62.684C10.3666 62.3013 10.7166 62.026 11.1366 61.858C11.5566 61.6807 12.0512 61.592 12.6206 61.592C13.1899 61.592 13.6846 61.6807 14.1046 61.858C14.5339 62.0353 14.8886 62.3153 15.1686 62.698C15.4579 63.0807 15.6726 63.5753 15.8126 64.182C15.9526 64.7793 16.0226 65.5073 16.0226 66.366C16.0226 67.234 15.9526 67.9713 15.8126 68.578C15.6726 69.1753 15.4626 69.6653 15.1826 70.048C14.9026 70.4307 14.5479 70.7107 14.1186 70.888C13.6986 71.056 13.2086 71.14 12.6486 71.14ZM12.6486 70.076C13.0312 70.076 13.3579 70.0153 13.6286 69.894C13.8992 69.7633 14.1186 69.5533 14.2866 69.264C14.4639 68.9747 14.5899 68.5967 14.6646 68.13C14.7486 67.654 14.7906 67.066 14.7906 66.366C14.7906 65.666 14.7486 65.0827 14.6646 64.616C14.5899 64.14 14.4639 63.7573 14.2866 63.468C14.1186 63.1787 13.8992 62.9733 13.6286 62.852C13.3579 62.7213 13.0312 62.656 12.6486 62.656C12.2659 62.656 11.9346 62.7213 11.6546 62.852C11.3839 62.9733 11.1599 63.1787 10.9826 63.468C10.8146 63.7573 10.6886 64.14 10.6046 64.616C10.5206 65.0827 10.4786 65.666 10.4786 66.366C10.4786 67.066 10.5206 67.654 10.6046 68.13C10.6886 68.5967 10.8146 68.9747 10.9826 69.264C11.1599 69.5533 11.3839 69.7633 11.6546 69.894C11.9346 70.0153 12.2659 70.076 12.6486 70.076Z" fill="#676767"/>
<path d="M13.172 353.14C12.6027 353.14 12.1033 353.056 11.674 352.888C11.2447 352.711 10.89 352.431 10.61 352.048C10.33 351.665 10.12 351.175 9.98 350.578C9.84 349.971 9.77 349.234 9.77 348.366C9.77 347.507 9.84 346.775 9.98 346.168C10.12 345.561 10.33 345.067 10.61 344.684C10.89 344.301 11.24 344.026 11.66 343.858C12.08 343.681 12.5747 343.592 13.144 343.592C13.7133 343.592 14.208 343.681 14.628 343.858C15.0573 344.035 15.412 344.315 15.692 344.698C15.9813 345.081 16.196 345.575 16.336 346.182C16.476 346.779 16.546 347.507 16.546 348.366C16.546 349.234 16.476 349.971 16.336 350.578C16.196 351.175 15.986 351.665 15.706 352.048C15.426 352.431 15.0713 352.711 14.642 352.888C14.222 353.056 13.732 353.14 13.172 353.14ZM13.172 352.076C13.5547 352.076 13.8813 352.015 14.152 351.894C14.4227 351.763 14.642 351.553 14.81 351.264C14.9873 350.975 15.1133 350.597 15.188 350.13C15.272 349.654 15.314 349.066 15.314 348.366C15.314 347.666 15.272 347.083 15.188 346.616C15.1133 346.14 14.9873 345.757 14.81 345.468C14.642 345.179 14.4227 344.973 14.152 344.852C13.8813 344.721 13.5547 344.656 13.172 344.656C12.7893 344.656 12.458 344.721 12.178 344.852C11.9073 344.973 11.6833 345.179 11.506 345.468C11.338 345.757 11.212 346.14 11.128 346.616C11.044 347.083 11.002 347.666 11.002 348.366C11.002 349.066 11.044 349.654 11.128 350.13C11.212 350.597 11.338 350.975 11.506 351.264C11.6833 351.553 11.9073 351.763 12.178 351.894C12.458 352.015 12.7893 352.076 13.172 352.076Z" fill="#676767"/>
<path d="M16.26 8.02H17.9V8.66C18.4067 8.36667 18.8933 8.15333 19.36 8.02C19.8267 7.87333 20.3133 7.8 20.82 7.8C21.98 7.8 22.8133 8.13333 23.32 8.8C23.88 8.48 24.4933 8.23333 25.16 8.06C25.84 7.88667 26.46 7.8 27.02 7.8C27.6867 7.8 28.2267 7.92667 28.64 8.18C29.0667 8.43333 29.4 8.78 29.64 9.22C29.88 9.66 30.04 10.18 30.12 10.78C30.2133 11.3667 30.26 12 30.26 12.68V17.98H28.6V12.74C28.6 12.2733 28.58 11.8333 28.54 11.42C28.5133 10.9933 28.4267 10.62 28.28 10.3C28.1467 9.98 27.94 9.72667 27.66 9.54C27.3933 9.35333 27.0267 9.26 26.56 9.26C26.16 9.26 25.72 9.32667 25.24 9.46C24.76 9.59333 24.3133 9.76 23.9 9.96C24.06 10.2 24.14 11.1467 24.14 12.8V17.98H22.48V12.84C22.48 12.4133 22.4667 11.9867 22.44 11.56C22.4267 11.1333 22.36 10.7533 22.24 10.42C22.12 10.0733 21.9333 9.79333 21.68 9.58C21.4267 9.36667 21.0667 9.26 20.6 9.26C20.4 9.26 20.18 9.28 19.94 9.32C19.7 9.36 19.46 9.41333 19.22 9.48C18.98 9.54667 18.7467 9.62 18.52 9.7C18.2933 9.78 18.0933 9.86667 17.92 9.96V17.98H16.26V8.02ZM36.1277 18.2C35.6343 18.2 35.101 18.18 34.5277 18.14C33.9677 18.1 33.4077 18.0467 32.8477 17.98V3.68H34.5077V8.44C35.041 8.21333 35.5343 8.04667 35.9877 7.94C36.4543 7.83333 36.941 7.78 37.4477 7.78C38.101 7.78 38.6543 7.87333 39.1077 8.06C39.561 8.24667 39.9277 8.54667 40.2077 8.96C40.501 9.36 40.7077 9.88667 40.8277 10.54C40.961 11.1933 41.0277 11.9933 41.0277 12.94C41.0277 13.8867 40.941 14.6933 40.7677 15.36C40.5943 16.0267 40.3143 16.5733 39.9277 17C39.541 17.4133 39.0343 17.72 38.4077 17.92C37.7943 18.1067 37.0343 18.2 36.1277 18.2ZM36.3477 16.74C36.921 16.74 37.3943 16.6733 37.7677 16.54C38.1543 16.3933 38.461 16.1667 38.6877 15.86C38.9277 15.5533 39.0943 15.16 39.1877 14.68C39.2943 14.1867 39.3477 13.6 39.3477 12.92C39.3477 12.2267 39.3077 11.6467 39.2277 11.18C39.1477 10.7133 39.021 10.34 38.8477 10.06C38.6743 9.76667 38.441 9.56 38.1477 9.44C37.8677 9.30667 37.521 9.24 37.1077 9.24C36.401 9.24 35.5343 9.42 34.5077 9.78V16.64C34.6277 16.6533 34.7743 16.6667 34.9477 16.68C35.1343 16.68 35.321 16.6867 35.5077 16.7C35.6943 16.7133 35.861 16.7267 36.0077 16.74C36.1677 16.74 36.281 16.74 36.3477 16.74ZM42.4788 17.8L48.1388 3.8L49.5988 4.36L43.9388 18.32L42.4788 17.8ZM55.1516 18.22C54.5516 18.22 53.9449 18.1733 53.3316 18.08C52.7316 18 52.1382 17.9067 51.5516 17.8L51.6316 16.4C52.4049 16.5067 53.0782 16.6 53.6516 16.68C54.2382 16.7467 54.7449 16.78 55.1716 16.78C55.8916 16.78 56.4316 16.6667 56.7916 16.44C57.1649 16.2 57.3516 15.8 57.3516 15.24C57.3516 14.96 57.2716 14.7267 57.1116 14.54C56.9516 14.34 56.7382 14.1733 56.4716 14.04C56.2182 13.9067 55.9249 13.8 55.5916 13.72C55.2716 13.6267 54.9516 13.5533 54.6316 13.5C54.0982 13.4067 53.6249 13.2933 53.2116 13.16C52.8116 13.0267 52.4782 12.8533 52.2116 12.64C51.9449 12.4267 51.7449 12.1667 51.6116 11.86C51.4782 11.54 51.4116 11.16 51.4116 10.72C51.4116 9.70667 51.7382 8.96667 52.3916 8.5C53.0582 8.03333 54.0049 7.8 55.2316 7.8C55.7782 7.8 56.3516 7.84 56.9516 7.92C57.5516 8 58.1316 8.09333 58.6916 8.2L58.6516 9.6C58.0116 9.50667 57.3982 9.42667 56.8116 9.36C56.2382 9.28 55.7116 9.24 55.2316 9.24C54.4849 9.24 53.9382 9.35333 53.5916 9.58C53.2449 9.80667 53.0716 10.1533 53.0716 10.62C53.0716 10.8333 53.1049 11.02 53.1716 11.18C53.2516 11.3267 53.3782 11.46 53.5516 11.58C53.7382 11.7 53.9716 11.8067 54.2516 11.9C54.5449 11.9933 54.9049 12.08 55.3316 12.16C55.7182 12.24 56.1249 12.34 56.5516 12.46C56.9916 12.58 57.3916 12.7467 57.7516 12.96C58.1116 13.16 58.4116 13.4333 58.6516 13.78C58.8916 14.1133 59.0116 14.54 59.0116 15.06C59.0116 16.1533 58.6982 16.9533 58.0716 17.46C57.4582 17.9667 56.4849 18.22 55.1516 18.22Z" fill="#676767"/>
</svg>
