<svg width="29" height="25" viewBox="0 0 29 25" fill="none" xmlns="http://www.w3.org/2000/svg">
<path d="M14.4061 18.7279C13.2599 18.7279 12.1606 18.2726 11.3501 17.4621C10.5396 16.6516 10.0843 15.5523 10.0843 14.4061C10.0843 12.7926 10.963 11.3808 12.2452 10.6461L26.2335 2.54988L18.2669 16.3509C17.5466 17.7627 16.0916 18.7279 14.4061 18.7279ZM14.4061 0C17.0136 0 19.4482 0.720305 21.5659 1.90161L18.5407 3.64474C17.2873 3.15494 15.8467 2.88122 14.4061 2.88122C11.3495 2.88122 8.41812 4.09544 6.25679 6.25678C4.09545 8.41811 2.88123 11.3495 2.88123 14.4061C2.88123 17.5898 4.16337 20.4711 6.25226 22.5455H6.26666C6.8285 23.1074 6.8285 24.015 6.26666 24.5768C5.70482 25.1386 4.78283 25.1386 4.22099 24.5912C2.88119 23.2553 1.81858 21.6677 1.0942 19.9198C0.369828 18.1719 -0.00202512 16.2981 8.2946e-06 14.4061C8.2946e-06 10.5854 1.51779 6.92112 4.21946 4.21945C6.92112 1.51778 10.5854 0 14.4061 0ZM28.8122 14.4061C28.8122 18.3822 27.1987 21.9837 24.5912 24.5912C24.0294 25.1386 23.1218 25.1386 22.56 24.5768C22.4264 24.4435 22.3205 24.2852 22.2482 24.1109C22.1759 23.9367 22.1387 23.7498 22.1387 23.5612C22.1387 23.3725 22.1759 23.1857 22.2482 23.0114C22.3205 22.8371 22.4264 22.6788 22.56 22.5455C23.6313 21.4785 24.4808 20.2099 25.0594 18.8129C25.638 17.4159 25.9342 15.9182 25.931 14.4061C25.931 12.9655 25.6573 11.5249 25.1531 10.2283L26.8962 7.20305C28.0919 9.36396 28.8122 11.7842 28.8122 14.4061Z" fill="#9B9B9B"/>
</svg>
