<svg width="26" height="26" viewBox="0 0 26 26" fill="none" xmlns="http://www.w3.org/2000/svg">
<path d="M8.66667 26H2.88889C1.3 26 0 24.7 0 23.1111V2.88889C0 1.3 1.3 0 2.88889 0H8.66667C10.2556 0 11.5556 1.3 11.5556 2.88889V23.1111C11.5556 24.7 10.2556 26 8.66667 26ZM17.3333 26H23.1111C24.7 26 26 24.7 26 23.1111V15.8889C26 14.3 24.7 13 23.1111 13H17.3333C15.7444 13 14.4444 14.3 14.4444 15.8889V23.1111C14.4444 24.7 15.7444 26 17.3333 26ZM26 7.22222V2.88889C26 1.3 24.7 0 23.1111 0H17.3333C15.7444 0 14.4444 1.3 14.4444 2.88889V7.22222C14.4444 8.81111 15.7444 10.1111 17.3333 10.1111H23.1111C24.7 10.1111 26 8.81111 26 7.22222Z" fill="#126AED"/>
</svg>
