<svg width="19" height="13" viewBox="0 0 19 13" fill="none" xmlns="http://www.w3.org/2000/svg">
<path d="M0 3.80534L1.72727 5.47709C6.01955 1.32278 12.9805 1.32278 17.2727 5.47709L19 3.80534C13.7577 -1.26845 5.25091 -1.26845 0 3.80534ZM6.90909 10.4924L9.5 13L12.0909 10.4924C11.751 10.1625 11.3472 9.90078 10.9026 9.7222C10.458 9.54363 9.98136 9.45171 9.5 9.45171C9.01864 9.45171 8.54202 9.54363 8.09742 9.7222C7.65283 9.90078 7.24901 10.1625 6.90909 10.4924ZM3.45455 7.14885L5.18182 8.82061C6.3274 7.71276 7.88057 7.09046 9.5 7.09046C11.1194 7.09046 12.6726 7.71276 13.8182 8.82061L15.5455 7.14885C12.2118 3.92236 6.79682 3.92236 3.45455 7.14885Z" fill="white"/>
</svg>
