<svg width="19" height="13" viewBox="0 0 19 13" fill="none" xmlns="http://www.w3.org/2000/svg">
<path d="M0 3.80532L1.72727 5.47708C6.01955 1.32276 12.9805 1.32276 17.2727 5.47708L19 3.80532C13.7577 -1.26846 5.25091 -1.26846 0 3.80532ZM6.90909 10.4923L9.5 13L12.0909 10.4923C11.751 10.1625 11.3472 9.90076 10.9026 9.72219C10.458 9.54361 9.98136 9.4517 9.5 9.4517C9.01864 9.4517 8.54202 9.54361 8.09742 9.72219C7.65283 9.90076 7.24901 10.1625 6.90909 10.4923ZM3.45455 7.14884L5.18182 8.82059C6.3274 7.71275 7.88057 7.09045 9.5 7.09045C11.1194 7.09045 12.6726 7.71275 13.8182 8.82059L15.5455 7.14884C12.2118 3.92234 6.79682 3.92234 3.45455 7.14884Z" fill="white"/>
</svg>
